TwilioSansMono-Retina.ufo
<glyph name="numbersign" format="2">
	<unicode hex="0023"/>
	<advance width="600"/>
	<outline>
		<contour>
			<point x="35" y="241" type="line"/>
			<point x="35" y="167" type="line"/>
			<point x="137" y="167" type="line"/>
			<point x="121" y="0" type="line"/>
			<point x="200" y="0" type="line"/>
			<point x="215" y="167" type="line"/>
			<point x="352" y="167" type="line"/>
			<point x="336" y="0" type="line"/>
			<point x="412" y="0" type="line"/>
			<point x="428" y="167" type="line"/>
			<point x="542" y="167" type="line"/>
			<point x="542" y="241" type="line"/>
			<point x="435" y="241" type="line"/>
			<point x="456" y="454" type="line"/>
			<point x="565" y="454" type="line"/>
			<point x="565" y="529" type="line"/>
			<point x="463" y="529" type="line"/>
			<point x="478" y="684" type="line"/>
			<point x="401" y="684" type="line"/>
			<point x="386" y="529" type="line"/>
			<point x="249" y="529" type="line"/>
			<point x="264" y="684" type="line"/>
			<point x="187" y="684" type="line"/>
			<point x="172" y="529" type="line"/>
			<point x="59" y="529" type="line"/>
			<point x="59" y="454" type="line"/>
			<point x="165" y="454" type="line"/>
			<point x="144" y="241" type="line"/>
		</contour>
		<contour>
			<point x="222" y="241" type="line"/>
			<point x="242" y="454" type="line"/>
			<point x="379" y="454" type="line"/>
			<point x="359" y="241" type="line"/>
		</contour>
	</outline>
</glyph>
<glyph name="dollar" format="2">
	<unicode hex="0024"/>
	<advance width="600"/>
	<outline>
		<contour>
			<point x="196" y="-93" type="line"/>
			<point x="265" y="-93" type="line"/>
			<point x="278" y="-10" type="line"/>
			<point x="290" y="-11"/>
			<point x="302" y="-12"/>
			<point x="315" y="-12" type="curve" smooth="yes"/>
			<point x="451" y="-12"/>
			<point x="548" y="63"/>
			<point x="548" y="202" type="curve" smooth="yes"/>
			<point x="548" y="337"/>
			<point x="446" y="363"/>
			<point x="335" y="382" type="curve"/>
			<point x="372" y="612" type="line"/>
			<point x="429" y="602"/>
			<point x="485" y="579"/>
			<point x="529" y="545" type="curve"/>
			<point x="529" y="631" type="line"/>
			<point x="496" y="655"/>
			<point x="449" y="677"/>
			<point x="389" y="688" type="curve"/>
			<point x="403" y="774" type="line"/>
			<point x="333" y="774" type="line"/>
			<point x="321" y="695" type="line"/>
			<point x="313" y="696"/>
			<point x="305" y="696"/>
			<point x="297" y="696" type="curve" smooth="yes"/>
			<point x="155" y="696"/>
			<point x="55" y="623"/>
			<point x="55" y="488" type="curve" smooth="yes"/>
			<point x="55" y="352"/>
			<point x="150" y="321"/>
			<point x="263" y="302" type="curve"/>
			<point x="227" y="77" type="line"/>
			<point x="165" y="91"/>
			<point x="110" y="120"/>
			<point x="63" y="161" type="curve"/>
			<point x="63" y="69" type="line"/>
			<point x="103" y="38"/>
			<point x="150" y="13"/>
			<point x="210" y="-1" type="curve"/>
		</contour>
		<contour>
			<point x="148" y="497" type="curve" smooth="yes"/>
			<point x="148" y="578"/>
			<point x="209" y="619"/>
			<point x="295" y="619" type="curve" smooth="yes"/>
			<point x="313" y="619" type="line"/>
			<point x="277" y="391" type="line"/>
			<point x="201" y="404"/>
			<point x="148" y="423"/>
		</contour>
		<contour>
			<point x="453" y="191" type="curve" smooth="yes"/>
			<point x="453" y="106"/>
			<point x="397" y="67"/>
			<point x="315" y="67" type="curve" smooth="yes"/>
			<point x="305" y="67"/>
			<point x="295" y="68"/>
			<point x="285" y="68" type="curve"/>
			<point x="320" y="293" type="line"/>
			<point x="399" y="281"/>
			<point x="453" y="265"/>
		</contour>
	</outline>
</glyph>
<glyph name="ampersand" format="2">
	<unicode hex="0026"/>
	<advance width="600"/>
	<outline>
		<contour>
			<point x="225" y="-14" type="curve" smooth="yes"/>
			<point x="309" y="-14"/>
			<point x="377" y="19"/>
			<point x="430" y="74" type="curve"/>
			<point x="497" y="0" type="line"/>
			<point x="609" y="-1" type="line"/>
			<point x="482" y="140" type="line"/>
			<point x="524" y="209"/>
			<point x="552" y="295"/>
			<point x="566" y="390" type="curve"/>
			<point x="485" y="389" type="line"/>
			<point x="474" y="319"/>
			<point x="456" y="253"/>
			<point x="429" y="199" type="curve"/>
			<point x="263" y="382" type="line" smooth="yes"/>
			<point x="223" y="425"/>
			<point x="190" y="460"/>
			<point x="190" y="518" type="curve" smooth="yes"/>
			<point x="190" y="582"/>
			<point x="232" y="621"/>
			<point x="305" y="621" type="curve" smooth="yes"/>
			<point x="372" y="621"/>
			<point x="435" y="594"/>
			<point x="485" y="560" type="curve"/>
			<point x="485" y="646" type="line"/>
			<point x="439" y="675"/>
			<point x="374" y="698"/>
			<point x="301" y="698" type="curve" smooth="yes"/>
			<point x="170" y="698"/>
			<point x="101" y="619"/>
			<point x="101" y="517" type="curve" smooth="yes"/>
			<point x="101" y="470"/>
			<point x="116" y="434"/>
			<point x="138" y="402" type="curve"/>
			<point x="71" y="361"/>
			<point x="15" y="289"/>
			<point x="15" y="187" type="curve" smooth="yes"/>
			<point x="15" y="57"/>
			<point x="101" y="-14"/>
		</contour>
		<contour>
			<point x="101" y="198" type="curve" smooth="yes"/>
			<point x="101" y="266"/>
			<point x="135" y="316"/>
			<point x="184" y="346" type="curve"/>
			<point x="189" y="340"/>
			<point x="194" y="335"/>
			<point x="199" y="329" type="curve" smooth="yes"/>
			<point x="382" y="127" type="line"/>
			<point x="345" y="86"/>
			<point x="298" y="61"/>
			<point x="239" y="61" type="curve" smooth="yes"/>
			<point x="152" y="61"/>
			<point x="101" y="113"/>
		</contour>
	</outline>
</glyph>
<glyph name="quotesingle" format="2">
	<unicode hex="0027"/>
	<advance width="600"/>
	<outline>
		<contour>
			<point x="265" y="495" type="line"/>
			<point x="334" y="495" type="line"/>
			<point x="358" y="750" type="line"/>
			<point x="242" y="750" type="line"/>
		</contour>
	</outline>
</glyph>
<glyph name="parenleft" format="2">
	<unicode hex="0028"/>
	<advance width="600"/>
	<outline>
		<contour>
			<point x="466" y="-168" type="curve"/>
			<point x="495" y="-91" type="line"/>
			<point x="318" y="-23"/>
			<point x="253" y="111"/>
			<point x="253" y="315" type="curve" smooth="yes"/>
			<point x="253" y="513"/>
			<point x="313" y="654"/>
			<point x="495" y="721" type="curve"/>
			<point x="466" y="798" type="line"/>
			<point x="251" y="712"/>
			<point x="164" y="559"/>
			<point x="164" y="316" type="curve" smooth="yes"/>
			<point x="164" y="75"/>
			<point x="244" y="-79"/>
		</contour>
	</outline>
</glyph>
<glyph name="parenright" format="2">
	<unicode hex="0029"/>
	<advance width="600"/>
	<outline>
		<contour>
			<point x="105" y="-91" type="curve"/>
			<point x="134" y="-168" type="line"/>
			<point x="357" y="-80"/>
			<point x="436" y="77"/>
			<point x="436" y="315" type="curve" smooth="yes"/>
			<point x="436" y="554"/>
			<point x="353" y="710"/>
			<point x="134" y="798" type="curve"/>
			<point x="105" y="721" type="line"/>
			<point x="290" y="652"/>
			<point x="347" y="507"/>
			<point x="347" y="315" type="curve" smooth="yes"/>
			<point x="347" y="122"/>
			<point x="290" y="-19"/>
		</contour>
	</outline>
</glyph>
<glyph name="plus" format="2">
	<unicode hex="002B"/>
	<advance width="600"/>
	<outline>
		<contour>
			<point x="258" y="537" type="line"/>
			<point x="258" y="350" type="line"/>
			<point x="74" y="350" type="line"/>
			<point x="74" y="268" type="line"/>
			<point x="258" y="268" type="line"/>
			<point x="258" y="81" type="line"/>
			<point x="342" y="81" type="line"/>
			<point x="342" y="268" type="line"/>
			<point x="526" y="268" type="line"/>
			<point x="526" y="350" type="line"/>
			<point x="342" y="350" type="line"/>
			<point x="342" y="537" type="line"/>
		</contour>
	</outline>
</glyph>
<glyph name="slash" format="2">
	<unicode hex="002F"/>
	<advance width="600"/>
	<outline>
		<contour>
			<point x="440" y="792" type="line"/>
			<point x="67" y="-163" type="line"/>
			<point x="159" y="-163" type="line"/>
			<point x="533" y="792" type="line"/>
		</contour>
	</outline>
</glyph>
<glyph name="zero" format="2">
	<unicode hex="0030"/>
	<advance width="600"/>
	<outline>
		<contour>
			<point x="300" y="-14" type="curve" smooth="yes"/>
			<point x="453" y="-14"/>
			<point x="546" y="104"/>
			<point x="546" y="335" type="curve" smooth="yes"/>
			<point x="546" y="349" type="line" smooth="yes"/>
			<point x="546" y="579"/>
			<point x="453" y="698"/>
			<point x="300" y="698" type="curve" smooth="yes"/>
			<point x="147" y="698"/>
			<point x="54" y="579"/>
			<point x="54" y="349" type="curve" smooth="yes"/>
			<point x="54" y="335" type="line" smooth="yes"/>
			<point x="54" y="104"/>
			<point x="147" y="-14"/>
		</contour>
		<contour>
			<point x="300" y="66" type="curve" smooth="yes"/>
			<point x="202" y="66"/>
			<point x="145" y="148"/>
			<point x="145" y="339" type="curve" smooth="yes"/>
			<point x="145" y="346" type="line" smooth="yes"/>
			<point x="145" y="537"/>
			<point x="202" y="619"/>
			<point x="300" y="619" type="curve" smooth="yes"/>
			<point x="397" y="619"/>
			<point x="455" y="537"/>
			<point x="455" y="346" type="curve" smooth="yes"/>
			<point x="455" y="339" type="line" smooth="yes"/>
			<point x="455" y="148"/>
			<point x="397" y="66"/>
		</contour>
		<contour>
			<point x="300" y="274" type="curve" smooth="yes"/>
			<point x="340" y="274"/>
			<point x="364" y="293"/>
			<point x="364" y="343" type="curve" smooth="yes"/>
			<point x="364" y="394"/>
			<point x="340" y="412"/>
			<point x="300" y="412" type="curve" smooth="yes"/>
			<point x="260" y="412"/>
			<point x="236" y="394"/>
			<point x="236" y="343" type="curve" smooth="yes"/>
			<point x="236" y="293"/>
			<point x="260" y="274"/>
		</contour>
	</outline>
	<guideline x="336.1294964029" y="413.6762589928" angle="0"/>
</glyph>
<glyph name="four" format="2">
	<unicode hex="0034"/>
	<advance width="600"/>
	<outline>
		<contour>
			<point x="378" y="0" type="line"/>
			<point x="472" y="0" type="line"/>
			<point x="472" y="144" type="line"/>
			<point x="550" y="144" type="line"/>
			<point x="550" y="223" type="line"/>
			<point x="472" y="223" type="line"/>
			<point x="472" y="687" type="line"/>
			<point x="339" y="687" type="line"/>
			<point x="35" y="224" type="line"/>
			<point x="35" y="145" type="line"/>
			<point x="378" y="145" type="line"/>
		</contour>
		<contour>
			<point x="129" y="223" type="line"/>
			<point x="378" y="606" type="line"/>
			<point x="378" y="223" type="line"/>
		</contour>
	</outline>
</glyph>
<glyph name="six" format="2">
	<unicode hex="0036"/>
	<advance width="600"/>
	<outline>
		<contour>
			<point x="304" y="-14" type="curve" smooth="yes"/>
			<point x="459" y="-14"/>
			<point x="545" y="91"/>
			<point x="545" y="235" type="curve" smooth="yes"/>
			<point x="545" y="357"/>
			<point x="483" y="443"/>
			<point x="341" y="443" type="curve" smooth="yes"/>
			<point x="256" y="443"/>
			<point x="190" y="406"/>
			<point x="153" y="323" type="curve"/>
			<point x="158" y="515"/>
			<point x="193" y="619"/>
			<point x="347" y="619" type="curve" smooth="yes"/>
			<point x="411" y="619"/>
			<point x="491" y="595"/>
			<point x="531" y="561" type="curve"/>
			<point x="531" y="646" type="line"/>
			<point x="493" y="673"/>
			<point x="415" y="698"/>
			<point x="339" y="698" type="curve" smooth="yes"/>
			<point x="107" y="698"/>
			<point x="53" y="512"/>
			<point x="53" y="326" type="curve" smooth="yes"/>
			<point x="53" y="312" type="line" smooth="yes"/>
			<point x="53" y="130"/>
			<point x="102" y="-14"/>
		</contour>
		<contour>
			<point x="304" y="63" type="curve" smooth="yes"/>
			<point x="209" y="63"/>
			<point x="155" y="131"/>
			<point x="155" y="227" type="curve" smooth="yes"/>
			<point x="155" y="319"/>
			<point x="216" y="372"/>
			<point x="307" y="372" type="curve" smooth="yes"/>
			<point x="399" y="372"/>
			<point x="447" y="326"/>
			<point x="447" y="226" type="curve" smooth="yes"/>
			<point x="447" y="119"/>
			<point x="391" y="63"/>
		</contour>
	</outline>
</glyph>
<glyph name="question" format="2">
	<unicode hex="003F"/>
	<advance width="600"/>
	<outline>
		<contour>
			<point x="222" y="202" type="curve"/>
			<point x="305" y="202" type="line"/>
			<point x="306" y="245" type="line" smooth="yes"/>
			<point x="308" y="368"/>
			<point x="497" y="384"/>
			<point x="497" y="543" type="curve" smooth="yes"/>
			<point x="497" y="634"/>
			<point x="430" y="698"/>
			<point x="295" y="698" type="curve" smooth="yes"/>
			<point x="195" y="698"/>
			<point x="130" y="664"/>
			<point x="97" y="642" type="curve"/>
			<point x="97" y="557" type="line"/>
			<point x="139" y="589"/>
			<point x="203" y="617"/>
			<point x="278" y="617" type="curve" smooth="yes"/>
			<point x="365" y="617"/>
			<point x="402" y="581"/>
			<point x="402" y="529" type="curve" smooth="yes"/>
			<point x="402" y="414"/>
			<point x="219" y="404"/>
			<point x="219" y="242" type="curve" smooth="yes"/>
			<point x="219" y="228"/>
			<point x="220" y="216"/>
		</contour>
		<contour>
			<point x="265" y="-12" type="curve" smooth="yes"/>
			<point x="311" y="-12"/>
			<point x="335" y="6"/>
			<point x="335" y="52" type="curve" smooth="yes"/>
			<point x="335" y="97"/>
			<point x="312" y="115"/>
			<point x="265" y="115" type="curve" smooth="yes"/>
			<point x="217" y="115"/>
			<point x="194" y="97"/>
			<point x="194" y="52" type="curve" smooth="yes"/>
			<point x="194" y="6"/>
			<point x="218" y="-12"/>
		</contour>
	</outline>
</glyph>
<glyph name="B" format="2">
	<unicode hex="0042"/>
	<advance width="600"/>
	<outline>
		<contour>
			<point x="342" y="685" type="curve" smooth="yes"/>
			<point x="77" y="685" type="line"/>
			<point x="77" y="0" type="line"/>
			<point x="341" y="0" type="line" smooth="yes"/>
			<point x="480" y="0"/>
			<point x="548" y="81"/>
			<point x="548" y="186" type="curve" smooth="yes"/>
			<point x="548" y="280"/>
			<point x="499" y="336"/>
			<point x="400" y="351" type="curve"/>
			<point x="485" y="369"/>
			<point x="535" y="427"/>
			<point x="535" y="512" type="curve" smooth="yes"/>
			<point x="535" y="620"/>
			<point x="472" y="685"/>
		</contour>
		<contour>
			<point x="322" y="610" type="line" smooth="yes"/>
			<point x="406" y="610"/>
			<point x="439" y="565"/>
			<point x="439" y="499" type="curve" smooth="yes"/>
			<point x="439" y="433"/>
			<point x="399" y="383"/>
			<point x="322" y="383" type="curve" smooth="yes"/>
			<point x="172" y="383" type="line"/>
			<point x="172" y="610" type="line"/>
		</contour>
		<contour>
			<point x="321" y="309" type="line" smooth="yes"/>
			<point x="415" y="309"/>
			<point x="448" y="258"/>
			<point x="448" y="193" type="curve" smooth="yes"/>
			<point x="448" y="135"/>
			<point x="422" y="78"/>
			<point x="323" y="78" type="curve" smooth="yes"/>
			<point x="172" y="78" type="line"/>
			<point x="172" y="309" type="line"/>
		</contour>
	</outline>
	<anchor name="bottom" x="324" y="0"/>
	<anchor name="top" x="309" y="684"/>
	<guideline x="530.3669064749" y="427.6618705036" angle="90"/>
</glyph>
<glyph name="C" format="2">
	<unicode hex="0043"/>
	<advance width="600"/>
	<outline>
		<contour>
			<point x="377" y="-12" type="curve" smooth="yes"/>
			<point x="446" y="-11"/>
			<point x="492" y="-1"/>
			<point x="536" y="27" type="curve"/>
			<point x="536" y="108" type="line"/>
			<point x="487" y="76"/>
			<point x="430" y="69"/>
			<point x="387" y="69" type="curve" smooth="yes"/>
			<point x="247" y="69"/>
			<point x="161" y="157"/>
			<point x="161" y="338" type="curve" smooth="yes"/>
			<point x="161" y="345" type="line" smooth="yes"/>
			<point x="161" y="525"/>
			<point x="246" y="615"/>
			<point x="391" y="615" type="curve" smooth="yes"/>
			<point x="440" y="615"/>
			<point x="489" y="606"/>
			<point x="534" y="579" type="curve"/>
			<point x="534" y="665" type="line"/>
			<point x="494" y="684"/>
			<point x="444" y="696"/>
			<point x="378" y="696" type="curve" smooth="yes"/>
			<point x="188" y="696"/>
			<point x="62" y="569"/>
			<point x="62" y="350" type="curve" smooth="yes"/>
			<point x="62" y="336" type="line" smooth="yes"/>
			<point x="62" y="108"/>
			<point x="179" y="-13"/>
		</contour>
	</outline>
	<anchor name="bottom" x="359" y="0"/>
	<anchor name="top" x="371" y="684"/>
	<guideline x="424.2949640288" y="442.9136690648" angle="0"/>
</glyph>
<glyph name="F" format="2">
	<unicode hex="0046"/>
	<advance width="600"/>
	<outline>
		<contour>
			<point x="95" y="0" type="line"/>
			<point x="190" y="1" type="line"/>
			<point x="190" y="298" type="line"/>
			<point x="502" y="298" type="line"/>
			<point x="502" y="377" type="line"/>
			<point x="190" y="377" type="line"/>
			<point x="190" y="604" type="line"/>
			<point x="539" y="604" type="line"/>
			<point x="539" y="684" type="line"/>
			<point x="95" y="684" type="line"/>
		</contour>
	</outline>
	<anchor name="bottom" x="331" y="0"/>
	<anchor name="ogonek" x="565" y="0"/>
	<anchor name="top" x="322" y="684"/>
</glyph>
<glyph name="H" format="2">
	<unicode hex="0048"/>
	<advance width="600"/>
	<outline>
		<contour>
			<point x="73" y="0" type="line"/>
			<point x="168" y="0" type="line"/>
			<point x="168" y="306" type="line"/>
			<point x="432" y="306" type="line"/>
			<point x="432" y="0" type="line"/>
			<point x="527" y="0" type="line"/>
			<point x="527" y="684" type="line"/>
			<point x="432" y="684" type="line"/>
			<point x="432" y="386" type="line"/>
			<point x="168" y="386" type="line"/>
			<point x="168" y="684" type="line"/>
			<point x="73" y="684" type="line"/>
		</contour>
	</outline>
	<anchor name="bottom" x="288" y="0"/>
	<anchor name="center" x="299" y="525"/>
	<anchor name="top" x="299" y="684"/>
</glyph>
<glyph name="I" format="2">
	<unicode hex="0049"/>
	<advance width="600"/>
	<outline>
		<contour>
			<point x="82" y="0" type="line"/>
			<point x="518" y="0" type="line"/>
			<point x="518" y="78" type="line"/>
			<point x="348" y="78" type="line"/>
			<point x="348" y="607" type="line"/>
			<point x="518" y="607" type="line"/>
			<point x="518" y="684" type="line"/>
			<point x="82" y="684" type="line"/>
			<point x="82" y="607" type="line"/>
			<point x="253" y="607" type="line"/>
			<point x="253" y="78" type="line"/>
			<point x="82" y="78" type="line"/>
		</contour>
	</outline>
	<anchor name="bottom" x="301" y="0"/>
	<anchor name="ogonek" x="518" y="0"/>
	<anchor name="top" x="300" y="684"/>
	<guideline x="458.3237410072" y="268" angle="90"/>
</glyph>
<glyph name="L" format="2">
	<unicode hex="004C"/>
	<advance width="600"/>
	<outline>
		<contour>
			<point x="97" y="0" type="line"/>
			<point x="540" y="0" type="line"/>
			<point x="540" y="87" type="line"/>
			<point x="192" y="87" type="line"/>
			<point x="192" y="684" type="line"/>
			<point x="97" y="684" type="line"/>
		</contour>
	</outline>
	<anchor name="bottom" x="321" y="0"/>
	<anchor name="caron" x="331" y="684"/>
	<anchor name="center" x="143" y="325"/>
	<anchor name="top" x="145" y="684"/>
	<guideline x="182.4388489209" y="333.6978417266" angle="90"/>
</glyph>
<glyph name="M" format="2">
	<unicode hex="004D"/>
	<advance width="600"/>
	<outline>
		<contour>
			<point x="59" y="0" type="line"/>
			<point x="142" y="0" type="line"/>
			<point x="142" y="375" type="line" smooth="yes"/>
			<point x="142" y="418"/>
			<point x="138" y="526"/>
			<point x="132" y="591" type="curve"/>
			<point x="138" y="591" type="line"/>
			<point x="257" y="182" type="line"/>
			<point x="341" y="182" type="line"/>
			<point x="462" y="591" type="line"/>
			<point x="469" y="591" type="line"/>
			<point x="463" y="527"/>
			<point x="458" y="450"/>
			<point x="458" y="376" type="curve" smooth="yes"/>
			<point x="458" y="0" type="line"/>
			<point x="541" y="0" type="line"/>
			<point x="541" y="685" type="line"/>
			<point x="415" y="685" type="line"/>
			<point x="302" y="278" type="line"/>
			<point x="298" y="278" type="line"/>
			<point x="185" y="685" type="line"/>
			<point x="59" y="685" type="line"/>
		</contour>
	</outline>
	<guideline x="508.7050359712" y="720.7194244605" angle="90"/>
	<guideline x="994.0935251799" y="164.2517985611" angle="90"/>
</glyph>
<glyph name="P" format="2">
	<unicode hex="0050"/>
	<advance width="600"/>
	<outline>
		<contour>
			<point x="82" y="0" type="line"/>
			<point x="177" y="0" type="line"/>
			<point x="177" y="223" type="line"/>
			<point x="332" y="223" type="line" smooth="yes"/>
			<point x="473" y="223"/>
			<point x="562" y="317"/>
			<point x="562" y="457" type="curve" smooth="yes"/>
			<point x="562" y="597"/>
			<point x="472" y="684"/>
			<point x="332" y="684" type="curve" smooth="yes"/>
			<point x="82" y="684" type="line"/>
		</contour>
		<contour>
			<point x="318" y="605" type="line" smooth="yes"/>
			<point x="415" y="605"/>
			<point x="465" y="546"/>
			<point x="465" y="457" type="curve" smooth="yes"/>
			<point x="465" y="367"/>
			<point x="416" y="302"/>
			<point x="318" y="302" type="curve" smooth="yes"/>
			<point x="177" y="302" type="line"/>
			<point x="177" y="605" type="line"/>
		</contour>
	</outline>
	<anchor name="bottom" x="186" y="0"/>
	<anchor name="top" x="338" y="684"/>
	<guideline x="228.6330935251" y="245.2446043166" angle="0"/>
</glyph>
<glyph name="R" format="2">
	<unicode hex="0052"/>
	<advance width="600"/>
	<outline>
		<contour>
			<point x="75" y="0" type="line"/>
			<point x="170" y="0" type="line"/>
			<point x="170" y="265" type="line"/>
			<point x="301" y="265" type="line" smooth="yes"/>
			<point x="374" y="265"/>
			<point x="402" y="236"/>
			<point x="418" y="161" type="curve" smooth="yes"/>
			<point x="454" y="0" type="line"/>
			<point x="556" y="0" type="line"/>
			<point x="511" y="182" type="line" smooth="yes"/>
			<point x="494" y="257"/>
			<point x="462" y="293"/>
			<point x="401" y="305" type="curve"/>
			<point x="483" y="320"/>
			<point x="546" y="382"/>
			<point x="546" y="488" type="curve" smooth="yes"/>
			<point x="546" y="603"/>
			<point x="477" y="684"/>
			<point x="338" y="684" type="curve" smooth="yes"/>
			<point x="75" y="684" type="line"/>
		</contour>
		<contour>
			<point x="317" y="606" type="line" smooth="yes"/>
			<point x="409" y="606"/>
			<point x="449" y="553"/>
			<point x="449" y="478" type="curve" smooth="yes"/>
			<point x="449" y="398"/>
			<point x="409" y="343"/>
			<point x="317" y="343" type="curve" smooth="yes"/>
			<point x="170" y="343" type="line"/>
			<point x="170" y="606" type="line"/>
		</contour>
	</outline>
	<anchor name="bottom" x="312" y="0"/>
	<anchor name="top" x="284" y="684"/>
	<guideline x="285.2086330935" y="500.6690647482" angle="90"/>
	<guideline x="606.6978417266" y="508.6330935251" angle="270"/>
</glyph>
<glyph name="S" format="2">
	<unicode hex="0053"/>
	<advance width="600"/>
	<outline>
		<contour>
			<point x="309" y="-14" type="curve"/>
			<point x="445" y="-14"/>
			<point x="540" y="60"/>
			<point x="540" y="197" type="curve" smooth="yes"/>
			<point x="540" y="344"/>
			<point x="425" y="365"/>
			<point x="307" y="387" type="curve" smooth="yes"/>
			<point x="212" y="405"/>
			<point x="157" y="425"/>
			<point x="157" y="501" type="curve" smooth="yes"/>
			<point x="157" y="581"/>
			<point x="217" y="620"/>
			<point x="299" y="620" type="curve" smooth="yes"/>
			<point x="384" y="620"/>
			<point x="467" y="593"/>
			<point x="523" y="549" type="curve"/>
			<point x="523" y="638" type="line"/>
			<point x="471" y="674"/>
			<point x="392" y="698"/>
			<point x="301" y="698" type="curve" smooth="yes"/>
			<point x="162" y="698"/>
			<point x="61" y="624"/>
			<point x="61" y="490" type="curve" smooth="yes"/>
			<point x="61" y="346"/>
			<point x="165" y="318"/>
			<point x="284" y="298" type="curve" smooth="yes"/>
			<point x="377" y="282"/>
			<point x="445" y="269"/>
			<point x="445" y="186" type="curve" smooth="yes"/>
			<point x="445" y="105"/>
			<point x="388" y="65"/>
			<point x="307" y="65" type="curve"/>
			<point x="218" y="65"/>
			<point x="138" y="99"/>
			<point x="69" y="157" type="curve"/>
			<point x="69" y="62" type="line"/>
			<point x="126" y="21"/>
			<point x="199" y="-14"/>
		</contour>
	</outline>
	<anchor name="bottom" x="312" y="0"/>
	<anchor name="top" x="306" y="684"/>
	<guideline x="123.8561151079" y="416.7841726618" angle="0"/>
</glyph>
<glyph name="U" format="2">
	<unicode hex="0055"/>
	<advance width="600"/>
	<outline>
		<contour>
			<point x="296" y="-14" type="curve" smooth="yes"/>
			<point x="454" y="-14"/>
			<point x="529" y="80"/>
			<point x="529" y="246" type="curve" smooth="yes"/>
			<point x="529" y="684" type="line"/>
			<point x="434" y="684" type="line"/>
			<point x="434" y="246" type="line" smooth="yes"/>
			<point x="434" y="138"/>
			<point x="394" y="67"/>
			<point x="300" y="67" type="curve" smooth="yes"/>
			<point x="206" y="67"/>
			<point x="166" y="138"/>
			<point x="166" y="246" type="curve" smooth="yes"/>
			<point x="166" y="684" type="line"/>
			<point x="71" y="684" type="line"/>
			<point x="71" y="246" type="line" smooth="yes"/>
			<point x="71" y="80"/>
			<point x="139" y="-14"/>
		</contour>
	</outline>
	<anchor name="bottom" x="293" y="0"/>
	<anchor name="ogonek" x="391" y="0"/>
	<anchor name="top" x="300" y="684"/>
	<guideline x="570.4532374101" y="507" angle="0"/>
	<guideline x="372.5107913669" y="42.2949640288" angle="0"/>
</glyph>
<glyph name="X" format="2">
	<unicode hex="0058"/>
	<advance width="600"/>
	<outline>
		<contour>
			<point x="29" y="0" type="line"/>
			<point x="138" y="0" type="line"/>
			<point x="298" y="291" type="line"/>
			<point x="462" y="0" type="line"/>
			<point x="571" y="0" type="line"/>
			<point x="363" y="360" type="line"/>
			<point x="557" y="684" type="line"/>
			<point x="448" y="684" type="line"/>
			<point x="300" y="429" type="line"/>
			<point x="152" y="684" type="line"/>
			<point x="43" y="684" type="line"/>
			<point x="238" y="361" type="line"/>
		</contour>
	</outline>
	<anchor name="bottom" x="315" y="0"/>
	<anchor name="top" x="310" y="684"/>
	<guideline x="371" y="510.7050359712" angle="0"/>
	<guideline x="245.7625899281" y="575.2230215827" angle="0"/>
</glyph>
<glyph name="Y" format="2">
	<unicode hex="0059"/>
	<advance width="600"/>
	<outline>
		<contour>
			<point x="249" y="0" type="line"/>
			<point x="344" y="0" type="line"/>
			<point x="344" y="229" type="line"/>
			<point x="572" y="684" type="line"/>
			<point x="468" y="684" type="line"/>
			<point x="299" y="333" type="line"/>
			<point x="133" y="684" type="line"/>
			<point x="28" y="684" type="line"/>
			<point x="249" y="231" type="line"/>
		</contour>
	</outline>
	<anchor name="bottom" x="296" y="0"/>
	<anchor name="top" x="301" y="684"/>
</glyph>
<glyph name="Z" format="2">
	<unicode hex="005A"/>
	<advance width="600"/>
	<outline>
		<contour>
			<point x="60" y="0" type="line"/>
			<point x="540" y="0" type="line"/>
			<point x="540" y="81" type="line"/>
			<point x="178" y="81" type="line"/>
			<point x="539" y="605" type="line"/>
			<point x="539" y="684" type="line"/>
			<point x="76" y="684" type="line"/>
			<point x="76" y="604" type="line"/>
			<point x="432" y="604" type="line"/>
			<point x="60" y="74" type="line"/>
		</contour>
	</outline>
	<anchor name="bottom" x="300" y="0"/>
	<anchor name="top" x="306" y="684"/>
</glyph>
<glyph name="bracketright" format="2">
	<unicode hex="005D"/>
	<advance width="600"/>
	<outline>
		<contour>
			<point x="116" y="-163" type="line"/>
			<point x="407" y="-163" type="line"/>
			<point x="407" y="792" type="line"/>
			<point x="116" y="792" type="line"/>
			<point x="116" y="722" type="line"/>
			<point x="319" y="722" type="line"/>
			<point x="319" y="-93" type="line"/>
			<point x="116" y="-93" type="line"/>
		</contour>
	</outline>
</glyph>
<glyph name="asciicircum" format="2">
	<unicode hex="005E"/>
	<advance width="600"/>
	<outline>
		<contour>
			<point x="74" y="233" type="line"/>
			<point x="163" y="233" type="line"/>
			<point x="300" y="501" type="line"/>
			<point x="436" y="233" type="line"/>
			<point x="526" y="233" type="line"/>
			<point x="344" y="577" type="line"/>
			<point x="254" y="577" type="line"/>
		</contour>
	</outline>
</glyph>
<glyph name="a" format="2">
	<unicode hex="0061"/>
	<advance width="600"/>
	<outline>
		<contour>
			<point x="235" y="-14" type="curve" smooth="yes"/>
			<point x="313" y="-14"/>
			<point x="376" y="27"/>
			<point x="411" y="102" type="curve"/>
			<point x="411" y="0" type="line"/>
			<point x="501" y="0" type="line"/>
			<point x="501" y="347" type="line"/>
			<point x="501" y="469"/>
			<point x="425" y="536"/>
			<point x="288" y="536" type="curve" smooth="yes"/>
			<point x="211" y="536"/>
			<point x="144" y="514"/>
			<point x="93" y="482" type="curve"/>
			<point x="93" y="399" type="line"/>
			<point x="151" y="442"/>
			<point x="222" y="459"/>
			<point x="278" y="459" type="curve" smooth="yes"/>
			<point x="358" y="459"/>
			<point x="408" y="418"/>
			<point x="408" y="339" type="curve"/>
			<point x="408" y="324" type="line"/>
			<point x="295" y="308" type="line" smooth="yes"/>
			<point x="151" y="288"/>
			<point x="82" y="227"/>
			<point x="82" y="130" type="curve" smooth="yes"/>
			<point x="82" y="41"/>
			<point x="147" y="-14"/>
		</contour>
		<contour>
			<point x="270" y="55" type="curve" smooth="yes"/>
			<point x="217" y="55"/>
			<point x="172" y="85"/>
			<point x="172" y="142" type="curve" smooth="yes"/>
			<point x="172" y="210"/>
			<point x="220" y="237"/>
			<point x="315" y="252" type="curve" smooth="yes"/>
			<point x="408" y="266" type="line"/>
			<point x="408" y="199" type="line" smooth="yes"/>
			<point x="408" y="106"/>
			<point x="336" y="55"/>
		</contour>
	</outline>
	<anchor name="bottom" x="294" y="0"/>
	<anchor name="ogonek" x="501" y="0"/>
	<anchor name="top" x="294" y="523"/>
</glyph>
<glyph name="c" format="2">
	<unicode hex="0063"/>
	<advance width="600"/>
	<outline>
		<contour>
			<point x="361" y="-12" type="curve" smooth="yes"/>
			<point x="422" y="-12"/>
			<point x="475" y="2"/>
			<point x="508" y="24" type="curve"/>
			<point x="508" y="100" type="line"/>
			<point x="475" y="80"/>
			<point x="426" y="65"/>
			<point x="375" y="65" type="curve" smooth="yes"/>
			<point x="260" y="65"/>
			<point x="188" y="135"/>
			<point x="188" y="258" type="curve" smooth="yes"/>
			<point x="188" y="265" type="line" smooth="yes"/>
			<point x="188" y="386"/>
			<point x="258" y="458"/>
			<point x="379" y="458" type="curve" smooth="yes"/>
			<point x="422" y="458"/>
			<point x="470" y="449"/>
			<point x="508" y="426" type="curve"/>
			<point x="508" y="504" type="line"/>
			<point x="476" y="522"/>
			<point x="422" y="535"/>
			<point x="367" y="535" type="curve" smooth="yes"/>
			<point x="201" y="535"/>
			<point x="91" y="428"/>
			<point x="91" y="267" type="curve" smooth="yes"/>
			<point x="91" y="256" type="line" smooth="yes"/>
			<point x="91" y="89"/>
			<point x="193" y="-12"/>
		</contour>
	</outline>
	<anchor name="bottom" x="350" y="0"/>
	<anchor name="top" x="366" y="523"/>
</glyph>
<glyph name="g" format="2">
	<unicode hex="0067"/>
	<advance width="600"/>
	<outline>
		<contour>
			<point x="257" y="-206" type="curve" smooth="yes"/>
			<point x="279" y="-206" type="line" smooth="yes"/>
			<point x="462" y="-206"/>
			<point x="554" y="-134"/>
			<point x="554" y="-37" type="curve" smooth="yes"/>
			<point x="554" y="44"/>
			<point x="495" y="77"/>
			<point x="390" y="77" type="curve" smooth="yes"/>
			<point x="232" y="77" type="line" smooth="yes"/>
			<point x="185" y="77"/>
			<point x="160" y="89"/>
			<point x="160" y="111" type="curve" smooth="yes"/>
			<point x="160" y="149"/>
			<point x="222" y="165"/>
			<point x="259" y="165" type="curve" smooth="yes"/>
			<point x="274" y="165" type="line" smooth="yes"/>
			<point x="396" y="165"/>
			<point x="484" y="234"/>
			<point x="484" y="345" type="curve" smooth="yes"/>
			<point x="484" y="384"/>
			<point x="469" y="424"/>
			<point x="444" y="447" type="curve"/>
			<point x="558" y="447" type="line"/>
			<point x="558" y="523" type="line"/>
			<point x="279" y="523" type="line" smooth="yes"/>
			<point x="168" y="523"/>
			<point x="72" y="456"/>
			<point x="72" y="339" type="curve" smooth="yes"/>
			<point x="72" y="265"/>
			<point x="112" y="203"/>
			<point x="186" y="179" type="curve"/>
			<point x="109" y="158"/>
			<point x="72" y="124"/>
			<point x="72" y="82" type="curve" smooth="yes"/>
			<point x="72" y="42"/>
			<point x="103" y="14"/>
			<point x="170" y="8" type="curve"/>
			<point x="82" y="-15"/>
			<point x="41" y="-51"/>
			<point x="41" y="-100" type="curve" smooth="yes"/>
			<point x="41" y="-166"/>
			<point x="112" y="-206"/>
		</contour>
		<contour>
			<point x="277" y="225" type="curve" smooth="yes"/>
			<point x="199" y="225"/>
			<point x="162" y="280"/>
			<point x="162" y="341" type="curve" smooth="yes"/>
			<point x="162" y="407"/>
			<point x="202" y="459"/>
			<point x="279" y="459" type="curve" smooth="yes"/>
			<point x="355" y="459"/>
			<point x="395" y="409"/>
			<point x="395" y="344" type="curve" smooth="yes"/>
			<point x="395" y="283"/>
			<point x="362" y="225"/>
		</contour>
		<contour>
			<point x="289" y="-143" type="curve" smooth="yes"/>
			<point x="269" y="-143" type="line"/>
			<point x="193" y="-143"/>
			<point x="134" y="-128"/>
			<point x="134" y="-79" type="curve" smooth="yes"/>
			<point x="134" y="-33"/>
			<point x="187" y="2"/>
			<point x="265" y="2" type="curve" smooth="yes"/>
			<point x="369" y="2" type="line" smooth="yes"/>
			<point x="430" y="2"/>
			<point x="463" y="-14"/>
			<point x="463" y="-58" type="curve" smooth="yes"/>
			<point x="463" y="-106"/>
			<point x="408" y="-143"/>
		</contour>
	</outline>
	<anchor name="bottom" x="314" y="-69"/>
	<anchor name="top" x="281" y="523"/>
	<guideline x="448.4100719424" y="342.6618705036" angle="0"/>
	<guideline x="373.7194244605" y="322.9352517985" angle="0"/>
</glyph>
<glyph name="h" format="2">
	<unicode hex="0068"/>
	<advance width="600"/>
	<outline>
		<contour>
			<point x="354" y="537" type="curve" smooth="yes"/>
			<point x="275" y="537"/>
			<point x="219" y="492"/>
			<point x="184" y="421" type="curve"/>
			<point x="184" y="750" type="line"/>
			<point x="90" y="750" type="line"/>
			<point x="90" y="0" type="line"/>
			<point x="184" y="0" type="line"/>
			<point x="184" y="303" type="line" smooth="yes"/>
			<point x="184" y="332"/>
			<point x="188" y="360"/>
			<point x="200" y="383" type="curve" smooth="yes"/>
			<point x="220" y="426"/>
			<point x="255" y="459"/>
			<point x="314" y="459" type="curve" smooth="yes"/>
			<point x="381" y="459"/>
			<point x="421" y="412"/>
			<point x="421" y="326" type="curve" smooth="yes"/>
			<point x="421" y="0" type="line"/>
			<point x="514" y="0" type="line"/>
			<point x="514" y="346" type="line" smooth="yes"/>
			<point x="514" y="474"/>
			<point x="452" y="537"/>
		</contour>
	</outline>
	<anchor name="bottom" x="302" y="0"/>
	<anchor name="caron" x="7103" y="747"/>
	<anchor name="center" x="180" y="627"/>
	<anchor name="top" x="137" y="729"/>
</glyph>
<glyph name="i" format="2">
	<unicode hex="0069"/>
	<advance width="600"/>
	<outline>
		<contour>
			<point x="318" y="631" type="curve" smooth="yes"/>
			<point x="366" y="631"/>
			<point x="384" y="650"/>
			<point x="384" y="688" type="curve" smooth="yes"/>
			<point x="384" y="725"/>
			<point x="365" y="744"/>
			<point x="318" y="744" type="curve" smooth="yes"/>
			<point x="271" y="744"/>
			<point x="252" y="725"/>
			<point x="252" y="688" type="curve" smooth="yes"/>
			<point x="252" y="650"/>
			<point x="270" y="631"/>
		</contour>
		<contour>
			<point x="85" y="0" type="line"/>
			<point x="545" y="0" type="line"/>
			<point x="545" y="76" type="line"/>
			<point x="366" y="76" type="line"/>
			<point x="366" y="523" type="line"/>
			<point x="86" y="523" type="line"/>
			<point x="86" y="447" type="line"/>
			<point x="273" y="447" type="line"/>
			<point x="273" y="76" type="line"/>
			<point x="85" y="76" type="line"/>
		</contour>
	</outline>
	<anchor name="ogonek" x="543" y="0"/>
	<guideline x="170.2014388489" y="668.3309352518" angle="0"/>
</glyph>
<glyph name="j" format="2">
	<unicode hex="006A"/>
	<advance width="600"/>
	<outline>
		<contour>
			<point x="411" y="631" type="curve" smooth="yes"/>
			<point x="459" y="631"/>
			<point x="477" y="650"/>
			<point x="477" y="688" type="curve" smooth="yes"/>
			<point x="477" y="725"/>
			<point x="458" y="744"/>
			<point x="411" y="744" type="curve" smooth="yes"/>
			<point x="364" y="744"/>
			<point x="345" y="725"/>
			<point x="345" y="688" type="curve" smooth="yes"/>
			<point x="345" y="650"/>
			<point x="362" y="631"/>
		</contour>
		<contour>
			<point x="220" y="-204" type="curve" smooth="yes"/>
			<point x="349" y="-204"/>
			<point x="459" y="-160"/>
			<point x="459" y="2" type="curve" smooth="yes"/>
			<point x="459" y="523" type="line"/>
			<point x="84" y="523" type="line"/>
			<point x="84" y="447" type="line"/>
			<point x="366" y="447" type="line"/>
			<point x="366" y="13" type="line" smooth="yes"/>
			<point x="366" y="-91"/>
			<point x="320" y="-126"/>
			<point x="210" y="-126" type="curve" smooth="yes"/>
			<point x="157" y="-126"/>
			<point x="112" y="-115"/>
			<point x="84" y="-106" type="curve"/>
			<point x="84" y="-182" type="line"/>
			<point x="113" y="-194"/>
			<point x="169" y="-204"/>
		</contour>
	</outline>
</glyph>
<glyph name="m" format="2">
	<unicode hex="006D"/>
	<advance width="600"/>
	<outline>
		<contour>
			<point x="54" y="0" type="line"/>
			<point x="130" y="0" type="line"/>
			<point x="130" y="350" type="line" smooth="yes"/>
			<point x="130" y="386"/>
			<point x="139" y="414"/>
			<point x="152" y="433" type="curve" smooth="yes"/>
			<point x="164" y="454"/>
			<point x="182" y="463"/>
			<point x="206" y="463" type="curve" smooth="yes"/>
			<point x="247" y="463"/>
			<point x="266" y="437"/>
			<point x="266" y="383" type="curve"/>
			<point x="266" y="0" type="line"/>
			<point x="336" y="0" type="line"/>
			<point x="336" y="355" type="line"/>
			<point x="336" y="391"/>
			<point x="343" y="419"/>
			<point x="358" y="438" type="curve" smooth="yes"/>
			<point x="371" y="454"/>
			<point x="390" y="463"/>
			<point x="414" y="463" type="curve" smooth="yes"/>
			<point x="452" y="463"/>
			<point x="471" y="437"/>
			<point x="471" y="383" type="curve" smooth="yes"/>
			<point x="471" y="0" type="line"/>
			<point x="547" y="0" type="line"/>
			<point x="547" y="396" type="line" smooth="yes"/>
			<point x="547" y="478"/>
			<point x="521" y="537"/>
			<point x="443" y="537" type="curve" smooth="yes"/>
			<point x="395" y="537"/>
			<point x="356" y="506"/>
			<point x="334" y="448" type="curve"/>
			<point x="325" y="505"/>
			<point x="290" y="537"/>
			<point x="236" y="537" type="curve" smooth="yes"/>
			<point x="183" y="537"/>
			<point x="148" y="501"/>
			<point x="128" y="446" type="curve"/>
			<point x="128" y="523" type="line"/>
			<point x="54" y="523" type="line"/>
		</contour>
	</outline>
	<anchor name="bottom" x="285" y="0"/>
	<anchor name="top" x="327" y="523"/>
	<guideline x="197.2230215827" y="442.2877697842" angle="0"/>
	<guideline x="375.4388489209" y="561.3669064749" angle="90"/>
</glyph>
<glyph name="o" format="2">
	<unicode hex="006F"/>
	<advance width="600"/>
	<outline>
		<contour>
			<point x="299" y="-14" type="curve" smooth="yes"/>
			<point x="437" y="-14"/>
			<point x="537" y="84"/>
			<point x="537" y="256" type="curve" smooth="yes"/>
			<point x="537" y="270" type="line" smooth="yes"/>
			<point x="537" y="436"/>
			<point x="442" y="537"/>
			<point x="301" y="537" type="curve" smooth="yes"/>
			<point x="161" y="537"/>
			<point x="63" y="436"/>
			<point x="63" y="270" type="curve" smooth="yes"/>
			<point x="63" y="256" type="line" smooth="yes"/>
			<point x="63" y="85"/>
			<point x="161" y="-14"/>
		</contour>
		<contour>
			<point x="300" y="62" type="curve" smooth="yes"/>
			<point x="217" y="62"/>
			<point x="160" y="126"/>
			<point x="160" y="259" type="curve" smooth="yes"/>
			<point x="160" y="266" type="line" smooth="yes"/>
			<point x="160" y="398"/>
			<point x="217" y="462"/>
			<point x="299" y="462" type="curve" smooth="yes"/>
			<point x="383" y="462"/>
			<point x="440" y="398"/>
			<point x="440" y="266" type="curve" smooth="yes"/>
			<point x="440" y="259" type="line" smooth="yes"/>
			<point x="440" y="126"/>
			<point x="384" y="62"/>
		</contour>
	</outline>
	<anchor name="bottom" x="296" y="-4"/>
	<anchor name="center" x="299" y="270"/>
	<anchor name="top" x="301" y="523"/>
</glyph>
<glyph name="p" format="2">
	<unicode hex="0070"/>
	<advance width="600"/>
	<outline>
		<contour>
			<point x="81" y="-194" type="line"/>
			<point x="175" y="-194" type="line"/>
			<point x="175" y="97" type="line"/>
			<point x="210" y="22"/>
			<point x="266" y="-14"/>
			<point x="341" y="-14" type="curve"/>
			<point x="459" y="-14"/>
			<point x="542" y="85"/>
			<point x="542" y="257" type="curve" smooth="yes"/>
			<point x="542" y="269" type="line" smooth="yes"/>
			<point x="542" y="436"/>
			<point x="464" y="537"/>
			<point x="347" y="537" type="curve" smooth="yes"/>
			<point x="264" y="537"/>
			<point x="204" y="488"/>
			<point x="172" y="413" type="curve"/>
			<point x="172" y="523" type="line"/>
			<point x="81" y="523" type="line"/>
		</contour>
		<contour>
			<point x="309" y="62" type="curve" smooth="yes"/>
			<point x="224" y="62"/>
			<point x="170" y="130"/>
			<point x="170" y="258" type="curve" smooth="yes"/>
			<point x="170" y="265" type="line" smooth="yes"/>
			<point x="170" y="396"/>
			<point x="230" y="462"/>
			<point x="311" y="462" type="curve" smooth="yes"/>
			<point x="392" y="462"/>
			<point x="445" y="397"/>
			<point x="445" y="266" type="curve" smooth="yes"/>
			<point x="445" y="259" type="line" smooth="yes"/>
			<point x="445" y="129"/>
			<point x="393" y="62"/>
		</contour>
	</outline>
	<anchor name="bottom" x="187" y="-58"/>
	<anchor name="top" x="354" y="523"/>
</glyph>
<glyph name="q" format="2">
	<unicode hex="0071"/>
	<advance width="600"/>
	<outline>
		<contour>
			<point x="426" y="-194" type="line"/>
			<point x="520" y="-194" type="line"/>
			<point x="520" y="523" type="line"/>
			<point x="429" y="523" type="line"/>
			<point x="429" y="423" type="line"/>
			<point x="395" y="496"/>
			<point x="342" y="537"/>
			<point x="261" y="537" type="curve" smooth="yes"/>
			<point x="148" y="537"/>
			<point x="60" y="438"/>
			<point x="60" y="269" type="curve" smooth="yes"/>
			<point x="60" y="257" type="line" smooth="yes"/>
			<point x="60" y="86"/>
			<point x="135" y="-14"/>
			<point x="254" y="-14" type="curve" smooth="yes"/>
			<point x="336" y="-14"/>
			<point x="393" y="34"/>
			<point x="426" y="107" type="curve"/>
		</contour>
		<contour>
			<point x="289" y="61" type="curve" smooth="yes"/>
			<point x="211" y="61"/>
			<point x="157" y="126"/>
			<point x="157" y="259" type="curve" smooth="yes"/>
			<point x="157" y="265" type="line" smooth="yes"/>
			<point x="157" y="394"/>
			<point x="211" y="461"/>
			<point x="291" y="461" type="curve" smooth="yes"/>
			<point x="376" y="461"/>
			<point x="431" y="393"/>
			<point x="431" y="265" type="curve" smooth="yes"/>
			<point x="431" y="258" type="line" smooth="yes"/>
			<point x="431" y="127"/>
			<point x="370" y="61"/>
		</contour>
	</outline>
</glyph>
<glyph name="t" format="2">
	<unicode hex="0074"/>
	<advance width="600"/>
	<outline>
		<contour>
			<point x="383" y="-12" type="curve"/>
			<point x="432" y="-12"/>
			<point x="481" y="1"/>
			<point x="507" y="15" type="curve"/>
			<point x="507" y="88" type="line"/>
			<point x="481" y="74"/>
			<point x="438" y="65"/>
			<point x="405" y="65" type="curve" smooth="yes"/>
			<point x="338" y="65"/>
			<point x="297" y="95"/>
			<point x="297" y="176" type="curve" smooth="yes"/>
			<point x="297" y="447" type="line"/>
			<point x="510" y="447" type="line"/>
			<point x="510" y="523" type="line"/>
			<point x="297" y="523" type="line"/>
			<point x="297" y="692" type="line"/>
			<point x="218" y="692" type="line"/>
			<point x="210" y="583" type="line" smooth="yes"/>
			<point x="206" y="524"/>
			<point x="176" y="519"/>
			<point x="148" y="519" type="curve" smooth="yes"/>
			<point x="60" y="519" type="line"/>
			<point x="60" y="447" type="line"/>
			<point x="204" y="447" type="line"/>
			<point x="204" y="164" type="line" smooth="yes"/>
			<point x="204" y="36"/>
			<point x="271" y="-12"/>
		</contour>
	</outline>
	<anchor name="bottom" x="348" y="0"/>
	<anchor name="caron" x="437" y="780"/>
	<anchor name="center" x="286" y="291"/>
	<guideline x="344.1582733813" y="65.1942446043" angle="0"/>
	<guideline x="310.0431654677" y="446.9280575539" angle="0"/>
</glyph>
<glyph name="v" format="2">
	<unicode hex="0076"/>
	<advance width="600"/>
	<outline>
		<contour>
			<point x="62" y="523" type="line"/>
			<point x="236" y="-1" type="line"/>
			<point x="363" y="-1" type="line"/>
			<point x="538" y="523" type="line"/>
			<point x="440" y="523" type="line"/>
			<point x="302" y="77" type="line"/>
			<point x="162" y="523" type="line"/>
		</contour>
	</outline>
</glyph>
<glyph name="w" format="2">
	<unicode hex="0077"/>
	<advance width="600"/>
	<outline>
		<contour>
			<point x="113" y="0" type="line"/>
			<point x="223" y="0" type="line"/>
			<point x="298" y="428" type="line"/>
			<point x="304" y="428" type="line"/>
			<point x="377" y="0" type="line"/>
			<point x="486" y="0" type="line"/>
			<point x="571" y="523" type="line"/>
			<point x="494" y="523" type="line"/>
			<point x="429" y="82" type="line"/>
			<point x="423" y="82" type="line"/>
			<point x="346" y="523" type="line"/>
			<point x="256" y="523" type="line"/>
			<point x="178" y="82" type="line"/>
			<point x="171" y="82" type="line"/>
			<point x="107" y="523" type="line"/>
			<point x="29" y="523" type="line"/>
		</contour>
	</outline>
	<anchor name="bottom" x="263" y="1"/>
	<anchor name="top" x="301" y="523"/>
</glyph>
<glyph name="x" format="2">
	<unicode hex="0078"/>
	<advance width="600"/>
	<outline>
		<contour>
			<point x="61" y="0" type="line"/>
			<point x="167" y="0" type="line"/>
			<point x="297" y="211" type="line"/>
			<point x="433" y="0" type="line"/>
			<point x="539" y="0" type="line"/>
			<point x="359" y="276" type="line"/>
			<point x="528" y="523" type="line"/>
			<point x="424" y="523" type="line"/>
			<point x="300" y="334" type="line"/>
			<point x="178" y="523" type="line"/>
			<point x="72" y="523" type="line"/>
			<point x="241" y="272" type="line"/>
		</contour>
	</outline>
	<anchor name="bottom" x="336" y="0"/>
	<anchor name="top" x="332" y="523"/>
	<guideline x="359.6762589928" y="245.3597122302" angle="0"/>
	<guideline x="239.4604316547" y="531.9712230216" angle="90"/>
</glyph>
<glyph name="z" format="2">
	<unicode hex="007A"/>
	<advance width="600"/>
	<outline>
		<contour>
			<point x="92" y="0" type="line"/>
			<point x="508" y="0" type="line"/>
			<point x="508" y="77" type="line"/>
			<point x="209" y="77" type="line"/>
			<point x="508" y="450" type="line"/>
			<point x="508" y="523" type="line"/>
			<point x="98" y="523" type="line"/>
			<point x="98" y="447" type="line"/>
			<point x="395" y="447" type="line"/>
			<point x="92" y="69" type="line"/>
		</contour>
	</outline>
	<anchor name="bottom" x="304" y="0"/>
	<anchor name="top" x="302" y="523"/>
</glyph>
<glyph name="asciitilde" format="2">
	<unicode hex="007E"/>
	<advance width="600"/>
	<outline>
		<contour>
			<point x="72" y="210" type="curve"/>
			<point x="150" y="210" type="line"/>
			<point x="150" y="286"/>
			<point x="162" y="328"/>
			<point x="205" y="328" type="curve" smooth="yes"/>
			<point x="268" y="328"/>
			<point x="304" y="206"/>
			<point x="404" y="206" type="curve" smooth="yes"/>
			<point x="481" y="206"/>
			<point x="528" y="255"/>
			<point x="528" y="406" type="curve"/>
			<point x="450" y="406" type="line"/>
			<point x="450" y="326"/>
			<point x="438" y="291"/>
			<point x="398" y="291" type="curve" smooth="yes"/>
			<point x="337" y="291"/>
			<point x="295" y="412"/>
			<point x="195" y="412" type="curve" smooth="yes"/>
			<point x="108" y="412"/>
			<point x="72" y="340"/>
		</contour>
	</outline>
</glyph>
<glyph name="exclamdown" format="2">
	<unicode hex="00A1"/>
	<advance width="600"/>
	<outline>
		<contour>
			<point x="300" y="535" type="curve" smooth="yes"/>
			<point x="253" y="535"/>
			<point x="229" y="517"/>
			<point x="229" y="471" type="curve" smooth="yes"/>
			<point x="229" y="426"/>
			<point x="253" y="408"/>
			<point x="300" y="408" type="curve" smooth="yes"/>
			<point x="347" y="408"/>
			<point x="371" y="426"/>
			<point x="371" y="471" type="curve" smooth="yes"/>
			<point x="371" y="517"/>
			<point x="347" y="535"/>
		</contour>
		<contour>
			<point x="334" y="321" type="line"/>
			<point x="266" y="321" type="line"/>
			<point x="248" y="-19" type="line"/>
			<point x="248" y="-161" type="line"/>
			<point x="352" y="-161" type="line"/>
			<point x="352" y="-19" type="line"/>
		</contour>
	</outline>
</glyph>
<glyph name="currency" format="2">
	<unicode hex="00A4"/>
	<advance width="600"/>
	<outline>
		<contour>
			<point x="103" y="64" type="line"/>
			<point x="181" y="149" type="line"/>
			<point x="213" y="127"/>
			<point x="253" y="115"/>
			<point x="299" y="115" type="curve" smooth="yes"/>
			<point x="346" y="115"/>
			<point x="387" y="127"/>
			<point x="420" y="151" type="curve"/>
			<point x="500" y="64" type="line"/>
			<point x="554" y="117" type="line"/>
			<point x="470" y="206" type="line"/>
			<point x="492" y="241"/>
			<point x="504" y="287"/>
			<point x="504" y="340" type="curve" smooth="yes"/>
			<point x="504" y="394"/>
			<point x="491" y="440"/>
			<point x="470" y="476" type="curve"/>
			<point x="553" y="566" type="line"/>
			<point x="498" y="617" type="line"/>
			<point x="418" y="531" type="line"/>
			<point x="386" y="553"/>
			<point x="346" y="565"/>
			<point x="300" y="565" type="curve" smooth="yes"/>
			<point x="255" y="565"/>
			<point x="215" y="553"/>
			<point x="182" y="531" type="curve"/>
			<point x="101" y="617" type="line"/>
			<point x="48" y="564" type="line"/>
			<point x="130" y="477" type="line"/>
			<point x="107" y="441"/>
			<point x="95" y="395"/>
			<point x="95" y="340" type="curve" smooth="yes"/>
			<point x="95" y="285"/>
			<point x="107" y="240"/>
			<point x="129" y="204" type="curve"/>
			<point x="46" y="115" type="line"/>
		</contour>
		<contour>
			<point x="299" y="189" type="curve" smooth="yes"/>
			<point x="219" y="189"/>
			<point x="173" y="246"/>
			<point x="173" y="340" type="curve" smooth="yes"/>
			<point x="173" y="434"/>
			<point x="219" y="491"/>
			<point x="300" y="491" type="curve" smooth="yes"/>
			<point x="380" y="491"/>
			<point x="425" y="434"/>
			<point x="425" y="340" type="curve" smooth="yes"/>
			<point x="425" y="246"/>
			<point x="380" y="189"/>
		</contour>
	</outline>
</glyph>
<glyph name="yen" format="2">
	<unicode hex="00A5"/>
	<advance width="600"/>
	<outline>
		<contour>
			<point x="84" y="182" type="line"/>
			<point x="249" y="182" type="line"/>
			<point x="249" y="0" type="line"/>
			<point x="344" y="0" type="line"/>
			<point x="344" y="182" type="line"/>
			<point x="509" y="182" type="line"/>
			<point x="509" y="243" type="line"/>
			<point x="351" y="243" type="line"/>
			<point x="386" y="313" type="line"/>
			<point x="509" y="313" type="line"/>
			<point x="509" y="374" type="line"/>
			<point x="417" y="374" type="line"/>
			<point x="572" y="684" type="line"/>
			<point x="468" y="684" type="line"/>
			<point x="299" y="333" type="line"/>
			<point x="133" y="684" type="line"/>
			<point x="28" y="684" type="line"/>
			<point x="179" y="374" type="line"/>
			<point x="84" y="374" type="line"/>
			<point x="84" y="313" type="line"/>
			<point x="209" y="313" type="line"/>
			<point x="243" y="243" type="line"/>
			<point x="84" y="243" type="line"/>
		</contour>
	</outline>
</glyph>
<glyph name="section" format="2">
	<unicode hex="00A7"/>
	<advance width="600"/>
	<outline>
		<contour>
			<point x="309" y="-85" type="curve" smooth="yes"/>
			<point x="423" y="-85"/>
			<point x="496" y="-20"/>
			<point x="496" y="80" type="curve" smooth="yes"/>
			<point x="496" y="150"/>
			<point x="463" y="187"/>
			<point x="408" y="210" type="curve"/>
			<point x="477" y="227"/>
			<point x="516" y="267"/>
			<point x="516" y="328" type="curve" smooth="yes"/>
			<point x="516" y="418"/>
			<point x="423" y="441"/>
			<point x="314" y="455" type="curve" smooth="yes"/>
			<point x="239" y="465"/>
			<point x="187" y="479"/>
			<point x="187" y="540" type="curve" smooth="yes"/>
			<point x="187" y="595"/>
			<point x="223" y="630"/>
			<point x="304" y="630" type="curve" smooth="yes"/>
			<point x="372" y="630"/>
			<point x="440" y="612"/>
			<point x="487" y="579" type="curve"/>
			<point x="487" y="654" type="line"/>
			<point x="446" y="680"/>
			<point x="381" y="698"/>
			<point x="302" y="698" type="curve" smooth="yes"/>
			<point x="187" y="698"/>
			<point x="104" y="637"/>
			<point x="104" y="531" type="curve" smooth="yes"/>
			<point x="104" y="463"/>
			<point x="137" y="424"/>
			<point x="196" y="401" type="curve"/>
			<point x="122" y="381"/>
			<point x="84" y="341"/>
			<point x="84" y="283" type="curve" smooth="yes"/>
			<point x="84" y="184"/>
			<point x="186" y="170"/>
			<point x="290" y="156" type="curve" smooth="yes"/>
			<point x="362" y="147"/>
			<point x="413" y="137"/>
			<point x="413" y="72" type="curve" smooth="yes"/>
			<point x="413" y="19"/>
			<point x="374" y="-15"/>
			<point x="304" y="-15" type="curve" smooth="yes"/>
			<point x="237" y="-15"/>
			<point x="167" y="10"/>
			<point x="108" y="48" type="curve"/>
			<point x="108" y="-29" type="line"/>
			<point x="150" y="-55"/>
			<point x="215" y="-85"/>
		</contour>
		<contour>
			<point x="316" y="232" type="curve" smooth="yes"/>
			<point x="245" y="241"/>
			<point x="158" y="250"/>
			<point x="158" y="314" type="curve" smooth="yes"/>
			<point x="158" y="366"/>
			<point x="216" y="388"/>
			<point x="282" y="380" type="curve" smooth="yes"/>
			<point x="357" y="372"/>
			<point x="442" y="361"/>
			<point x="442" y="298" type="curve" smooth="yes"/>
			<point x="442" y="246"/>
			<point x="385" y="223"/>
		</contour>
	</outline>
</glyph>
<glyph name="dieresis" format="2">
	<unicode hex="00A8"/>
	<advance width="600"/>
	<outline>
		<contour>
			<point x="399" y="627" type="curve" smooth="yes"/>
			<point x="444" y="627"/>
			<point x="458" y="645"/>
			<point x="458" y="680" type="curve" smooth="yes"/>
			<point x="458" y="715"/>
			<point x="444" y="734"/>
			<point x="399" y="734" type="curve" smooth="yes"/>
			<point x="354" y="734"/>
			<point x="339" y="715"/>
			<point x="339" y="680" type="curve" smooth="yes"/>
			<point x="339" y="645"/>
			<point x="354" y="627"/>
		</contour>
		<contour>
			<point x="202" y="627" type="curve" smooth="yes"/>
			<point x="246" y="627"/>
			<point x="261" y="645"/>
			<point x="261" y="680" type="curve" smooth="yes"/>
			<point x="261" y="715"/>
			<point x="246" y="734"/>
			<point x="202" y="734" type="curve" smooth="yes"/>
			<point x="157" y="734"/>
			<point x="142" y="715"/>
			<point x="142" y="680" type="curve" smooth="yes"/>
			<point x="142" y="645"/>
			<point x="157" y="627"/>
		</contour>
	</outline>
	<anchor name="_top" x="300" y="523"/>
</glyph>
<glyph name="ordfeminine" format="2">
	<unicode hex="00AA"/>
	<advance width="600"/>
	<outline>
		<contour>
			<point x="237" y="224" type="curve" smooth="yes"/>
			<point x="310" y="224"/>
			<point x="367" y="265"/>
			<point x="396" y="329" type="curve"/>
			<point x="396" y="235" type="line"/>
			<point x="474" y="235" type="line"/>
			<point x="474" y="532" type="line"/>
			<point x="474" y="642"/>
			<point x="402" y="696"/>
			<point x="281" y="696" type="curve" smooth="yes"/>
			<point x="204" y="696"/>
			<point x="146" y="672"/>
			<point x="113" y="647" type="curve"/>
			<point x="113" y="575" type="line"/>
			<point x="159" y="614"/>
			<point x="215" y="633"/>
			<point x="275" y="633" type="curve" smooth="yes"/>
			<point x="353" y="633"/>
			<point x="395" y="598"/>
			<point x="395" y="526" type="curve"/>
			<point x="395" y="514" type="line"/>
			<point x="306" y="502" type="line" smooth="yes"/>
			<point x="165" y="482"/>
			<point x="103" y="425"/>
			<point x="103" y="345" type="curve" smooth="yes"/>
			<point x="103" y="269"/>
			<point x="157" y="224"/>
		</contour>
		<contour>
			<point x="266" y="284" type="curve" smooth="yes"/>
			<point x="219" y="284"/>
			<point x="181" y="307"/>
			<point x="181" y="355" type="curve" smooth="yes"/>
			<point x="181" y="407"/>
			<point x="216" y="437"/>
			<point x="313" y="451" type="curve" smooth="yes"/>
			<point x="395" y="463" type="line"/>
			<point x="395" y="414" type="line" smooth="yes"/>
			<point x="395" y="325"/>
			<point x="328" y="284"/>
		</contour>
	</outline>
	<anchor name="bottom" x="238" y="234"/>
	<anchor name="ogonek" x="419" y="235"/>
	<anchor name="right" x="436" y="235"/>
	<anchor name="top" x="240" y="685"/>
</glyph>
<glyph name="guillemetleft" format="2">
	<unicode hex="00AB"/>
	<advance width="600"/>
	<outline>
		<contour>
			<point x="326" y="77" type="line"/>
			<point x="163" y="288" type="line"/>
			<point x="326" y="497" type="line"/>
			<point x="225" y="497" type="line"/>
			<point x="63" y="287" type="line"/>
			<point x="225" y="77" type="line"/>
		</contour>
		<contour>
			<point x="532" y="77" type="line"/>
			<point x="369" y="288" type="line"/>
			<point x="532" y="497" type="line"/>
			<point x="432" y="497" type="line"/>
			<point x="269" y="287" type="line"/>
			<point x="432" y="77" type="line"/>
		</contour>
	</outline>
</glyph>
<glyph name="degree" format="2">
	<unicode hex="00B0"/>
	<advance width="600"/>
	<outline>
		<contour>
			<point x="302" y="301" type="curve" smooth="yes"/>
			<point x="413" y="301"/>
			<point x="491" y="387"/>
			<point x="491" y="500" type="curve" smooth="yes"/>
			<point x="491" y="614"/>
			<point x="413" y="696"/>
			<point x="302" y="696" type="curve" smooth="yes"/>
			<point x="186" y="696"/>
			<point x="109" y="614"/>
			<point x="109" y="500" type="curve" smooth="yes"/>
			<point x="109" y="387"/>
			<point x="186" y="301"/>
		</contour>
		<contour>
			<point x="299" y="370" type="curve" smooth="yes"/>
			<point x="228" y="370"/>
			<point x="179" y="424"/>
			<point x="179" y="500" type="curve" smooth="yes"/>
			<point x="179" y="576"/>
			<point x="229" y="627"/>
			<point x="299" y="627" type="curve" smooth="yes"/>
			<point x="374" y="627"/>
			<point x="421" y="576"/>
			<point x="421" y="500" type="curve" smooth="yes"/>
			<point x="421" y="424"/>
			<point x="374" y="370"/>
		</contour>
	</outline>
</glyph>
<glyph name="acute" format="2">
	<unicode hex="00B4"/>
	<advance width="600"/>
	<outline>
		<contour>
			<point x="404" y="750" type="line"/>
			<point x="296" y="750" type="line"/>
			<point x="221" y="604" type="line"/>
			<point x="298" y="604" type="line"/>
		</contour>
	</outline>
	<anchor name="_top" x="260" y="523"/>
</glyph>
<glyph name="mu" format="2">
	<unicode hex="00B5"/>
	<advance width="600"/>
	<outline>
		<contour>
			<point x="510" y="523" type="line"/>
			<point x="416" y="523" type="line"/>
			<point x="416" y="218" type="line" smooth="yes"/>
			<point x="416" y="190"/>
			<point x="413" y="159"/>
			<point x="402" y="136" type="curve" smooth="yes"/>
			<point x="381" y="93"/>
			<point x="345" y="63"/>
			<point x="287" y="63" type="curve" smooth="yes"/>
			<point x="219" y="63"/>
			<point x="179" y="109"/>
			<point x="179" y="195" type="curve" smooth="yes"/>
			<point x="179" y="523" type="line"/>
			<point x="86" y="523" type="line"/>
			<point x="86" y="-191" type="line"/>
			<point x="179" y="-191" type="line"/>
			<point x="179" y="3" type="line"/>
			<point x="200" y="-9"/>
			<point x="225" y="-14"/>
			<point x="255" y="-14" type="curve" smooth="yes"/>
			<point x="327" y="-14"/>
			<point x="384" y="31"/>
			<point x="419" y="104" type="curve"/>
			<point x="419" y="0" type="line"/>
			<point x="510" y="0" type="line"/>
		</contour>
	</outline>
	<anchor name="bottom" x="307" y="0"/>
	<anchor name="ogonek" x="540" y="0"/>
	<anchor name="top" x="298" y="549"/>
</glyph>
<glyph name="paragraph" format="2">
	<unicode hex="00B6"/>
	<advance width="600"/>
	<outline>
		<contour>
			<point x="315" y="0" type="line"/>
			<point x="390" y="0" type="line"/>
			<point x="390" y="611" type="line"/>
			<point x="461" y="611" type="line"/>
			<point x="461" y="0" type="line"/>
			<point x="537" y="0" type="line"/>
			<point x="537" y="684" type="line"/>
			<point x="277" y="684" type="line"/>
			<point x="122" y="684"/>
			<point x="42" y="598"/>
			<point x="42" y="460" type="curve" smooth="yes"/>
			<point x="42" y="329"/>
			<point x="117" y="249"/>
			<point x="267" y="249" type="curve" smooth="yes"/>
			<point x="315" y="249" type="line"/>
		</contour>
	</outline>
</glyph>
<glyph name="cedilla" format="2">
	<unicode hex="00B8"/>
	<advance width="600"/>
	<outline>
		<contour>
			<point x="280" y="-221" type="curve" smooth="yes"/>
			<point x="352" y="-221"/>
			<point x="397" y="-187"/>
			<point x="397" y="-124" type="curve" smooth="yes"/>
			<point x="397" y="-77"/>
			<point x="366" y="-48"/>
			<point x="307" y="-46" type="curve"/>
			<point x="329" y="0" type="line"/>
			<point x="272" y="0" type="line"/>
			<point x="232" y="-91" type="line"/>
			<point x="239" y="-89"/>
			<point x="253" y="-88"/>
			<point x="270" y="-88" type="curve" smooth="yes"/>
			<point x="305" y="-88"/>
			<point x="331" y="-97"/>
			<point x="331" y="-126" type="curve" smooth="yes"/>
			<point x="331" y="-156"/>
			<point x="308" y="-167"/>
			<point x="269" y="-167" type="curve" smooth="yes"/>
			<point x="249" y="-167"/>
			<point x="225" y="-161"/>
			<point x="200" y="-149" type="curve"/>
			<point x="200" y="-203" type="line"/>
			<point x="218" y="-213"/>
			<point x="251" y="-221"/>
		</contour>
	</outline>
	<anchor name="_bottom" x="302" y="0"/>
</glyph>
<glyph name="AE" format="2">
	<unicode hex="00C6"/>
	<advance width="600"/>
	<outline>
		<contour>
			<point x="8" y="0" type="line"/>
			<point x="93" y="0" type="line"/>
			<point x="144" y="179" type="line"/>
			<point x="297" y="179" type="line"/>
			<point x="297" y="0" type="line"/>
			<point x="575" y="0" type="line"/>
			<point x="575" y="78" type="line"/>
			<point x="378" y="78" type="line"/>
			<point x="378" y="304" type="line"/>
			<point x="545" y="304" type="line"/>
			<point x="545" y="381" type="line"/>
			<point x="378" y="381" type="line"/>
			<point x="378" y="607" type="line"/>
			<point x="572" y="607" type="line"/>
			<point x="572" y="684" type="line"/>
			<point x="204" y="684" type="line"/>
		</contour>
		<contour>
			<point x="165" y="254" type="line"/>
			<point x="264" y="607" type="line"/>
			<point x="297" y="607" type="line"/>
			<point x="297" y="254" type="line"/>
		</contour>
	</outline>
	<anchor name="top" x="342" y="684"/>
</glyph>
<glyph name="Ccedilla" format="2">
	<unicode hex="00C7"/>
	<advance width="600"/>
	<outline>
		<contour>
			<point x="338" y="-221" type="curve" smooth="yes"/>
			<point x="410" y="-221"/>
			<point x="455" y="-187"/>
			<point x="455" y="-124" type="curve" smooth="yes"/>
			<point x="455" y="-77"/>
			<point x="424" y="-48"/>
			<point x="365" y="-46" type="curve"/>
			<point x="381" y="-12" type="line"/>
			<point x="446" y="-11"/>
			<point x="492" y="-1"/>
			<point x="536" y="27" type="curve"/>
			<point x="536" y="108" type="line"/>
			<point x="487" y="76"/>
			<point x="430" y="69"/>
			<point x="387" y="69" type="curve" smooth="yes"/>
			<point x="247" y="69"/>
			<point x="161" y="157"/>
			<point x="161" y="338" type="curve" smooth="yes"/>
			<point x="161" y="345" type="line" smooth="yes"/>
			<point x="161" y="525"/>
			<point x="246" y="615"/>
			<point x="391" y="615" type="curve" smooth="yes"/>
			<point x="440" y="615"/>
			<point x="489" y="606"/>
			<point x="534" y="579" type="curve"/>
			<point x="534" y="665" type="line"/>
			<point x="494" y="684"/>
			<point x="444" y="696"/>
			<point x="378" y="696" type="curve" smooth="yes"/>
			<point x="188" y="696"/>
			<point x="62" y="569"/>
			<point x="62" y="350" type="curve" smooth="yes"/>
			<point x="62" y="336" type="line" smooth="yes"/>
			<point x="62" y="128"/>
			<point x="159" y="9"/>
			<point x="326" y="-9" type="curve"/>
			<point x="290" y="-91" type="line"/>
			<point x="297" y="-89"/>
			<point x="311" y="-88"/>
			<point x="328" y="-88" type="curve" smooth="yes"/>
			<point x="363" y="-88"/>
			<point x="389" y="-97"/>
			<point x="389" y="-126" type="curve" smooth="yes"/>
			<point x="389" y="-156"/>
			<point x="366" y="-167"/>
			<point x="327" y="-167" type="curve" smooth="yes"/>
			<point x="307" y="-167"/>
			<point x="283" y="-161"/>
			<point x="258" y="-149" type="curve"/>
			<point x="258" y="-203" type="line"/>
			<point x="276" y="-213"/>
			<point x="309" y="-221"/>
		</contour>
	</outline>
</glyph>
<glyph name="Thorn" format="2">
	<unicode hex="00DE"/>
	<advance width="600"/>
	<outline>
		<contour>
			<point x="82" y="684" type="line"/>
			<point x="82" y="0" type="line"/>
			<point x="177" y="0" type="line"/>
			<point x="177" y="125" type="line"/>
			<point x="332" y="125" type="line" smooth="yes"/>
			<point x="473" y="125"/>
			<point x="562" y="219"/>
			<point x="562" y="359" type="curve" smooth="yes"/>
			<point x="562" y="498"/>
			<point x="472" y="586"/>
			<point x="332" y="586" type="curve" smooth="yes"/>
			<point x="177" y="586" type="line"/>
			<point x="177" y="684" type="line"/>
		</contour>
		<contour>
			<point x="318" y="507" type="line" smooth="yes"/>
			<point x="415" y="507"/>
			<point x="465" y="448"/>
			<point x="465" y="358" type="curve" smooth="yes"/>
			<point x="465" y="268"/>
			<point x="416" y="204"/>
			<point x="318" y="204" type="curve" smooth="yes"/>
			<point x="177" y="204" type="line"/>
			<point x="177" y="507" type="line"/>
		</contour>
	</outline>
</glyph>
<glyph name="eth" format="2">
	<unicode hex="00F0"/>
	<advance width="600"/>
	<outline>
		<contour>
			<point x="295" y="-14" type="curve" smooth="yes"/>
			<point x="434" y="-14"/>
			<point x="538" y="83"/>
			<point x="538" y="278" type="curve" smooth="yes"/>
			<point x="538" y="292" type="line" smooth="yes"/>
			<point x="538" y="436"/>
			<point x="497" y="552"/>
			<point x="431" y="640" type="curve"/>
			<point x="520" y="674" type="line"/>
			<point x="520" y="737" type="line"/>
			<point x="390" y="687" type="line"/>
			<point x="368" y="711"/>
			<point x="343" y="731"/>
			<point x="317" y="750" type="curve"/>
			<point x="187" y="750" type="line"/>
			<point x="230" y="718"/>
			<point x="267" y="686"/>
			<point x="299" y="653" type="curve"/>
			<point x="192" y="612" type="line"/>
			<point x="192" y="549" type="line"/>
			<point x="340" y="605" type="line"/>
			<point x="383" y="549"/>
			<point x="413" y="485"/>
			<point x="431" y="405" type="curve"/>
			<point x="398" y="465"/>
			<point x="343" y="507"/>
			<point x="268" y="507" type="curve" smooth="yes"/>
			<point x="143" y="507"/>
			<point x="62" y="404"/>
			<point x="62" y="257" type="curve" smooth="yes"/>
			<point x="62" y="243" type="line" smooth="yes"/>
			<point x="62" y="78"/>
			<point x="156" y="-14"/>
		</contour>
		<contour>
			<point x="300" y="62" type="curve" smooth="yes"/>
			<point x="211" y="62"/>
			<point x="159" y="128"/>
			<point x="159" y="246" type="curve" smooth="yes"/>
			<point x="159" y="253" type="line" smooth="yes"/>
			<point x="159" y="374"/>
			<point x="218" y="435"/>
			<point x="299" y="435" type="curve" smooth="yes"/>
			<point x="382" y="435"/>
			<point x="442" y="378"/>
			<point x="442" y="259" type="curve" smooth="yes"/>
			<point x="442" y="252" type="line" smooth="yes"/>
			<point x="442" y="130"/>
			<point x="385" y="62"/>
		</contour>
	</outline>
	<guideline x="203.4172661871" y="93.2014388489" angle="0"/>
</glyph>
<glyph name="thorn" format="2">
	<unicode hex="00FE"/>
	<advance width="600"/>
	<outline>
		<contour>
			<point x="81" y="750" type="line"/>
			<point x="81" y="-204" type="line"/>
			<point x="175" y="-204" type="line"/>
			<point x="175" y="94" type="line"/>
			<point x="209" y="23"/>
			<point x="265" y="-14"/>
			<point x="341" y="-14" type="curve" smooth="yes"/>
			<point x="456" y="-14"/>
			<point x="542" y="85"/>
			<point x="542" y="256" type="curve" smooth="yes"/>
			<point x="542" y="270" type="line" smooth="yes"/>
			<point x="542" y="436"/>
			<point x="464" y="537"/>
			<point x="347" y="537" type="curve" smooth="yes"/>
			<point x="267" y="537"/>
			<point x="207" y="489"/>
			<point x="175" y="415" type="curve"/>
			<point x="175" y="750" type="line"/>
		</contour>
		<contour>
			<point x="309" y="62" type="curve" smooth="yes"/>
			<point x="240" y="62"/>
			<point x="190" y="109"/>
			<point x="175" y="198" type="curve"/>
			<point x="175" y="199" type="line"/>
			<point x="172" y="217"/>
			<point x="170" y="236"/>
			<point x="170" y="258" type="curve" smooth="yes"/>
			<point x="170" y="265" type="line" smooth="yes"/>
			<point x="170" y="396"/>
			<point x="231" y="462"/>
			<point x="311" y="462" type="curve" smooth="yes"/>
			<point x="392" y="462"/>
			<point x="445" y="397"/>
			<point x="445" y="266" type="curve" smooth="yes"/>
			<point x="445" y="259" type="line" smooth="yes"/>
			<point x="445" y="129"/>
			<point x="393" y="62"/>
		</contour>
	</outline>
</glyph>
<glyph name="Aogonek" format="2">
	<unicode hex="0104"/>
	<advance width="600"/>
	<outline>
		<contour>
			<point x="22" y="0" type="line"/>
			<point x="120" y="0" type="line"/>
			<point x="170" y="171" type="line"/>
			<point x="429" y="171" type="line"/>
			<point x="479" y="0" type="line"/>
			<point x="505" y="0" type="line"/>
			<point x="446" y="-21"/>
			<point x="409" y="-67"/>
			<point x="409" y="-114" type="curve" smooth="yes"/>
			<point x="409" y="-175"/>
			<point x="449" y="-203"/>
			<point x="520" y="-203" type="curve" smooth="yes"/>
			<point x="549" y="-203"/>
			<point x="575" y="-197"/>
			<point x="588" y="-191" type="curve"/>
			<point x="588" y="-129" type="line"/>
			<point x="578" y="-133"/>
			<point x="560" y="-136"/>
			<point x="543" y="-136" type="curve" smooth="yes"/>
			<point x="511" y="-136"/>
			<point x="486" y="-123"/>
			<point x="486" y="-88" type="curve" smooth="yes"/>
			<point x="486" y="-55"/>
			<point x="511" y="-23"/>
			<point x="579" y="0" type="curve"/>
			<point x="578" y="0" type="line"/>
			<point x="363" y="687" type="line"/>
			<point x="234" y="687" type="line"/>
		</contour>
		<contour>
			<point x="193" y="250" type="line"/>
			<point x="298" y="613" type="line"/>
			<point x="405" y="250" type="line"/>
		</contour>
	</outline>
</glyph>
<glyph name="aogonek" format="2">
	<unicode hex="0105"/>
	<advance width="600"/>
	<outline>
		<contour>
			<point x="235" y="-14" type="curve" smooth="yes"/>
			<point x="313" y="-14"/>
			<point x="376" y="27"/>
			<point x="411" y="102" type="curve"/>
			<point x="411" y="0" type="line"/>
			<point x="427" y="0" type="line"/>
			<point x="368" y="-21"/>
			<point x="331" y="-67"/>
			<point x="331" y="-114" type="curve" smooth="yes"/>
			<point x="331" y="-175"/>
			<point x="371" y="-203"/>
			<point x="442" y="-203" type="curve" smooth="yes"/>
			<point x="471" y="-203"/>
			<point x="497" y="-197"/>
			<point x="510" y="-191" type="curve"/>
			<point x="510" y="-129" type="line"/>
			<point x="500" y="-133"/>
			<point x="482" y="-136"/>
			<point x="465" y="-136" type="curve" smooth="yes"/>
			<point x="433" y="-136"/>
			<point x="408" y="-123"/>
			<point x="408" y="-88" type="curve" smooth="yes"/>
			<point x="408" y="-55"/>
			<point x="433" y="-23"/>
			<point x="501" y="0" type="curve"/>
			<point x="501" y="347" type="line"/>
			<point x="501" y="469"/>
			<point x="425" y="536"/>
			<point x="288" y="536" type="curve" smooth="yes"/>
			<point x="211" y="536"/>
			<point x="144" y="514"/>
			<point x="93" y="482" type="curve"/>
			<point x="93" y="399" type="line"/>
			<point x="151" y="442"/>
			<point x="222" y="459"/>
			<point x="278" y="459" type="curve" smooth="yes"/>
			<point x="358" y="459"/>
			<point x="408" y="418"/>
			<point x="408" y="339" type="curve"/>
			<point x="408" y="324" type="line"/>
			<point x="295" y="308" type="line" smooth="yes"/>
			<point x="151" y="288"/>
			<point x="82" y="227"/>
			<point x="82" y="130" type="curve" smooth="yes"/>
			<point x="82" y="41"/>
			<point x="147" y="-14"/>
		</contour>
		<contour>
			<point x="270" y="55" type="curve" smooth="yes"/>
			<point x="217" y="55"/>
			<point x="172" y="85"/>
			<point x="172" y="142" type="curve" smooth="yes"/>
			<point x="172" y="210"/>
			<point x="220" y="237"/>
			<point x="315" y="252" type="curve" smooth="yes"/>
			<point x="408" y="266" type="line"/>
			<point x="408" y="199" type="line" smooth="yes"/>
			<point x="408" y="106"/>
			<point x="336" y="55"/>
		</contour>
	</outline>
	<guideline x="493.4676258993" y="-2.8057553957" angle="90"/>
</glyph>
<glyph name="dcroat" format="2">
	<unicode hex="0111"/>
	<advance width="600"/>
	<outline>
		<contour>
			<point x="254" y="-14" type="curve"/>
			<point x="336" y="-14"/>
			<point x="395" y="35"/>
			<point x="427" y="110" type="curve"/>
			<point x="427" y="0" type="line"/>
			<point x="518" y="0" type="line"/>
			<point x="518" y="596" type="line"/>
			<point x="585" y="596" type="line"/>
			<point x="585" y="656" type="line"/>
			<point x="518" y="656" type="line"/>
			<point x="518" y="750" type="line"/>
			<point x="425" y="750" type="line"/>
			<point x="425" y="656" type="line"/>
			<point x="267" y="656" type="line"/>
			<point x="267" y="596" type="line"/>
			<point x="425" y="596" type="line"/>
			<point x="425" y="426" type="line"/>
			<point x="392" y="497"/>
			<point x="340" y="537"/>
			<point x="261" y="537" type="curve" smooth="yes"/>
			<point x="146" y="537"/>
			<point x="59" y="437"/>
			<point x="59" y="269" type="curve" smooth="yes"/>
			<point x="59" y="257" type="line" smooth="yes"/>
			<point x="59" y="86"/>
			<point x="133" y="-14"/>
		</contour>
		<contour>
			<point x="289" y="61" type="curve" smooth="yes"/>
			<point x="208" y="61"/>
			<point x="155" y="126"/>
			<point x="155" y="259" type="curve" smooth="yes"/>
			<point x="155" y="265" type="line" smooth="yes"/>
			<point x="155" y="394"/>
			<point x="208" y="461"/>
			<point x="291" y="461" type="curve" smooth="yes"/>
			<point x="376" y="461"/>
			<point x="429" y="393"/>
			<point x="429" y="265" type="curve" smooth="yes"/>
			<point x="429" y="258" type="line" smooth="yes"/>
			<point x="429" y="127"/>
			<point x="370" y="61"/>
		</contour>
	</outline>
</glyph>
<glyph name="hbar" format="2">
	<unicode hex="0127"/>
	<advance width="600"/>
	<outline>
		<contour>
			<point x="22" y="596" type="line"/>
			<point x="90" y="596" type="line"/>
			<point x="90" y="0" type="line"/>
			<point x="184" y="0" type="line"/>
			<point x="184" y="303" type="line" smooth="yes"/>
			<point x="184" y="332"/>
			<point x="188" y="360"/>
			<point x="200" y="383" type="curve" smooth="yes"/>
			<point x="220" y="426"/>
			<point x="255" y="459"/>
			<point x="314" y="459" type="curve" smooth="yes"/>
			<point x="381" y="459"/>
			<point x="421" y="412"/>
			<point x="421" y="326" type="curve" smooth="yes"/>
			<point x="421" y="0" type="line"/>
			<point x="514" y="0" type="line"/>
			<point x="514" y="346" type="line" smooth="yes"/>
			<point x="514" y="474"/>
			<point x="452" y="537"/>
			<point x="354" y="537" type="curve" smooth="yes"/>
			<point x="275" y="537"/>
			<point x="219" y="492"/>
			<point x="184" y="421" type="curve"/>
			<point x="184" y="596" type="line"/>
			<point x="340" y="596" type="line"/>
			<point x="340" y="656" type="line"/>
			<point x="184" y="656" type="line"/>
			<point x="184" y="750" type="line"/>
			<point x="90" y="750" type="line"/>
			<point x="90" y="656" type="line"/>
			<point x="22" y="656" type="line"/>
		</contour>
	</outline>
</glyph>
<glyph name="dotlessi" format="2">
	<unicode hex="0131"/>
	<advance width="600"/>
	<outline>
		<contour>
			<point x="85" y="0" type="line"/>
			<point x="545" y="0" type="line"/>
			<point x="545" y="76" type="line"/>
			<point x="366" y="76" type="line"/>
			<point x="366" y="523" type="line"/>
			<point x="86" y="523" type="line"/>
			<point x="86" y="447" type="line"/>
			<point x="273" y="447" type="line"/>
			<point x="273" y="76" type="line"/>
			<point x="85" y="76" type="line"/>
		</contour>
	</outline>
	<anchor name="ogonek" x="545" y="0"/>
	<anchor name="top" x="320" y="523"/>
</glyph>
<glyph name="IJ" format="2">
	<unicode hex="0132"/>
	<advance width="600"/>
	<outline>
		<contour>
			<point x="267" y="-13" type="curve" smooth="yes"/>
			<point x="407" y="-13"/>
			<point x="507" y="56"/>
			<point x="507" y="219" type="curve" smooth="yes"/>
			<point x="507" y="684" type="line"/>
			<point x="413" y="684" type="line"/>
			<point x="413" y="230" type="line" smooth="yes"/>
			<point x="413" y="117"/>
			<point x="358" y="68"/>
			<point x="257" y="68" type="curve" smooth="yes"/>
			<point x="194" y="68"/>
			<point x="135" y="85"/>
			<point x="91" y="108" type="curve"/>
			<point x="91" y="25" type="line"/>
			<point x="134" y="2"/>
			<point x="190" y="-13"/>
		</contour>
		<contour>
			<point x="92" y="206" type="line"/>
			<point x="184" y="206" type="line"/>
			<point x="183" y="684" type="line"/>
			<point x="92" y="684" type="line"/>
		</contour>
	</outline>
</glyph>
<glyph name="ij" format="2">
	<unicode hex="0133"/>
	<advance width="600"/>
	<outline>
		<contour>
			<point x="156" y="631" type="curve" smooth="yes"/>
			<point x="205" y="631"/>
			<point x="223" y="650"/>
			<point x="223" y="688" type="curve" smooth="yes"/>
			<point x="223" y="725"/>
			<point x="204" y="744"/>
			<point x="156" y="744" type="curve" smooth="yes"/>
			<point x="109" y="744"/>
			<point x="91" y="725"/>
			<point x="91" y="688" type="curve" smooth="yes"/>
			<point x="91" y="650"/>
			<point x="108" y="631"/>
		</contour>
		<contour>
			<point x="443" y="631" type="curve" smooth="yes"/>
			<point x="492" y="631"/>
			<point x="509" y="650"/>
			<point x="509" y="688" type="curve" smooth="yes"/>
			<point x="509" y="725"/>
			<point x="491" y="744"/>
			<point x="443" y="744" type="curve" smooth="yes"/>
			<point x="396" y="744"/>
			<point x="377" y="725"/>
			<point x="377" y="688" type="curve" smooth="yes"/>
			<point x="377" y="650"/>
			<point x="395" y="631"/>
		</contour>
		<contour>
			<point x="285" y="-204" type="curve" smooth="yes"/>
			<point x="392" y="-204"/>
			<point x="490" y="-160"/>
			<point x="490" y="-18" type="curve" smooth="yes"/>
			<point x="490" y="523" type="line"/>
			<point x="396" y="523" type="line"/>
			<point x="396" y="-7" type="line" smooth="yes"/>
			<point x="396" y="-91"/>
			<point x="361" y="-126"/>
			<point x="274" y="-126" type="curve" smooth="yes"/>
			<point x="226" y="-126"/>
			<point x="184" y="-115"/>
			<point x="158" y="-106" type="curve"/>
			<point x="158" y="-182" type="line"/>
			<point x="185" y="-194"/>
			<point x="237" y="-204"/>
		</contour>
		<contour>
			<point x="110" y="0" type="line"/>
			<point x="203" y="0" type="line"/>
			<point x="203" y="523" type="line"/>
			<point x="110" y="523" type="line"/>
		</contour>
	</outline>
	<guideline x="216.7050359712" y="530.5755395683" angle="90"/>
	<guideline x="173.3669064749" y="523" angle="90"/>
</glyph>
<glyph name="Eng" format="2">
	<unicode hex="014A"/>
	<advance width="600"/>
	<outline>
		<contour>
			<point x="330" y="-211" type="curve" smooth="yes"/>
			<point x="445" y="-211"/>
			<point x="527" y="-148"/>
			<point x="527" y="-14" type="curve" smooth="yes"/>
			<point x="527" y="685" type="line"/>
			<point x="443" y="685" type="line"/>
			<point x="443" y="346" type="line" smooth="yes"/>
			<point x="443" y="246"/>
			<point x="447" y="187"/>
			<point x="455" y="112" type="curve"/>
			<point x="448" y="112" type="line"/>
			<point x="191" y="685" type="line"/>
			<point x="73" y="685" type="line"/>
			<point x="73" y="0" type="line"/>
			<point x="157" y="0" type="line"/>
			<point x="157" y="339" type="line" smooth="yes"/>
			<point x="157" y="433"/>
			<point x="152" y="498"/>
			<point x="146" y="572" type="curve"/>
			<point x="153" y="572" type="line"/>
			<point x="409" y="0" type="line"/>
			<point x="440" y="0" type="line"/>
			<point x="440" y="-10" type="line" smooth="yes"/>
			<point x="440" y="-95"/>
			<point x="397" y="-138"/>
			<point x="315" y="-138" type="curve" smooth="yes"/>
			<point x="278" y="-138"/>
			<point x="245" y="-131"/>
			<point x="223" y="-123" type="curve"/>
			<point x="223" y="-196" type="line"/>
			<point x="247" y="-204"/>
			<point x="280" y="-211"/>
		</contour>
	</outline>
	<anchor name="bottom" x="301" y="0"/>
	<anchor name="top" x="344" y="720"/>
</glyph>
<glyph name="OE" format="2">
	<unicode hex="0152"/>
	<advance width="600"/>
	<outline>
		<contour>
			<point x="186" y="-13" type="curve" smooth="yes"/>
			<point x="239" y="-13"/>
			<point x="278" y="19"/>
			<point x="303" y="84" type="curve"/>
			<point x="302" y="0" type="line"/>
			<point x="569" y="0" type="line"/>
			<point x="569" y="79" type="line"/>
			<point x="382" y="79" type="line"/>
			<point x="382" y="304" type="line"/>
			<point x="542" y="304" type="line"/>
			<point x="542" y="381" type="line"/>
			<point x="382" y="381" type="line"/>
			<point x="382" y="607" type="line"/>
			<point x="566" y="607" type="line"/>
			<point x="566" y="684" type="line"/>
			<point x="259" y="684" type="line" smooth="yes"/>
			<point x="92" y="684"/>
			<point x="33" y="542"/>
			<point x="33" y="319" type="curve" smooth="yes"/>
			<point x="33" y="305" type="line" smooth="yes"/>
			<point x="33" y="94"/>
			<point x="78" y="-13"/>
		</contour>
		<contour>
			<point x="215" y="66" type="curve" smooth="yes"/>
			<point x="145" y="66"/>
			<point x="118" y="143"/>
			<point x="118" y="309" type="curve" smooth="yes"/>
			<point x="118" y="316" type="line" smooth="yes"/>
			<point x="118" y="492"/>
			<point x="147" y="607"/>
			<point x="261" y="607" type="curve" smooth="yes"/>
			<point x="301" y="607" type="line"/>
			<point x="301" y="197" type="line" smooth="yes"/>
			<point x="301" y="117"/>
			<point x="269" y="66"/>
		</contour>
	</outline>
</glyph>
<glyph name="oe" format="2">
	<unicode hex="0153"/>
	<advance width="600"/>
	<outline>
		<contour>
			<point x="151" y="-14" type="curve" smooth="yes"/>
			<point x="211" y="-14"/>
			<point x="255" y="26"/>
			<point x="277" y="124" type="curve"/>
			<point x="298" y="39"/>
			<point x="350" y="-14"/>
			<point x="442" y="-14" type="curve" smooth="yes"/>
			<point x="505" y="-14"/>
			<point x="548" y="7"/>
			<point x="572" y="26" type="curve"/>
			<point x="572" y="99" type="line"/>
			<point x="538" y="73"/>
			<point x="500" y="60"/>
			<point x="458" y="60" type="curve" smooth="yes"/>
			<point x="380" y="60"/>
			<point x="339" y="109"/>
			<point x="336" y="239" type="curve"/>
			<point x="587" y="239" type="line"/>
			<point x="587" y="280" type="line" smooth="yes"/>
			<point x="587" y="454"/>
			<point x="532" y="537"/>
			<point x="433" y="537" type="curve" smooth="yes"/>
			<point x="377" y="537"/>
			<point x="333" y="507"/>
			<point x="306" y="448" type="curve"/>
			<point x="282" y="504"/>
			<point x="239" y="537"/>
			<point x="181" y="537" type="curve" smooth="yes"/>
			<point x="72" y="537"/>
			<point x="13" y="437"/>
			<point x="13" y="264" type="curve" smooth="yes"/>
			<point x="13" y="250" type="line" smooth="yes"/>
			<point x="13" y="87"/>
			<point x="57" y="-14"/>
		</contour>
		<contour>
			<point x="428" y="468" type="curve" smooth="yes"/>
			<point x="484" y="468"/>
			<point x="511" y="415"/>
			<point x="512" y="298" type="curve"/>
			<point x="335" y="298" type="line"/>
			<point x="338" y="413"/>
			<point x="371" y="468"/>
		</contour>
		<contour>
			<point x="177" y="60" type="curve" smooth="yes"/>
			<point x="117" y="60"/>
			<point x="92" y="125"/>
			<point x="92" y="259" type="curve" smooth="yes"/>
			<point x="92" y="266" type="line" smooth="yes"/>
			<point x="92" y="400"/>
			<point x="122" y="466"/>
			<point x="180" y="466" type="curve" smooth="yes"/>
			<point x="239" y="466"/>
			<point x="266" y="398"/>
			<point x="266" y="266" type="curve" smooth="yes"/>
			<point x="266" y="259" type="line" smooth="yes"/>
			<point x="266" y="129"/>
			<point x="239" y="60"/>
		</contour>
	</outline>
	<guideline x="410.0791366906" y="71.4388489209" angle="0"/>
</glyph>
<glyph name="Scedilla" format="2">
	<unicode hex="015E"/>
	<advance width="600"/>
	<outline>
		<contour>
			<point x="290" y="-221" type="curve" smooth="yes"/>
			<point x="362" y="-221"/>
			<point x="407" y="-187"/>
			<point x="407" y="-124" type="curve" smooth="yes"/>
			<point x="407" y="-77"/>
			<point x="376" y="-48"/>
			<point x="317" y="-46" type="curve"/>
			<point x="333" y="-13" type="line"/>
			<point x="456" y="-5"/>
			<point x="540" y="68"/>
			<point x="540" y="197" type="curve" smooth="yes"/>
			<point x="540" y="344"/>
			<point x="425" y="365"/>
			<point x="307" y="387" type="curve" smooth="yes"/>
			<point x="212" y="405"/>
			<point x="157" y="425"/>
			<point x="157" y="501" type="curve" smooth="yes"/>
			<point x="157" y="581"/>
			<point x="217" y="620"/>
			<point x="299" y="620" type="curve" smooth="yes"/>
			<point x="384" y="620"/>
			<point x="467" y="593"/>
			<point x="523" y="549" type="curve"/>
			<point x="523" y="638" type="line"/>
			<point x="471" y="674"/>
			<point x="392" y="698"/>
			<point x="301" y="698" type="curve" smooth="yes"/>
			<point x="162" y="698"/>
			<point x="61" y="624"/>
			<point x="61" y="490" type="curve" smooth="yes"/>
			<point x="61" y="346"/>
			<point x="165" y="318"/>
			<point x="284" y="298" type="curve" smooth="yes"/>
			<point x="377" y="282"/>
			<point x="445" y="269"/>
			<point x="445" y="186" type="curve" smooth="yes"/>
			<point x="445" y="105"/>
			<point x="388" y="65"/>
			<point x="307" y="65" type="curve"/>
			<point x="218" y="65"/>
			<point x="138" y="99"/>
			<point x="69" y="157" type="curve"/>
			<point x="69" y="62" type="line"/>
			<point x="120" y="25"/>
			<point x="184" y="-7"/>
			<point x="276" y="-13" type="curve"/>
			<point x="242" y="-91" type="line"/>
			<point x="249" y="-89"/>
			<point x="263" y="-88"/>
			<point x="280" y="-88" type="curve" smooth="yes"/>
			<point x="315" y="-88"/>
			<point x="341" y="-97"/>
			<point x="341" y="-126" type="curve" smooth="yes"/>
			<point x="341" y="-156"/>
			<point x="318" y="-167"/>
			<point x="279" y="-167" type="curve" smooth="yes"/>
			<point x="259" y="-167"/>
			<point x="235" y="-161"/>
			<point x="210" y="-149" type="curve"/>
			<point x="210" y="-203" type="line"/>
			<point x="228" y="-213"/>
			<point x="261" y="-221"/>
		</contour>
	</outline>
</glyph>
<glyph name="dotlessj" format="2">
	<unicode hex="0237"/>
	<advance width="600"/>
	<outline>
		<contour>
			<point x="220" y="-204" type="curve" smooth="yes"/>
			<point x="349" y="-204"/>
			<point x="459" y="-160"/>
			<point x="459" y="2" type="curve" smooth="yes"/>
			<point x="459" y="523" type="line"/>
			<point x="84" y="523" type="line"/>
			<point x="84" y="447" type="line"/>
			<point x="366" y="447" type="line"/>
			<point x="366" y="13" type="line" smooth="yes"/>
			<point x="366" y="-91"/>
			<point x="320" y="-126"/>
			<point x="210" y="-126" type="curve" smooth="yes"/>
			<point x="157" y="-126"/>
			<point x="112" y="-115"/>
			<point x="84" y="-106" type="curve"/>
			<point x="84" y="-182" type="line"/>
			<point x="113" y="-194"/>
			<point x="169" y="-204"/>
		</contour>
	</outline>
	<anchor name="top" x="413" y="523"/>
</glyph>
<glyph name="caron" format="2">
	<unicode hex="02C7"/>
	<advance width="600"/>
	<outline>
		<contour>
			<point x="467" y="750" type="line"/>
			<point x="379" y="750" type="line"/>
			<point x="300" y="649" type="line"/>
			<point x="222" y="750" type="line"/>
			<point x="133" y="750" type="line"/>
			<point x="251" y="604" type="line"/>
			<point x="349" y="604" type="line"/>
		</contour>
	</outline>
	<anchor name="_top" x="301" y="523"/>
</glyph>
<glyph name="dotaccent" format="2">
	<unicode hex="02D9"/>
	<advance width="600"/>
	<outline>
		<contour>
			<point x="300" y="622" type="curve" smooth="yes"/>
			<point x="348" y="622"/>
			<point x="366" y="641"/>
			<point x="366" y="679" type="curve" smooth="yes"/>
			<point x="366" y="716"/>
			<point x="348" y="736"/>
			<point x="300" y="736" type="curve" smooth="yes"/>
			<point x="253" y="736"/>
			<point x="234" y="717"/>
			<point x="234" y="679" type="curve" smooth="yes"/>
			<point x="234" y="641"/>
			<point x="252" y="622"/>
		</contour>
	</outline>
	<anchor name="_top" x="300" y="523"/>
</glyph>
<glyph name="ring" format="2">
	<unicode hex="02DA"/>
	<advance width="600"/>
	<outline>
		<contour>
			<point x="299" y="593" type="curve" smooth="yes"/>
			<point x="376" y="593"/>
			<point x="423" y="635"/>
			<point x="423" y="713" type="curve" smooth="yes"/>
			<point x="423" y="790"/>
			<point x="373" y="829"/>
			<point x="300" y="829" type="curve" smooth="yes"/>
			<point x="231" y="829"/>
			<point x="177" y="793"/>
			<point x="177" y="711" type="curve" smooth="yes"/>
			<point x="177" y="631"/>
			<point x="225" y="593"/>
		</contour>
		<contour>
			<point x="301" y="643" type="curve" smooth="yes"/>
			<point x="255" y="643"/>
			<point x="232" y="668"/>
			<point x="232" y="711" type="curve" smooth="yes"/>
			<point x="232" y="755"/>
			<point x="255" y="781"/>
			<point x="301" y="781" type="curve" smooth="yes"/>
			<point x="345" y="781"/>
			<point x="368" y="755"/>
			<point x="368" y="711" type="curve" smooth="yes"/>
			<point x="368" y="668"/>
			<point x="346" y="643"/>
		</contour>
	</outline>
	<anchor name="_top" x="300" y="523"/>
</glyph>
<glyph name="tilde" format="2">
	<unicode hex="02DC"/>
	<advance width="600"/>
	<outline>
		<contour>
			<point x="136" y="613" type="curve"/>
			<point x="203" y="613" type="line"/>
			<point x="203" y="656"/>
			<point x="213" y="677"/>
			<point x="239" y="677" type="curve" smooth="yes"/>
			<point x="280" y="677"/>
			<point x="301" y="609"/>
			<point x="369" y="609" type="curve" smooth="yes"/>
			<point x="424" y="609"/>
			<point x="464" y="640"/>
			<point x="464" y="735" type="curve"/>
			<point x="396" y="735" type="line"/>
			<point x="396" y="692"/>
			<point x="387" y="673"/>
			<point x="363" y="673" type="curve" smooth="yes"/>
			<point x="323" y="673"/>
			<point x="297" y="739"/>
			<point x="229" y="739" type="curve" smooth="yes"/>
			<point x="170" y="739"/>
			<point x="136" y="696"/>
		</contour>
	</outline>
	<anchor name="_top" x="301" y="523"/>
</glyph>
<glyph name="pi" format="2">
	<unicode hex="03C0"/>
	<advance width="600"/>
	<outline>
		<contour>
			<point x="107" y="-1" type="line"/>
			<point x="196" y="-1" type="line"/>
			<point x="196" y="448" type="line"/>
			<point x="390" y="448" type="line"/>
			<point x="390" y="110" type="line" smooth="yes"/>
			<point x="390" y="27"/>
			<point x="427" y="-12"/>
			<point x="508" y="-12" type="curve" smooth="yes"/>
			<point x="533" y="-12"/>
			<point x="557" y="-7"/>
			<point x="571" y="-2" type="curve"/>
			<point x="571" y="65" type="line"/>
			<point x="562" y="63"/>
			<point x="549" y="61"/>
			<point x="535" y="61" type="curve" smooth="yes"/>
			<point x="498" y="61"/>
			<point x="479" y="78"/>
			<point x="479" y="118" type="curve" smooth="yes"/>
			<point x="479" y="448" type="line"/>
			<point x="571" y="448" type="line"/>
			<point x="571" y="523" type="line"/>
			<point x="18" y="523" type="line"/>
			<point x="18" y="448" type="line"/>
			<point x="107" y="448" type="line"/>
		</contour>
	</outline>
</glyph>
<glyph name="endash" format="2">
	<unicode hex="2013"/>
	<advance width="600"/>
	<outline>
		<contour>
			<point x="540" y="350" type="line"/>
			<point x="60" y="350" type="line"/>
			<point x="60" y="263" type="line"/>
			<point x="540" y="263" type="line"/>
		</contour>
	</outline>
</glyph>
<glyph name="emdash" format="2">
	<unicode hex="2014"/>
	<advance width="600"/>
	<outline>
		<contour>
			<point x="600" y="350" type="line"/>
			<point x="0" y="350" type="line"/>
			<point x="0" y="263" type="line"/>
			<point x="600" y="263" type="line"/>
		</contour>
	</outline>
</glyph>
<glyph name="quoteleft" format="2">
	<unicode hex="2018"/>
	<advance width="600"/>
	<outline>
		<contour>
			<point x="335" y="465" type="line"/>
			<point x="388" y="750" type="line"/>
			<point x="324" y="750" type="line"/>
			<point x="213" y="465" type="line"/>
		</contour>
	</outline>
</glyph>
<glyph name="quoteright" format="2">
	<unicode hex="2019"/>
	<advance width="600"/>
	<outline>
		<contour>
			<point x="265" y="750" type="line"/>
			<point x="212" y="465" type="line"/>
			<point x="276" y="465" type="line"/>
			<point x="387" y="750" type="line"/>
		</contour>
	</outline>
</glyph>
<glyph name="quotesinglbase" format="2">
	<unicode hex="201A"/>
	<advance width="600"/>
	<outline>
		<contour>
			<point x="265" y="122" type="line"/>
			<point x="212" y="-163" type="line"/>
			<point x="276" y="-163" type="line"/>
			<point x="387" y="122" type="line"/>
		</contour>
	</outline>
</glyph>
<glyph name="quotedblleft" format="2">
	<unicode hex="201C"/>
	<advance width="600"/>
	<outline>
		<contour>
			<point x="416" y="465" type="line"/>
			<point x="468" y="750" type="line"/>
			<point x="405" y="750" type="line"/>
			<point x="295" y="465" type="line"/>
		</contour>
		<contour>
			<point x="230" y="465" type="line"/>
			<point x="282" y="750" type="line"/>
			<point x="219" y="750" type="line"/>
			<point x="110" y="465" type="line"/>
		</contour>
	</outline>
</glyph>
<glyph name="quotedblright" format="2">
	<unicode hex="201D"/>
	<advance width="600"/>
	<outline>
		<contour>
			<point x="184" y="750" type="line"/>
			<point x="132" y="465" type="line"/>
			<point x="195" y="465" type="line"/>
			<point x="305" y="750" type="line"/>
		</contour>
		<contour>
			<point x="370" y="750" type="line"/>
			<point x="318" y="465" type="line"/>
			<point x="381" y="465" type="line"/>
			<point x="490" y="750" type="line"/>
		</contour>
	</outline>
</glyph>
<glyph name="dagger" format="2">
	<unicode hex="2020"/>
	<advance width="600"/>
	<outline>
		<contour>
			<point x="76" y="570" type="line"/>
			<point x="76" y="486" type="line"/>
			<point x="253" y="486" type="line"/>
			<point x="253" y="-143" type="line"/>
			<point x="346" y="-143" type="line"/>
			<point x="346" y="486" type="line"/>
			<point x="524" y="486" type="line"/>
			<point x="524" y="570" type="line"/>
			<point x="346" y="570" type="line"/>
			<point x="346" y="765" type="line"/>
			<point x="253" y="765" type="line"/>
			<point x="253" y="570" type="line"/>
		</contour>
	</outline>
</glyph>
<glyph name="daggerdbl" format="2">
	<unicode hex="2021"/>
	<advance width="600"/>
	<outline>
		<contour>
			<point x="76" y="208" type="line"/>
			<point x="76" y="126" type="line"/>
			<point x="254" y="126" type="line"/>
			<point x="254" y="-143" type="line"/>
			<point x="347" y="-143" type="line"/>
			<point x="347" y="126" type="line"/>
			<point x="524" y="126" type="line"/>
			<point x="524" y="208" type="line"/>
			<point x="347" y="208" type="line"/>
			<point x="347" y="495" type="line"/>
			<point x="524" y="495" type="line"/>
			<point x="524" y="576" type="line"/>
			<point x="347" y="576" type="line"/>
			<point x="347" y="765" type="line"/>
			<point x="254" y="765" type="line"/>
			<point x="254" y="576" type="line"/>
			<point x="76" y="576" type="line"/>
			<point x="76" y="495" type="line"/>
			<point x="254" y="495" type="line"/>
			<point x="254" y="208" type="line"/>
		</contour>
	</outline>
</glyph>
<glyph name="guilsinglleft" format="2">
	<unicode hex="2039"/>
	<advance width="600"/>
	<outline>
		<contour>
			<point x="343" y="77" type="line"/>
			<point x="463" y="77" type="line"/>
			<point x="245" y="289" type="line"/>
			<point x="463" y="497" type="line"/>
			<point x="343" y="497" type="line"/>
			<point x="125" y="287" type="line"/>
		</contour>
	</outline>
</glyph>
<glyph name="published" format="2">
	<unicode hex="2117"/>
	<advance width="600"/>
	<outline>
		<contour>
			<point x="300" y="105" type="curve" smooth="yes"/>
			<point x="445" y="105"/>
			<point x="557" y="199"/>
			<point x="557" y="374" type="curve" smooth="yes"/>
			<point x="557" y="388" type="line" smooth="yes"/>
			<point x="557" y="561"/>
			<point x="443" y="657"/>
			<point x="300" y="657" type="curve" smooth="yes"/>
			<point x="157" y="657"/>
			<point x="43" y="561"/>
			<point x="43" y="388" type="curve" smooth="yes"/>
			<point x="43" y="374" type="line" smooth="yes"/>
			<point x="43" y="199"/>
			<point x="155" y="105"/>
		</contour>
		<contour>
			<point x="300" y="154" type="curve" smooth="yes"/>
			<point x="170" y="154"/>
			<point x="93" y="238"/>
			<point x="93" y="377" type="curve" smooth="yes"/>
			<point x="93" y="384" type="line" smooth="yes"/>
			<point x="93" y="523"/>
			<point x="172" y="608"/>
			<point x="300" y="608" type="curve" smooth="yes"/>
			<point x="428" y="608"/>
			<point x="507" y="523"/>
			<point x="507" y="385" type="curve" smooth="yes"/>
			<point x="507" y="377" type="line" smooth="yes"/>
			<point x="507" y="238"/>
			<point x="430" y="154"/>
		</contour>
		<contour>
			<point x="211" y="249" type="line"/>
			<point x="260" y="249" type="line"/>
			<point x="260" y="333" type="line"/>
			<point x="316" y="333" type="line" smooth="yes"/>
			<point x="375" y="333"/>
			<point x="414" y="368"/>
			<point x="414" y="424" type="curve" smooth="yes"/>
			<point x="414" y="478"/>
			<point x="379" y="510"/>
			<point x="317" y="510" type="curve" smooth="yes"/>
			<point x="211" y="510" type="line"/>
		</contour>
		<contour>
			<point x="313" y="471" type="line" smooth="yes"/>
			<point x="344" y="471"/>
			<point x="365" y="453"/>
			<point x="365" y="423" type="curve" smooth="yes"/>
			<point x="365" y="394"/>
			<point x="345" y="373"/>
			<point x="313" y="373" type="curve" smooth="yes"/>
			<point x="260" y="373" type="line"/>
			<point x="260" y="471" type="line"/>
		</contour>
	</outline>
</glyph>
<glyph name="trademark" format="2">
	<unicode hex="2122"/>
	<advance width="600"/>
	<outline>
		<contour>
			<point x="294" y="342" type="line"/>
			<point x="342" y="342" type="line"/>
			<point x="342" y="508" type="line" smooth="yes"/>
			<point x="342" y="550"/>
			<point x="341" y="591"/>
			<point x="337" y="629" type="curve"/>
			<point x="341" y="629" type="line"/>
			<point x="398" y="433" type="line"/>
			<point x="448" y="433" type="line"/>
			<point x="507" y="629" type="line"/>
			<point x="510" y="629" type="line"/>
			<point x="507" y="591"/>
			<point x="505" y="551"/>
			<point x="505" y="508" type="curve" smooth="yes"/>
			<point x="505" y="342" type="line"/>
			<point x="554" y="342" type="line"/>
			<point x="554" y="684" type="line"/>
			<point x="478" y="684" type="line"/>
			<point x="424" y="490" type="line"/>
			<point x="422" y="490" type="line"/>
			<point x="369" y="684" type="line"/>
			<point x="294" y="684" type="line"/>
		</contour>
		<contour>
			<point x="112" y="342" type="line"/>
			<point x="167" y="342" type="line"/>
			<point x="167" y="637" type="line"/>
			<point x="260" y="637" type="line"/>
			<point x="260" y="684" type="line"/>
			<point x="17" y="684" type="line"/>
			<point x="17" y="637" type="line"/>
			<point x="112" y="637" type="line"/>
		</contour>
	</outline>
</glyph>
<glyph name="arrowleft" format="2">
	<unicode hex="2190"/>
	<advance width="600"/>
	<outline>
		<contour>
			<point x="347" y="132" type="line"/>
			<point x="159" y="319" type="line"/>
			<point x="560" y="319" type="line"/>
			<point x="560" y="398" type="line"/>
			<point x="158" y="398" type="line"/>
			<point x="346" y="583" type="line"/>
			<point x="244" y="583" type="line"/>
			<point x="19" y="358" type="line"/>
			<point x="245" y="132" type="line"/>
		</contour>
	</outline>
	<guideline x="75.690647482" y="305.4028776978" angle="90"/>
	<guideline x="107.107913669" y="446.8057553957" angle="315"/>
	<guideline x="238.5323741007" y="195.8345323741" angle="315"/>
</glyph>
<glyph name="arrowdown" format="2">
	<unicode hex="2193"/>
	<advance width="600"/>
	<outline>
		<contour>
			<point x="525" y="308" type="line"/>
			<point x="339" y="121" type="line"/>
			<point x="339" y="684" type="line"/>
			<point x="261" y="684" type="line"/>
			<point x="261" y="121" type="line"/>
			<point x="75" y="308" type="line"/>
			<point x="75" y="206" type="line"/>
			<point x="300" y="-19" type="line"/>
			<point x="525" y="206" type="line"/>
		</contour>
	</outline>
</glyph>
<glyph name="uni2198" format="2">
	<unicode hex="2198"/>
	<advance width="600"/>
	<outline>
		<contour>
			<point x="216" y="72" type="line"/>
			<point x="554" y="72" type="line"/>
			<point x="554" y="410" type="line"/>
			<point x="483" y="482" type="line"/>
			<point x="484" y="197" type="line"/>
			<point x="72" y="610" type="line"/>
			<point x="16" y="554" type="line"/>
			<point x="428" y="143" type="line"/>
			<point x="144" y="144" type="line"/>
		</contour>
	</outline>
</glyph>
<glyph name="increment" format="2">
	<unicode hex="2206"/>
	<advance width="600"/>
	<outline>
		<contour>
			<point x="22" y="0" type="line"/>
			<point x="578" y="0" type="line"/>
			<point x="362" y="687" type="line"/>
			<point x="234" y="687" type="line"/>
		</contour>
		<contour>
			<point x="144" y="80" type="line"/>
			<point x="298" y="614" type="line"/>
			<point x="455" y="80" type="line"/>
		</contour>
	</outline>
</glyph>
<glyph name="product" format="2">
	<unicode hex="220F"/>
	<advance width="600"/>
	<outline>
		<contour>
			<point x="75" y="0" type="line"/>
			<point x="167" y="0" type="line"/>
			<point x="167" y="604" type="line"/>
			<point x="433" y="604" type="line"/>
			<point x="433" y="0" type="line"/>
			<point x="525" y="0" type="line"/>
			<point x="525" y="684" type="line"/>
			<point x="75" y="684" type="line"/>
		</contour>
	</outline>
</glyph>
<glyph name="minus" format="2">
	<unicode hex="2212"/>
	<advance width="600"/>
	<outline>
		<contour>
			<point x="74" y="268" type="line"/>
			<point x="526" y="268" type="line"/>
			<point x="526" y="350" type="line"/>
			<point x="74" y="350" type="line"/>
		</contour>
	</outline>
</glyph>
<glyph name="integral" format="2">
	<unicode hex="222B"/>
	<advance width="600"/>
	<outline>
		<contour>
			<point x="164" y="-204" type="curve" smooth="yes"/>
			<point x="258" y="-204"/>
			<point x="336" y="-159"/>
			<point x="336" y="-26" type="curve" smooth="yes"/>
			<point x="336" y="504" type="line" smooth="yes"/>
			<point x="336" y="592"/>
			<point x="377" y="622"/>
			<point x="436" y="622" type="curve"/>
			<point x="463" y="622"/>
			<point x="490" y="617"/>
			<point x="510" y="611" type="curve"/>
			<point x="510" y="681" type="line"/>
			<point x="489" y="690"/>
			<point x="456" y="696"/>
			<point x="420" y="696" type="curve" smooth="yes"/>
			<point x="314" y="696"/>
			<point x="243" y="640"/>
			<point x="243" y="513" type="curve" smooth="yes"/>
			<point x="243" y="-20" type="line" smooth="yes"/>
			<point x="243" y="-98"/>
			<point x="215" y="-132"/>
			<point x="148" y="-132" type="curve" smooth="yes"/>
			<point x="120" y="-132"/>
			<point x="92" y="-127"/>
			<point x="66" y="-118" type="curve"/>
			<point x="66" y="-186" type="line"/>
			<point x="86" y="-196"/>
			<point x="125" y="-204"/>
		</contour>
	</outline>
</glyph>
<glyph name="approxequal" format="2">
	<unicode hex="2248"/>
	<advance width="600"/>
	<outline>
		<contour>
			<point x="175" y="403" type="curve" smooth="yes"/>
			<point x="243" y="403"/>
			<point x="331" y="347"/>
			<point x="425" y="347" type="curve" smooth="yes"/>
			<point x="467" y="347"/>
			<point x="510" y="363"/>
			<point x="526" y="388" type="curve"/>
			<point x="526" y="476" type="line"/>
			<point x="497" y="438"/>
			<point x="458" y="426"/>
			<point x="418" y="428" type="curve" smooth="yes"/>
			<point x="367" y="430"/>
			<point x="254" y="484"/>
			<point x="175" y="484" type="curve" smooth="yes"/>
			<point x="133" y="484"/>
			<point x="90" y="469"/>
			<point x="74" y="444" type="curve"/>
			<point x="74" y="355" type="line"/>
			<point x="98" y="388"/>
			<point x="138" y="403"/>
		</contour>
		<contour>
			<point x="175" y="188" type="curve" smooth="yes"/>
			<point x="243" y="188"/>
			<point x="331" y="132"/>
			<point x="425" y="132" type="curve" smooth="yes"/>
			<point x="468" y="132"/>
			<point x="510" y="148"/>
			<point x="526" y="173" type="curve"/>
			<point x="526" y="261" type="line"/>
			<point x="498" y="225"/>
			<point x="459" y="211"/>
			<point x="418" y="213" type="curve" smooth="yes"/>
			<point x="369" y="215"/>
			<point x="252" y="269"/>
			<point x="172" y="269" type="curve" smooth="yes"/>
			<point x="130" y="269"/>
			<point x="90" y="253"/>
			<point x="74" y="229" type="curve"/>
			<point x="74" y="140" type="line"/>
			<point x="98" y="173"/>
			<point x="138" y="188"/>
		</contour>
	</outline>
</glyph>
<glyph name="notequal" format="2">
	<unicode hex="2260"/>
	<advance width="600"/>
	<outline>
		<contour>
			<point x="124" y="73" type="line"/>
			<point x="200" y="73" type="line"/>
			<point x="248" y="150" type="line"/>
			<point x="526" y="150" type="line"/>
			<point x="526" y="232" type="line"/>
			<point x="298" y="232" type="line"/>
			<point x="379" y="364" type="line"/>
			<point x="526" y="364" type="line"/>
			<point x="526" y="446" type="line"/>
			<point x="429" y="446" type="line"/>
			<point x="476" y="522" type="line"/>
			<point x="400" y="522" type="line"/>
			<point x="353" y="446" type="line"/>
			<point x="74" y="446" type="line"/>
			<point x="74" y="364" type="line"/>
			<point x="303" y="364" type="line"/>
			<point x="222" y="232" type="line"/>
			<point x="74" y="232" type="line"/>
			<point x="74" y="150" type="line"/>
			<point x="171" y="150" type="line"/>
		</contour>
	</outline>
	<guideline x="73.8273381295" y="126.3237410072" angle="90"/>
	<guideline x="526.1726618705" y="264.4532374101" angle="90"/>
</glyph>
<glyph name="lessequal" format="2">
	<unicode hex="2264"/>
	<advance width="600"/>
	<outline>
		<contour>
			<point x="526" y="133" type="line"/>
			<point x="526" y="224" type="line"/>
			<point x="153" y="371" type="line"/>
			<point x="526" y="517" type="line"/>
			<point x="526" y="608" type="line"/>
			<point x="74" y="421" type="line"/>
			<point x="74" y="319" type="line"/>
		</contour>
		<contour>
			<point x="74" y="-14" type="line"/>
			<point x="526" y="-14" type="line"/>
			<point x="526" y="68" type="line"/>
			<point x="74" y="68" type="line"/>
		</contour>
	</outline>
</glyph>
<glyph name="anglebracketleft" format="2">
	<unicode hex="3008"/>
	<advance width="600"/>
	<outline>
		<contour>
			<point x="427" y="-163" type="line"/>
			<point x="528" y="-163" type="line"/>
			<point x="231" y="317" type="line"/>
			<point x="531" y="792" type="line"/>
			<point x="429" y="792" type="line"/>
			<point x="130" y="316" type="line"/>
		</contour>
	</outline>
</glyph>
<glyph name="commaaccent" format="2">
	<unicode hex="F6C3"/>
	<advance width="600"/>
	<outline>
		<contour>
			<point x="249" y="-272" type="curve"/>
			<point x="309" y="-272" type="line"/>
			<point x="333" y="-248"/>
			<point x="365" y="-185"/>
			<point x="365" y="-125" type="curve" smooth="yes"/>
			<point x="365" y="-83"/>
			<point x="349" y="-60"/>
			<point x="301" y="-60" type="curve" smooth="yes"/>
			<point x="264" y="-60"/>
			<point x="239" y="-74"/>
			<point x="239" y="-115" type="curve" smooth="yes"/>
			<point x="239" y="-149"/>
			<point x="255" y="-164"/>
			<point x="290" y="-166" type="curve"/>
			<point x="284" y="-200"/>
			<point x="268" y="-240"/>
		</contour>
	</outline>
	<anchor name="_bottom" x="302" y="0"/>
	<anchor name="anchor" x="464" y="0"/>
</glyph>
<glyph name="Anocross" format="2">
	<advance width="600"/>
	<outline>
		<contour>
			<point x="22" y="0" type="line"/>
			<point x="120" y="0" type="line"/>
			<point x="298" y="613" type="line"/>
			<point x="479" y="0" type="line"/>
			<point x="578" y="0" type="line"/>
			<point x="363" y="687" type="line"/>
			<point x="234" y="687" type="line"/>
		</contour>
	</outline>
	<anchor name="bottom" x="318" y="0"/>
	<anchor name="ogonek" x="578" y="0"/>
	<anchor name="top" x="299" y="684"/>
</glyph>
<glyph name="Twilio" format="2">
	<advance width="600"/>
	<outline>
		<contour>
			<point x="1" y="-126" type="curve" smooth="yes"/>
			<point x="259" y="-126"/>
			<point x="458" y="69"/>
			<point x="458" y="330" type="curve" smooth="yes"/>
			<point x="458" y="590"/>
			<point x="259" y="785"/>
			<point x="1" y="785" type="curve" smooth="yes"/>
			<point x="-259" y="785"/>
			<point x="-458" y="590"/>
			<point x="-458" y="330" type="curve" smooth="yes"/>
			<point x="-458" y="69"/>
			<point x="-259" y="-126"/>
		</contour>
		<contour>
			<point x="1" y="-5" type="curve" smooth="yes"/>
			<point x="-193" y="-5"/>
			<point x="-337" y="134"/>
			<point x="-337" y="330" type="curve" smooth="yes"/>
			<point x="-337" y="524"/>
			<point x="-193" y="663"/>
			<point x="1" y="663" type="curve" smooth="yes"/>
			<point x="190" y="663"/>
			<point x="331" y="524"/>
			<point x="331" y="330" type="curve" smooth="yes"/>
			<point x="331" y="134"/>
			<point x="190" y="-5"/>
		</contour>
		<contour>
			<point x="-116" y="348" type="curve" smooth="yes"/>
			<point x="-65" y="348"/>
			<point x="-22" y="391"/>
			<point x="-22" y="443" type="curve" smooth="yes"/>
			<point x="-22" y="494"/>
			<point x="-65" y="537"/>
			<point x="-116" y="537" type="curve" smooth="yes"/>
			<point x="-168" y="537"/>
			<point x="-211" y="494"/>
			<point x="-211" y="443" type="curve" smooth="yes"/>
			<point x="-211" y="391"/>
			<point x="-168" y="348"/>
		</contour>
		<contour>
			<point x="110" y="348" type="curve" smooth="yes"/>
			<point x="161" y="348"/>
			<point x="204" y="391"/>
			<point x="204" y="443" type="curve" smooth="yes"/>
			<point x="204" y="494"/>
			<point x="161" y="537"/>
			<point x="110" y="537" type="curve" smooth="yes"/>
			<point x="58" y="537"/>
			<point x="15" y="494"/>
			<point x="15" y="443" type="curve" smooth="yes"/>
			<point x="15" y="391"/>
			<point x="58" y="348"/>
		</contour>
		<contour>
			<point x="-116" y="120" type="curve" smooth="yes"/>
			<point x="-65" y="120"/>
			<point x="-22" y="163"/>
			<point x="-22" y="215" type="curve" smooth="yes"/>
			<point x="-22" y="266"/>
			<point x="-65" y="309"/>
			<point x="-116" y="309" type="curve" smooth="yes"/>
			<point x="-168" y="309"/>
			<point x="-211" y="266"/>
			<point x="-211" y="215" type="curve" smooth="yes"/>
			<point x="-211" y="163"/>
			<point x="-168" y="120"/>
		</contour>
		<contour>
			<point x="110" y="120" type="curve" smooth="yes"/>
			<point x="161" y="120"/>
			<point x="204" y="163"/>
			<point x="204" y="215" type="curve" smooth="yes"/>
			<point x="204" y="266"/>
			<point x="161" y="309"/>
			<point x="110" y="309" type="curve" smooth="yes"/>
			<point x="58" y="309"/>
			<point x="15" y="266"/>
			<point x="15" y="215" type="curve" smooth="yes"/>
			<point x="15" y="163"/>
			<point x="58" y="120"/>
		</contour>
	</outline>
</glyph>
<glyph name="acute.cap" format="2">
	<advance width="600"/>
	<outline>
		<contour>
			<point x="216" y="747" type="line"/>
			<point x="292" y="747" type="line"/>
			<point x="383" y="884" type="line"/>
			<point x="279" y="884" type="line"/>
		</contour>
	</outline>
	<anchor name="_top" x="254" y="684"/>
</glyph>
<glyph name="asciicircum_equal.cLig" format="2">
	<advance width="600"/>
	<outline>
		<contour>
			<point x="-448" y="364" type="line"/>
			<point x="-359" y="364" type="line"/>
			<point x="-222" y="632" type="line"/>
			<point x="-86" y="364" type="line"/>
			<point x="414" y="364" type="line"/>
			<point x="414" y="446" type="line"/>
			<point x="-38" y="446" type="line"/>
			<point x="-38" y="443" type="line"/>
			<point x="-178" y="708" type="line"/>
			<point x="-268" y="708" type="line"/>
		</contour>
		<contour>
			<point x="-38" y="150" type="line"/>
			<point x="414" y="150" type="line"/>
			<point x="414" y="232" type="line"/>
			<point x="-38" y="232" type="line"/>
		</contour>
	</outline>
</glyph>
<glyph name="asciitilde_greater.cLig" format="2">
	<advance width="600"/>
	<outline>
		<contour>
			<point x="104" y="629" type="line"/>
			<point x="354" y="357" type="line"/>
			<point x="-111" y="357" type="line"/>
			<point x="-117" y="311"/>
			<point x="-139" y="285"/>
			<point x="-171" y="285" type="curve" smooth="yes"/>
			<point x="-242" y="285"/>
			<point x="-262" y="416"/>
			<point x="-375" y="416" type="curve" smooth="yes"/>
			<point x="-451" y="416"/>
			<point x="-503" y="367"/>
			<point x="-503" y="220" type="curve"/>
			<point x="-425" y="220" type="line"/>
			<point x="-425" y="298"/>
			<point x="-409" y="331"/>
			<point x="-368" y="331" type="curve"/>
			<point x="-297" y="331"/>
			<point x="-271" y="200"/>
			<point x="-167" y="200" type="curve" smooth="yes"/>
			<point x="-115" y="200"/>
			<point x="-78" y="225"/>
			<point x="-58" y="272" type="curve"/>
			<point x="355" y="272" type="line"/>
			<point x="108" y="0" type="line"/>
			<point x="219" y="0" type="line"/>
			<point x="497" y="314" type="line"/>
			<point x="216" y="629" type="line"/>
		</contour>
	</outline>
</glyph>
<glyph name="asterisk_asterisk_asterisk.cLig" format="2">
	<advance width="600"/>
	<outline>
		<contour>
			<point x="-116" y="283" type="line"/>
			<point x="-69" y="365" type="line"/>
			<point x="-251" y="443" type="line"/>
			<point x="-68" y="522" type="line"/>
			<point x="-116" y="605" type="line"/>
			<point x="-275" y="486" type="line"/>
			<point x="-252" y="683" type="line"/>
			<point x="-348" y="683" type="line"/>
			<point x="-324" y="485" type="line"/>
			<point x="-485" y="605" type="line"/>
			<point x="-532" y="522" type="line"/>
			<point x="-349" y="443" type="line"/>
			<point x="-531" y="365" type="line"/>
			<point x="-484" y="282" type="line"/>
			<point x="-324" y="401" type="line"/>
			<point x="-347" y="203" type="line"/>
			<point x="-251" y="203" type="line"/>
			<point x="-275" y="401" type="line"/>
		</contour>
		<contour>
			<point x="-672" y="80" type="line"/>
			<point x="-625" y="162" type="line"/>
			<point x="-807" y="240" type="line"/>
			<point x="-624" y="319" type="line"/>
			<point x="-672" y="402" type="line"/>
			<point x="-831" y="283" type="line"/>
			<point x="-808" y="480" type="line"/>
			<point x="-904" y="480" type="line"/>
			<point x="-880" y="282" type="line"/>
			<point x="-1041" y="402" type="line"/>
			<point x="-1088" y="319" type="line"/>
			<point x="-905" y="240" type="line"/>
			<point x="-1087" y="162" type="line"/>
			<point x="-1040" y="79" type="line"/>
			<point x="-880" y="198" type="line"/>
			<point x="-903" y="0" type="line"/>
			<point x="-807" y="0" type="line"/>
			<point x="-831" y="198" type="line"/>
		</contour>
		<contour>
			<point x="441" y="80" type="line"/>
			<point x="488" y="162" type="line"/>
			<point x="306" y="240" type="line"/>
			<point x="489" y="319" type="line"/>
			<point x="441" y="402" type="line"/>
			<point x="282" y="283" type="line"/>
			<point x="305" y="480" type="line"/>
			<point x="209" y="480" type="line"/>
			<point x="233" y="282" type="line"/>
			<point x="72" y="402" type="line"/>
			<point x="25" y="319" type="line"/>
			<point x="208" y="240" type="line"/>
			<point x="26" y="162" type="line"/>
			<point x="73" y="79" type="line"/>
			<point x="233" y="198" type="line"/>
			<point x="210" y="0" type="line"/>
			<point x="306" y="0" type="line"/>
			<point x="282" y="198" type="line"/>
		</contour>
	</outline>
</glyph>
<glyph name="asterisk_asterisk_slash.rem" format="2">
	<advance width="600"/>
	<outline>
		<contour>
			<point x="385" y="792" type="line"/>
			<point x="12" y="-163" type="line"/>
			<point x="104" y="-163" type="line"/>
			<point x="478" y="792" type="line"/>
		</contour>
		<contour>
			<point x="-645" y="160" type="line"/>
			<point x="-598" y="242" type="line"/>
			<point x="-780" y="320" type="line"/>
			<point x="-597" y="399" type="line"/>
			<point x="-645" y="482" type="line"/>
			<point x="-804" y="363" type="line"/>
			<point x="-781" y="560" type="line"/>
			<point x="-877" y="560" type="line"/>
			<point x="-853" y="362" type="line"/>
			<point x="-1014" y="482" type="line"/>
			<point x="-1061" y="399" type="line"/>
			<point x="-878" y="320" type="line"/>
			<point x="-1060" y="242" type="line"/>
			<point x="-1013" y="159" type="line"/>
			<point x="-853" y="278" type="line"/>
			<point x="-876" y="80" type="line"/>
			<point x="-780" y="80" type="line"/>
			<point x="-804" y="278" type="line"/>
		</contour>
		<contour>
			<point x="-65" y="160" type="line"/>
			<point x="-18" y="242" type="line"/>
			<point x="-200" y="320" type="line"/>
			<point x="-17" y="399" type="line"/>
			<point x="-65" y="482" type="line"/>
			<point x="-224" y="363" type="line"/>
			<point x="-201" y="560" type="line"/>
			<point x="-297" y="560" type="line"/>
			<point x="-273" y="362" type="line"/>
			<point x="-434" y="482" type="line"/>
			<point x="-481" y="399" type="line"/>
			<point x="-298" y="320" type="line"/>
			<point x="-480" y="242" type="line"/>
			<point x="-433" y="159" type="line"/>
			<point x="-273" y="278" type="line"/>
			<point x="-296" y="80" type="line"/>
			<point x="-200" y="80" type="line"/>
			<point x="-224" y="278" type="line"/>
		</contour>
	</outline>
</glyph>
<glyph name="asterisk_large.rem" format="2">
	<advance width="600"/>
	<outline>
		<contour>
			<point x="484" y="160" type="line"/>
			<point x="531" y="242" type="line"/>
			<point x="349" y="320" type="line"/>
			<point x="532" y="399" type="line"/>
			<point x="484" y="482" type="line"/>
			<point x="325" y="363" type="line"/>
			<point x="348" y="560" type="line"/>
			<point x="252" y="560" type="line"/>
			<point x="276" y="362" type="line"/>
			<point x="115" y="482" type="line"/>
			<point x="68" y="399" type="line"/>
			<point x="251" y="320" type="line"/>
			<point x="69" y="242" type="line"/>
			<point x="116" y="159" type="line"/>
			<point x="276" y="278" type="line"/>
			<point x="253" y="80" type="line"/>
			<point x="349" y="80" type="line"/>
			<point x="325" y="278" type="line"/>
		</contour>
	</outline>
</glyph>
<glyph name="backslash_backslash.rem" format="2">
	<advance width="600"/>
	<outline>
		<contour>
			<point x="-97" y="-163" type="line"/>
			<point x="-2" y="-163" type="line"/>
			<point x="-376" y="792" type="line"/>
			<point x="-470" y="792" type="line"/>
		</contour>
		<contour>
			<point x="375" y="-163" type="line"/>
			<point x="470" y="-163" type="line"/>
			<point x="96" y="792" type="line"/>
			<point x="2" y="792" type="line"/>
		</contour>
	</outline>
</glyph>
<glyph name="bar_bar_hyphen.init" format="2">
	<advance width="600"/>
	<outline>
		<contour>
			<point x="26" y="-55" type="line"/>
			<point x="114" y="-55" type="line"/>
			<point x="114" y="271" type="line"/>
			<point x="600" y="271" type="line"/>
			<point x="600" y="356" type="line"/>
			<point x="114" y="356" type="line"/>
			<point x="114" y="684" type="line"/>
			<point x="26" y="684" type="line"/>
		</contour>
		<contour>
			<point x="-354" y="-55" type="line"/>
			<point x="-266" y="-55" type="line"/>
			<point x="-266" y="684" type="line"/>
			<point x="-354" y="684" type="line"/>
		</contour>
	</outline>
</glyph>
<glyph name="bar_equal.init" format="2">
	<advance width="600"/>
	<outline>
		<contour>
			<point x="146" y="684" type="line"/>
			<point x="146" y="-55" type="line"/>
			<point x="234" y="-55" type="line"/>
			<point x="234" y="167" type="line"/>
			<point x="600" y="167" type="line"/>
			<point x="600" y="249" type="line"/>
			<point x="234" y="249" type="line"/>
			<point x="234" y="380" type="line"/>
			<point x="600" y="380" type="line"/>
			<point x="600" y="462" type="line"/>
			<point x="234" y="462" type="line"/>
			<point x="234" y="684" type="line"/>
		</contour>
	</outline>
</glyph>
<glyph name="braceleft_braceleft_numbersign.cLig" format="2">
	<advance width="600"/>
	<outline>
		<contour>
			<point x="-614" y="-163" type="line"/>
			<point x="-614" y="-93" type="line"/>
			<point x="-759" y="-93" type="line" smooth="yes"/>
			<point x="-823" y="-93"/>
			<point x="-860" y="-65"/>
			<point x="-860" y="-12" type="curve"/>
			<point x="-860" y="66"/>
			<point x="-760" y="118"/>
			<point x="-760" y="211" type="curve" smooth="yes"/>
			<point x="-760" y="265"/>
			<point x="-811" y="304"/>
			<point x="-880" y="315" type="curve"/>
			<point x="-810" y="326"/>
			<point x="-760" y="365"/>
			<point x="-760" y="419" type="curve" smooth="yes"/>
			<point x="-760" y="511"/>
			<point x="-860" y="567"/>
			<point x="-860" y="640" type="curve" smooth="yes"/>
			<point x="-860" y="694"/>
			<point x="-820" y="721"/>
			<point x="-756" y="721" type="curve" smooth="yes"/>
			<point x="-425" y="721" type="line"/>
			<point x="-478" y="704"/>
			<point x="-496" y="664"/>
			<point x="-496" y="627" type="curve" smooth="yes"/>
			<point x="-496" y="541"/>
			<point x="-399" y="487"/>
			<point x="-399" y="421" type="curve" smooth="yes"/>
			<point x="-399" y="391"/>
			<point x="-420" y="355"/>
			<point x="-493" y="355" type="curve" smooth="yes"/>
			<point x="-562" y="355" type="line"/>
			<point x="-562" y="273" type="line"/>
			<point x="-493" y="273" type="line" smooth="yes"/>
			<point x="-416" y="273"/>
			<point x="-395" y="234"/>
			<point x="-395" y="204" type="curve" smooth="yes"/>
			<point x="-395" y="131"/>
			<point x="-496" y="71"/>
			<point x="-496" y="-21" type="curve"/>
			<point x="-496" y="-101"/>
			<point x="-445" y="-163"/>
			<point x="-327" y="-163" type="curve" smooth="yes"/>
			<point x="-148" y="-163" type="line"/>
			<point x="-148" y="-93" type="line"/>
			<point x="-301" y="-93" type="line" smooth="yes"/>
			<point x="-364" y="-93"/>
			<point x="-401" y="-67"/>
			<point x="-401" y="-12" type="curve"/>
			<point x="-401" y="61"/>
			<point x="-303" y="117"/>
			<point x="-303" y="208" type="curve" smooth="yes"/>
			<point x="-303" y="264"/>
			<point x="-354" y="303"/>
			<point x="-421" y="315" type="curve"/>
			<point x="-355" y="328"/>
			<point x="-302" y="364"/>
			<point x="-302" y="422" type="curve" smooth="yes"/>
			<point x="-302" y="510"/>
			<point x="-402" y="567"/>
			<point x="-402" y="640" type="curve" smooth="yes"/>
			<point x="-402" y="694"/>
			<point x="-361" y="721"/>
			<point x="-297" y="721" type="curve" smooth="yes"/>
			<point x="-139" y="721" type="line"/>
			<point x="-139" y="791" type="line"/>
			<point x="-785" y="791" type="line" smooth="yes"/>
			<point x="-895" y="791"/>
			<point x="-954" y="726"/>
			<point x="-954" y="650" type="curve" smooth="yes"/>
			<point x="-954" y="555"/>
			<point x="-854" y="494"/>
			<point x="-854" y="424" type="curve" smooth="yes"/>
			<point x="-854" y="394"/>
			<point x="-876" y="355"/>
			<point x="-949" y="355" type="curve" smooth="yes"/>
			<point x="-1020" y="355" type="line"/>
			<point x="-1020" y="273" type="line"/>
			<point x="-949" y="273" type="line" smooth="yes"/>
			<point x="-876" y="273"/>
			<point x="-854" y="234"/>
			<point x="-854" y="204" type="curve" smooth="yes"/>
			<point x="-854" y="133"/>
			<point x="-954" y="75"/>
			<point x="-954" y="-21" type="curve"/>
			<point x="-954" y="-101"/>
			<point x="-900" y="-163"/>
			<point x="-785" y="-163" type="curve" smooth="yes"/>
		</contour>
		<contour>
			<point x="-134" y="241" type="line"/>
			<point x="-134" y="167" type="line"/>
			<point x="-4" y="167" type="line"/>
			<point x="-20" y="0" type="line"/>
			<point x="58" y="0" type="line"/>
			<point x="74" y="167" type="line"/>
			<point x="211" y="167" type="line"/>
			<point x="195" y="0" type="line"/>
			<point x="271" y="0" type="line"/>
			<point x="287" y="167" type="line"/>
			<point x="400" y="167" type="line"/>
			<point x="400" y="241" type="line"/>
			<point x="294" y="241" type="line"/>
			<point x="315" y="454" type="line"/>
			<point x="424" y="454" type="line"/>
			<point x="424" y="529" type="line"/>
			<point x="322" y="529" type="line"/>
			<point x="337" y="684" type="line"/>
			<point x="259" y="684" type="line"/>
			<point x="245" y="529" type="line"/>
			<point x="108" y="529" type="line"/>
			<point x="122" y="684" type="line"/>
			<point x="46" y="684" type="line"/>
			<point x="31" y="529" type="line"/>
			<point x="-134" y="529" type="line"/>
			<point x="-134" y="454" type="line"/>
			<point x="24" y="454" type="line"/>
			<point x="3" y="241" type="line"/>
		</contour>
		<contour>
			<point x="81" y="241" type="line"/>
			<point x="101" y="454" type="line"/>
			<point x="238" y="454" type="line"/>
			<point x="218" y="241" type="line"/>
		</contour>
	</outline>
</glyph>
<glyph name="braceleft_hyphen.rem" format="2">
	<advance width="600"/>
	<outline>
		<contour>
			<point x="-14" y="792" type="line"/>
			<point x="-163" y="792" type="line" smooth="yes"/>
			<point x="-278" y="792"/>
			<point x="-332" y="733"/>
			<point x="-332" y="655" type="curve" smooth="yes"/>
			<point x="-332" y="563"/>
			<point x="-229" y="495"/>
			<point x="-229" y="427" type="curve" smooth="yes"/>
			<point x="-229" y="395"/>
			<point x="-248" y="357"/>
			<point x="-315" y="357" type="curve" smooth="yes"/>
			<point x="-389" y="357" type="line"/>
			<point x="-389" y="274" type="line"/>
			<point x="-315" y="274" type="line" smooth="yes"/>
			<point x="-248" y="274"/>
			<point x="-229" y="237"/>
			<point x="-229" y="206" type="curve" smooth="yes"/>
			<point x="-229" y="137"/>
			<point x="-332" y="70"/>
			<point x="-332" y="-26" type="curve" smooth="yes"/>
			<point x="-332" y="-103"/>
			<point x="-272" y="-163"/>
			<point x="-163" y="-163" type="curve" smooth="yes"/>
			<point x="-14" y="-163" type="line"/>
			<point x="-14" y="-93" type="line"/>
			<point x="-139" y="-93" type="line" smooth="yes"/>
			<point x="-197" y="-93"/>
			<point x="-237" y="-69"/>
			<point x="-237" y="-17" type="curve" smooth="yes"/>
			<point x="-237" y="55"/>
			<point x="-136" y="112"/>
			<point x="-136" y="194" type="curve" smooth="yes"/>
			<point x="-136" y="236"/>
			<point x="-165" y="264"/>
			<point x="-206" y="276" type="curve"/>
			<point x="428" y="276" type="line"/>
			<point x="428" y="353" type="line"/>
			<point x="-208" y="353" type="line"/>
			<point x="-165" y="367"/>
			<point x="-136" y="395"/>
			<point x="-136" y="438" type="curve" smooth="yes"/>
			<point x="-136" y="522"/>
			<point x="-237" y="575"/>
			<point x="-237" y="645" type="curve" smooth="yes"/>
			<point x="-237" y="697"/>
			<point x="-199" y="722"/>
			<point x="-136" y="722" type="curve" smooth="yes"/>
			<point x="-14" y="722" type="line"/>
		</contour>
	</outline>
</glyph>
<glyph name="braceleft_numbersign.cLig" format="2">
	<advance width="600"/>
	<outline>
		<contour>
			<point x="-477" y="272" type="line"/>
			<point x="-416" y="272" type="line" smooth="yes"/>
			<point x="-344" y="272"/>
			<point x="-322" y="233"/>
			<point x="-322" y="203" type="curve" smooth="yes"/>
			<point x="-322" y="134"/>
			<point x="-427" y="71"/>
			<point x="-427" y="-23" type="curve" smooth="yes"/>
			<point x="-427" y="-101"/>
			<point x="-374" y="-163"/>
			<point x="-258" y="-163" type="curve" smooth="yes"/>
			<point x="-109" y="-163" type="line"/>
			<point x="-109" y="-93" type="line"/>
			<point x="-232" y="-93" type="line" smooth="yes"/>
			<point x="-296" y="-93"/>
			<point x="-333" y="-67"/>
			<point x="-333" y="-13" type="curve" smooth="yes"/>
			<point x="-333" y="58"/>
			<point x="-228" y="115"/>
			<point x="-228" y="206" type="curve" smooth="yes"/>
			<point x="-228" y="261"/>
			<point x="-279" y="303"/>
			<point x="-348" y="314" type="curve"/>
			<point x="-279" y="325"/>
			<point x="-228" y="366"/>
			<point x="-228" y="421" type="curve" smooth="yes"/>
			<point x="-228" y="512"/>
			<point x="-333" y="570"/>
			<point x="-333" y="643" type="curve" smooth="yes"/>
			<point x="-333" y="698"/>
			<point x="-293" y="722"/>
			<point x="-234" y="722" type="curve" smooth="yes"/>
			<point x="-109" y="722" type="line"/>
			<point x="-109" y="792" type="line"/>
			<point x="-258" y="792" type="line" smooth="yes"/>
			<point x="-368" y="792"/>
			<point x="-427" y="729"/>
			<point x="-427" y="653" type="curve" smooth="yes"/>
			<point x="-427" y="558"/>
			<point x="-322" y="494"/>
			<point x="-322" y="424" type="curve" smooth="yes"/>
			<point x="-322" y="394"/>
			<point x="-343" y="355"/>
			<point x="-416" y="355" type="curve" smooth="yes"/>
			<point x="-477" y="355" type="line"/>
		</contour>
		<contour>
			<point x="-98" y="241" type="line"/>
			<point x="-98" y="167" type="line"/>
			<point x="32" y="167" type="line"/>
			<point x="16" y="0" type="line"/>
			<point x="94" y="0" type="line"/>
			<point x="110" y="167" type="line"/>
			<point x="247" y="167" type="line"/>
			<point x="231" y="0" type="line"/>
			<point x="307" y="0" type="line"/>
			<point x="323" y="167" type="line"/>
			<point x="436" y="167" type="line"/>
			<point x="436" y="241" type="line"/>
			<point x="330" y="241" type="line"/>
			<point x="351" y="454" type="line"/>
			<point x="460" y="454" type="line"/>
			<point x="460" y="529" type="line"/>
			<point x="358" y="529" type="line"/>
			<point x="373" y="684" type="line"/>
			<point x="295" y="684" type="line"/>
			<point x="281" y="529" type="line"/>
			<point x="144" y="529" type="line"/>
			<point x="158" y="684" type="line"/>
			<point x="82" y="684" type="line"/>
			<point x="67" y="529" type="line"/>
			<point x="-98" y="529" type="line"/>
			<point x="-98" y="454" type="line"/>
			<point x="60" y="454" type="line"/>
			<point x="39" y="241" type="line"/>
		</contour>
		<contour>
			<point x="117" y="241" type="line"/>
			<point x="137" y="454" type="line"/>
			<point x="274" y="454" type="line"/>
			<point x="254" y="241" type="line"/>
		</contour>
	</outline>
</glyph>
<glyph name="caronSlovak" format="2">
	<advance width="600"/>
	<outline>
		<contour>
			<point x="246" y="575" type="line"/>
			<point x="303" y="575" type="line"/>
			<point x="364" y="750" type="line"/>
			<point x="270" y="750" type="line"/>
		</contour>
	</outline>
	<anchor name="_caron" x="270" y="750"/>
</glyph>
<glyph name="colon_colon.cLig" format="2">
	<advance width="600"/>
	<outline>
		<contour>
			<point x="-220" y="-12" type="curve" smooth="yes"/>
			<point x="-169" y="-12"/>
			<point x="-142" y="7"/>
			<point x="-142" y="59" type="curve" smooth="yes"/>
			<point x="-142" y="110"/>
			<point x="-169" y="129"/>
			<point x="-220" y="129" type="curve" smooth="yes"/>
			<point x="-271" y="129"/>
			<point x="-298" y="110"/>
			<point x="-298" y="59" type="curve" smooth="yes"/>
			<point x="-298" y="7"/>
			<point x="-271" y="-12"/>
		</contour>
		<contour>
			<point x="-220" y="381" type="curve" smooth="yes"/>
			<point x="-169" y="381"/>
			<point x="-142" y="400"/>
			<point x="-142" y="452" type="curve" smooth="yes"/>
			<point x="-142" y="503"/>
			<point x="-169" y="522"/>
			<point x="-220" y="522" type="curve" smooth="yes"/>
			<point x="-271" y="522"/>
			<point x="-298" y="503"/>
			<point x="-298" y="452" type="curve" smooth="yes"/>
			<point x="-298" y="400"/>
			<point x="-271" y="381"/>
		</contour>
		<contour>
			<point x="220" y="-12" type="curve" smooth="yes"/>
			<point x="271" y="-12"/>
			<point x="298" y="7"/>
			<point x="298" y="59" type="curve" smooth="yes"/>
			<point x="298" y="110"/>
			<point x="271" y="129"/>
			<point x="220" y="129" type="curve" smooth="yes"/>
			<point x="169" y="129"/>
			<point x="142" y="110"/>
			<point x="142" y="59" type="curve" smooth="yes"/>
			<point x="142" y="7"/>
			<point x="169" y="-12"/>
		</contour>
		<contour>
			<point x="220" y="381" type="curve" smooth="yes"/>
			<point x="271" y="381"/>
			<point x="298" y="400"/>
			<point x="298" y="452" type="curve" smooth="yes"/>
			<point x="298" y="503"/>
			<point x="271" y="522"/>
			<point x="220" y="522" type="curve" smooth="yes"/>
			<point x="169" y="522"/>
			<point x="142" y="503"/>
			<point x="142" y="452" type="curve" smooth="yes"/>
			<point x="142" y="400"/>
			<point x="169" y="381"/>
		</contour>
	</outline>
</glyph>
<glyph name="colon_colon_colon.cLig" format="2">
	<advance width="600"/>
	<outline>
		<contour>
			<point x="-756" y="-12" type="curve" smooth="yes"/>
			<point x="-705" y="-12"/>
			<point x="-678" y="7"/>
			<point x="-678" y="59" type="curve" smooth="yes"/>
			<point x="-678" y="110"/>
			<point x="-705" y="129"/>
			<point x="-756" y="129" type="curve" smooth="yes"/>
			<point x="-807" y="129"/>
			<point x="-834" y="110"/>
			<point x="-834" y="59" type="curve" smooth="yes"/>
			<point x="-834" y="7"/>
			<point x="-807" y="-12"/>
		</contour>
		<contour>
			<point x="-756" y="381" type="curve" smooth="yes"/>
			<point x="-705" y="381"/>
			<point x="-678" y="400"/>
			<point x="-678" y="452" type="curve" smooth="yes"/>
			<point x="-678" y="503"/>
			<point x="-705" y="522"/>
			<point x="-756" y="522" type="curve" smooth="yes"/>
			<point x="-807" y="522"/>
			<point x="-834" y="503"/>
			<point x="-834" y="452" type="curve" smooth="yes"/>
			<point x="-834" y="400"/>
			<point x="-807" y="381"/>
		</contour>
		<contour>
			<point x="-300" y="-12" type="curve" smooth="yes"/>
			<point x="-249" y="-12"/>
			<point x="-222" y="7"/>
			<point x="-222" y="59" type="curve" smooth="yes"/>
			<point x="-222" y="110"/>
			<point x="-249" y="129"/>
			<point x="-300" y="129" type="curve" smooth="yes"/>
			<point x="-351" y="129"/>
			<point x="-378" y="110"/>
			<point x="-378" y="59" type="curve" smooth="yes"/>
			<point x="-378" y="7"/>
			<point x="-351" y="-12"/>
		</contour>
		<contour>
			<point x="-300" y="381" type="curve" smooth="yes"/>
			<point x="-249" y="381"/>
			<point x="-222" y="400"/>
			<point x="-222" y="452" type="curve" smooth="yes"/>
			<point x="-222" y="503"/>
			<point x="-249" y="522"/>
			<point x="-300" y="522" type="curve" smooth="yes"/>
			<point x="-351" y="522"/>
			<point x="-378" y="503"/>
			<point x="-378" y="452" type="curve" smooth="yes"/>
			<point x="-378" y="400"/>
			<point x="-351" y="381"/>
		</contour>
		<contour>
			<point x="156" y="-12" type="curve" smooth="yes"/>
			<point x="207" y="-12"/>
			<point x="234" y="7"/>
			<point x="234" y="59" type="curve" smooth="yes"/>
			<point x="234" y="110"/>
			<point x="207" y="129"/>
			<point x="156" y="129" type="curve" smooth="yes"/>
			<point x="105" y="129"/>
			<point x="78" y="110"/>
			<point x="78" y="59" type="curve" smooth="yes"/>
			<point x="78" y="7"/>
			<point x="105" y="-12"/>
		</contour>
		<contour>
			<point x="156" y="381" type="curve" smooth="yes"/>
			<point x="207" y="381"/>
			<point x="234" y="400"/>
			<point x="234" y="452" type="curve" smooth="yes"/>
			<point x="234" y="503"/>
			<point x="207" y="522"/>
			<point x="156" y="522" type="curve" smooth="yes"/>
			<point x="105" y="522"/>
			<point x="78" y="503"/>
			<point x="78" y="452" type="curve" smooth="yes"/>
			<point x="78" y="400"/>
			<point x="105" y="381"/>
		</contour>
	</outline>
</glyph>
<glyph name="colon_colon_equal.cLig" format="2">
	<advance width="600"/>
	<outline>
		<contour>
			<point x="-873" y="82" type="curve" smooth="yes"/>
			<point x="-822" y="82"/>
			<point x="-795" y="101"/>
			<point x="-795" y="153" type="curve" smooth="yes"/>
			<point x="-795" y="204"/>
			<point x="-822" y="223"/>
			<point x="-873" y="223" type="curve" smooth="yes"/>
			<point x="-924" y="223"/>
			<point x="-951" y="204"/>
			<point x="-951" y="153" type="curve" smooth="yes"/>
			<point x="-951" y="101"/>
			<point x="-924" y="82"/>
		</contour>
		<contour>
			<point x="-873" y="370" type="curve" smooth="yes"/>
			<point x="-822" y="370"/>
			<point x="-795" y="389"/>
			<point x="-795" y="441" type="curve" smooth="yes"/>
			<point x="-795" y="492"/>
			<point x="-822" y="511"/>
			<point x="-873" y="511" type="curve" smooth="yes"/>
			<point x="-924" y="511"/>
			<point x="-951" y="492"/>
			<point x="-951" y="441" type="curve" smooth="yes"/>
			<point x="-951" y="389"/>
			<point x="-924" y="370"/>
		</contour>
		<contour>
			<point x="-502" y="82" type="curve" smooth="yes"/>
			<point x="-451" y="82"/>
			<point x="-424" y="101"/>
			<point x="-424" y="153" type="curve" smooth="yes"/>
			<point x="-424" y="204"/>
			<point x="-451" y="223"/>
			<point x="-502" y="223" type="curve" smooth="yes"/>
			<point x="-553" y="223"/>
			<point x="-580" y="204"/>
			<point x="-580" y="153" type="curve" smooth="yes"/>
			<point x="-580" y="101"/>
			<point x="-553" y="82"/>
		</contour>
		<contour>
			<point x="-502" y="370" type="curve" smooth="yes"/>
			<point x="-451" y="370"/>
			<point x="-424" y="389"/>
			<point x="-424" y="441" type="curve" smooth="yes"/>
			<point x="-424" y="492"/>
			<point x="-451" y="511"/>
			<point x="-502" y="511" type="curve" smooth="yes"/>
			<point x="-553" y="511"/>
			<point x="-580" y="492"/>
			<point x="-580" y="441" type="curve" smooth="yes"/>
			<point x="-580" y="389"/>
			<point x="-553" y="370"/>
		</contour>
		<contour>
			<point x="-181.6906474826" y="364" type="line"/>
			<point x="351.6043165426" y="364" type="line"/>
			<point x="351.6043165426" y="446" type="line"/>
			<point x="-181.6906474826" y="446" type="line"/>
		</contour>
		<contour>
			<point x="-181.6906474826" y="150" type="line"/>
			<point x="351.6043165426" y="150" type="line"/>
			<point x="351.6043165426" y="232" type="line"/>
			<point x="-181.6906474826" y="232" type="line"/>
		</contour>
	</outline>
</glyph>
<glyph name="colon_equal.med" format="2">
	<advance width="600"/>
	<outline>
		<contour>
			<point x="301" y="370" type="curve" smooth="yes"/>
			<point x="351" y="370"/>
			<point x="378" y="389"/>
			<point x="378" y="441" type="curve" smooth="yes"/>
			<point x="378" y="492"/>
			<point x="351" y="511"/>
			<point x="301" y="511" type="curve" smooth="yes"/>
			<point x="250" y="511"/>
			<point x="223" y="492"/>
			<point x="223" y="441" type="curve" smooth="yes"/>
			<point x="223" y="389"/>
			<point x="250" y="370"/>
		</contour>
		<contour>
			<point x="496" y="380" type="line"/>
			<point x="600" y="380" type="line"/>
			<point x="600" y="462" type="line"/>
			<point x="496" y="462" type="line"/>
		</contour>
		<contour>
			<point x="0" y="380" type="line"/>
			<point x="104" y="380" type="line"/>
			<point x="104" y="462" type="line"/>
			<point x="0" y="462" type="line"/>
		</contour>
		<contour>
			<point x="496" y="167" type="line"/>
			<point x="600" y="167" type="line"/>
			<point x="600" y="249" type="line"/>
			<point x="496" y="249" type="line"/>
		</contour>
		<contour>
			<point x="0" y="167" type="line"/>
			<point x="104" y="167" type="line"/>
			<point x="104" y="249" type="line"/>
			<point x="0" y="249" type="line"/>
		</contour>
		<contour>
			<point x="301" y="82" type="curve" smooth="yes"/>
			<point x="351" y="82"/>
			<point x="378" y="101"/>
			<point x="378" y="153" type="curve" smooth="yes"/>
			<point x="378" y="204"/>
			<point x="351" y="223"/>
			<point x="301" y="223" type="curve" smooth="yes"/>
			<point x="250" y="223"/>
			<point x="223" y="204"/>
			<point x="223" y="153" type="curve" smooth="yes"/>
			<point x="223" y="101"/>
			<point x="250" y="82"/>
		</contour>
	</outline>
</glyph>
<glyph name="colon_less.cLig.x" format="2">
	<advance width="600"/>
	<outline>
		<contour>
			<point x="426" y="-6" type="line"/>
			<point x="426" y="90" type="line"/>
			<point x="53" y="315" type="line"/>
			<point x="426" y="539" type="line"/>
			<point x="426" y="635" type="line"/>
			<point x="-18" y="365" type="line"/>
			<point x="-18" y="263" type="line"/>
		</contour>
		<contour>
			<point x="-301" y="438" type="curve" smooth="yes"/>
			<point x="-250" y="438"/>
			<point x="-223" y="457"/>
			<point x="-223" y="509" type="curve" smooth="yes"/>
			<point x="-223" y="560"/>
			<point x="-250" y="579"/>
			<point x="-301" y="579" type="curve" smooth="yes"/>
			<point x="-351" y="579"/>
			<point x="-379" y="560"/>
			<point x="-379" y="509" type="curve" smooth="yes"/>
			<point x="-379" y="457"/>
			<point x="-351" y="438"/>
		</contour>
		<contour>
			<point x="-301" y="45" type="curve" smooth="yes"/>
			<point x="-250" y="45"/>
			<point x="-223" y="63"/>
			<point x="-223" y="116" type="curve" smooth="yes"/>
			<point x="-223" y="167"/>
			<point x="-250" y="185"/>
			<point x="-301" y="185" type="curve" smooth="yes"/>
			<point x="-351" y="185"/>
			<point x="-379" y="167"/>
			<point x="-379" y="116" type="curve" smooth="yes"/>
			<point x="-379" y="63"/>
			<point x="-351" y="45"/>
		</contour>
	</outline>
</glyph>
<glyph name="cordinal" format="2">
	<advance width="600"/>
	<outline>
		<contour>
			<point x="362" y="226" type="curve"/>
			<point x="407" y="226"/>
			<point x="449" y="234"/>
			<point x="480" y="250" type="curve"/>
			<point x="480" y="313" type="line"/>
			<point x="452" y="299"/>
			<point x="411" y="290"/>
			<point x="369" y="290" type="curve"/>
			<point x="265" y="290"/>
			<point x="198" y="351"/>
			<point x="198" y="462" type="curve" smooth="yes"/>
			<point x="198" y="572"/>
			<point x="266" y="631"/>
			<point x="367" y="631" type="curve"/>
			<point x="410" y="631"/>
			<point x="450" y="622"/>
			<point x="480" y="607" type="curve"/>
			<point x="480" y="672" type="line"/>
			<point x="447" y="689"/>
			<point x="405" y="695"/>
			<point x="360" y="695" type="curve"/>
			<point x="218" y="695"/>
			<point x="117" y="608"/>
			<point x="117" y="461" type="curve" smooth="yes"/>
			<point x="117" y="312"/>
			<point x="213" y="226"/>
		</contour>
	</outline>
</glyph>
<glyph name="dieresis.cap" format="2">
	<advance width="600"/>
	<outline>
		<contour>
			<point x="397" y="863" type="curve" smooth="yes"/>
			<point x="354" y="863"/>
			<point x="339" y="845"/>
			<point x="339" y="811" type="curve" smooth="yes"/>
			<point x="339" y="777"/>
			<point x="354" y="759"/>
			<point x="397" y="759" type="curve" smooth="yes"/>
			<point x="440" y="759"/>
			<point x="455" y="778"/>
			<point x="455" y="811" type="curve" smooth="yes"/>
			<point x="455" y="845"/>
			<point x="440" y="863"/>
		</contour>
		<contour>
			<point x="204" y="759" type="curve" smooth="yes"/>
			<point x="247" y="759"/>
			<point x="261" y="778"/>
			<point x="261" y="811" type="curve" smooth="yes"/>
			<point x="261" y="845"/>
			<point x="247" y="863"/>
			<point x="204" y="863" type="curve" smooth="yes"/>
			<point x="161" y="863"/>
			<point x="145" y="845"/>
			<point x="145" y="811" type="curve" smooth="yes"/>
			<point x="145" y="777"/>
			<point x="160" y="759"/>
		</contour>
	</outline>
	<anchor name="_top" x="300" y="684"/>
</glyph>
<glyph name="dotaccent.cap" format="2">
	<advance width="600"/>
	<outline>
		<contour>
			<point x="300" y="759" type="curve" smooth="yes"/>
			<point x="348" y="759"/>
			<point x="364" y="779"/>
			<point x="364" y="815" type="curve" smooth="yes"/>
			<point x="364" y="850"/>
			<point x="348" y="870"/>
			<point x="300" y="870" type="curve" smooth="yes"/>
			<point x="252" y="870"/>
			<point x="236" y="851"/>
			<point x="236" y="815" type="curve" smooth="yes"/>
			<point x="236" y="779"/>
			<point x="252" y="759"/>
		</contour>
	</outline>
	<anchor name="_top" x="300" y="684"/>
</glyph>
<glyph name="dotbelow" format="2">
	<advance width="600"/>
	<outline>
		<contour>
			<point x="300" y="-157" type="curve" smooth="yes"/>
			<point x="346" y="-157"/>
			<point x="364" y="-138"/>
			<point x="364" y="-98" type="curve" smooth="yes"/>
			<point x="364" y="-58"/>
			<point x="346" y="-39"/>
			<point x="300" y="-39" type="curve" smooth="yes"/>
			<point x="254" y="-39"/>
			<point x="235" y="-58"/>
			<point x="235" y="-98" type="curve" smooth="yes"/>
			<point x="235" y="-138"/>
			<point x="255" y="-157"/>
		</contour>
	</outline>
	<anchor name="bottom" x="300" y="0"/>
</glyph>
<glyph name="eight.den" format="2">
	<advance width="600"/>
	<outline>
		<contour>
			<point x="300" y="-8" type="curve" smooth="yes"/>
			<point x="395" y="-8"/>
			<point x="458" y="30"/>
			<point x="458" y="110" type="curve" smooth="yes"/>
			<point x="458" y="175"/>
			<point x="414" y="201"/>
			<point x="370" y="210" type="curve"/>
			<point x="413" y="219"/>
			<point x="450" y="250"/>
			<point x="450" y="306" type="curve" smooth="yes"/>
			<point x="450" y="381"/>
			<point x="388" y="418"/>
			<point x="300" y="418" type="curve" smooth="yes"/>
			<point x="210" y="418"/>
			<point x="149" y="381"/>
			<point x="149" y="306" type="curve" smooth="yes"/>
			<point x="149" y="249"/>
			<point x="188" y="218"/>
			<point x="227" y="210" type="curve"/>
			<point x="180" y="200"/>
			<point x="142" y="171"/>
			<point x="142" y="109" type="curve" smooth="yes"/>
			<point x="142" y="30"/>
			<point x="206" y="-8"/>
		</contour>
		<contour>
			<point x="300" y="233" type="curve" smooth="yes"/>
			<point x="249" y="233"/>
			<point x="216" y="251"/>
			<point x="216" y="299" type="curve" smooth="yes"/>
			<point x="216" y="349"/>
			<point x="250" y="368"/>
			<point x="300" y="368" type="curve" smooth="yes"/>
			<point x="349" y="368"/>
			<point x="383" y="349"/>
			<point x="383" y="299" type="curve" smooth="yes"/>
			<point x="383" y="251"/>
			<point x="349" y="233"/>
		</contour>
		<contour>
			<point x="300" y="44" type="curve" smooth="yes"/>
			<point x="247" y="44"/>
			<point x="211" y="66"/>
			<point x="211" y="119" type="curve" smooth="yes"/>
			<point x="211" y="170"/>
			<point x="245" y="187"/>
			<point x="300" y="187" type="curve" smooth="yes"/>
			<point x="352" y="187"/>
			<point x="390" y="170"/>
			<point x="390" y="119" type="curve" smooth="yes"/>
			<point x="390" y="67"/>
			<point x="353" y="44"/>
		</contour>
	</outline>
</glyph>
<glyph name="equal.den" format="2">
	<advance width="600"/>
	<outline>
		<contour>
			<point x="148" y="283" type="line"/>
			<point x="148" y="227" type="line"/>
			<point x="452" y="227" type="line"/>
			<point x="452" y="283" type="line"/>
		</contour>
		<contour>
			<point x="148" y="150" type="line"/>
			<point x="148" y="95" type="line"/>
			<point x="452" y="95" type="line"/>
			<point x="452" y="150" type="line"/>
		</contour>
	</outline>
</glyph>
<glyph name="equal.init" format="2">
	<advance width="600"/>
	<outline>
		<contour>
			<point x="172" y="380" type="line"/>
			<point x="600" y="380" type="line"/>
			<point x="600" y="462" type="line"/>
			<point x="172" y="462" type="line"/>
		</contour>
		<contour>
			<point x="172" y="167" type="line"/>
			<point x="600" y="167" type="line"/>
			<point x="600" y="249" type="line"/>
			<point x="172" y="249" type="line"/>
		</contour>
	</outline>
	<guideline x="366.2014388489" y="573.6043165467" angle="0" identifier="c2Y1Sn7BVk"/>
</glyph>
<glyph name="equal_bar_bar.rem" format="2">
	<advance width="600"/>
	<outline>
		<contour>
			<point x="357" y="-55" type="line"/>
			<point x="357" y="684" type="line"/>
			<point x="269" y="684" type="line"/>
			<point x="269" y="-55" type="line"/>
		</contour>
		<contour>
			<point x="-26" y="-55" type="line"/>
			<point x="-26" y="684" type="line"/>
			<point x="-114" y="684" type="line"/>
			<point x="-114" y="462" type="line"/>
			<point x="-1028" y="462" type="line"/>
			<point x="-1028" y="380" type="line"/>
			<point x="-114" y="380" type="line"/>
			<point x="-114" y="249" type="line"/>
			<point x="-1028" y="249" type="line"/>
			<point x="-1028" y="167" type="line"/>
			<point x="-114" y="167" type="line"/>
			<point x="-114" y="-55" type="line"/>
		</contour>
	</outline>
</glyph>
<glyph name="equal_equal_greater.rem" format="2">
	<advance width="600"/>
	<outline>
		<contour>
			<point x="-1028" y="167" type="line"/>
			<point x="235" y="167" type="line"/>
			<point x="89" y="0" type="line"/>
			<point x="199" y="0" type="line"/>
			<point x="474" y="313" type="line"/>
			<point x="196" y="629" type="line"/>
			<point x="86" y="629" type="line"/>
			<point x="234" y="462" type="line"/>
			<point x="-1028" y="462" type="line"/>
			<point x="-1028" y="380" type="line"/>
			<point x="306" y="380" type="line"/>
			<point x="365" y="314" type="line"/>
			<point x="307" y="249" type="line"/>
			<point x="-1028" y="249" type="line"/>
		</contour>
	</outline>
</glyph>
<glyph name="equal_greater.rem" format="2">
	<advance width="600"/>
	<outline>
		<contour>
			<point x="-428" y="167" type="line"/>
			<point x="239" y="167" type="line"/>
			<point x="92" y="0" type="line"/>
			<point x="202" y="0" type="line"/>
			<point x="477" y="313" type="line"/>
			<point x="199" y="629" type="line"/>
			<point x="89" y="629" type="line"/>
			<point x="237" y="462" type="line"/>
			<point x="-428" y="462" type="line"/>
			<point x="-428" y="380" type="line"/>
			<point x="310" y="380" type="line"/>
			<point x="368" y="314" type="line"/>
			<point x="310" y="249" type="line"/>
			<point x="-428" y="249" type="line"/>
		</contour>
	</outline>
</glyph>
<glyph name="equal_slash_equal.rem" format="2">
	<advance width="600"/>
	<outline>
		<contour>
			<point x="-1028" y="156" type="line"/>
			<point x="-431" y="156" type="line"/>
			<point x="-576" y="-75" type="line"/>
			<point x="-487" y="-75" type="line"/>
			<point x="-342" y="156" type="line"/>
			<point x="428" y="156" type="line"/>
			<point x="428" y="238" type="line"/>
			<point x="-290" y="238" type="line"/>
			<point x="-207" y="370" type="line"/>
			<point x="428" y="370" type="line"/>
			<point x="428" y="452" type="line"/>
			<point x="-156" y="452" type="line"/>
			<point x="-31" y="649" type="line"/>
			<point x="-120" y="649" type="line"/>
			<point x="-244" y="452" type="line"/>
			<point x="-1028" y="452" type="line"/>
			<point x="-1028" y="370" type="line"/>
			<point x="-296" y="370" type="line"/>
			<point x="-379" y="238" type="line"/>
			<point x="-1028" y="238" type="line"/>
		</contour>
	</outline>
</glyph>
<glyph name="exclam_equal.cLig" format="2">
	<advance width="600"/>
	<outline>
		<contour>
			<point x="-428" y="150" type="line"/>
			<point x="-131" y="150" type="line"/>
			<point x="-272" y="-75" type="line"/>
			<point x="-184" y="-75" type="line"/>
			<point x="-42" y="150" type="line"/>
			<point x="428" y="150" type="line"/>
			<point x="428" y="232" type="line"/>
			<point x="10" y="232" type="line"/>
			<point x="93" y="364" type="line"/>
			<point x="428" y="364" type="line"/>
			<point x="428" y="446" type="line"/>
			<point x="144" y="446" type="line"/>
			<point x="272" y="649" type="line"/>
			<point x="184" y="649" type="line"/>
			<point x="56" y="446" type="line"/>
			<point x="-428" y="446" type="line"/>
			<point x="-428" y="364" type="line"/>
			<point x="4" y="364" type="line"/>
			<point x="-79" y="232" type="line"/>
			<point x="-428" y="232" type="line"/>
		</contour>
	</outline>
</glyph>
<glyph name="exclam_equal.med" format="2">
	<advance width="600"/>
	<outline>
		<contour>
			<point x="266" y="202" type="line"/>
			<point x="334" y="202" type="line"/>
			<point x="352" y="542" type="line"/>
			<point x="352" y="684" type="line"/>
			<point x="248" y="684" type="line"/>
			<point x="248" y="542" type="line"/>
		</contour>
		<contour>
			<point x="496" y="380" type="line"/>
			<point x="600" y="380" type="line"/>
			<point x="600" y="462" type="line"/>
			<point x="496" y="462" type="line"/>
		</contour>
		<contour>
			<point x="0" y="380" type="line"/>
			<point x="104" y="380" type="line"/>
			<point x="104" y="462" type="line"/>
			<point x="0" y="462" type="line"/>
		</contour>
		<contour>
			<point x="496" y="167" type="line"/>
			<point x="600" y="167" type="line"/>
			<point x="600" y="249" type="line"/>
			<point x="496" y="249" type="line"/>
		</contour>
		<contour>
			<point x="0" y="167" type="line"/>
			<point x="104" y="167" type="line"/>
			<point x="104" y="249" type="line"/>
			<point x="0" y="249" type="line"/>
		</contour>
		<contour>
			<point x="300" y="-12" type="curve" smooth="yes"/>
			<point x="347" y="-12"/>
			<point x="371" y="6"/>
			<point x="371" y="52" type="curve" smooth="yes"/>
			<point x="371" y="97"/>
			<point x="347" y="115"/>
			<point x="300" y="115" type="curve" smooth="yes"/>
			<point x="253" y="115"/>
			<point x="229" y="97"/>
			<point x="229" y="52" type="curve" smooth="yes"/>
			<point x="229" y="6"/>
			<point x="253" y="-12"/>
		</contour>
	</outline>
</glyph>
<glyph name="grave.cap" format="2">
	<advance width="600"/>
	<outline>
		<contour>
			<point x="383" y="747" type="line"/>
			<point x="321" y="884" type="line"/>
			<point x="216" y="884" type="line"/>
			<point x="308" y="747" type="line"/>
		</contour>
	</outline>
	<anchor name="_top" x="345" y="684"/>
</glyph>
<glyph name="greater_colon.cLig.x" format="2">
	<advance width="600"/>
	<outline>
		<contour>
			<point x="-426" y="-6" type="line"/>
			<point x="18" y="263" type="line"/>
			<point x="18" y="365" type="line"/>
			<point x="-426" y="635" type="line"/>
			<point x="-426" y="538" type="line"/>
			<point x="-52" y="314" type="line"/>
			<point x="-426" y="88" type="line"/>
		</contour>
		<contour>
			<point x="308" y="438" type="curve" smooth="yes"/>
			<point x="359" y="438"/>
			<point x="386" y="457"/>
			<point x="386" y="509" type="curve" smooth="yes"/>
			<point x="386" y="560"/>
			<point x="359" y="579"/>
			<point x="308" y="579" type="curve" smooth="yes"/>
			<point x="257" y="579"/>
			<point x="230" y="560"/>
			<point x="230" y="509" type="curve" smooth="yes"/>
			<point x="230" y="457"/>
			<point x="257" y="438"/>
		</contour>
		<contour>
			<point x="308" y="45" type="curve" smooth="yes"/>
			<point x="359" y="45"/>
			<point x="386" y="63"/>
			<point x="386" y="116" type="curve" smooth="yes"/>
			<point x="386" y="167"/>
			<point x="359" y="185"/>
			<point x="308" y="185" type="curve" smooth="yes"/>
			<point x="257" y="185"/>
			<point x="230" y="167"/>
			<point x="230" y="116" type="curve" smooth="yes"/>
			<point x="230" y="63"/>
			<point x="257" y="45"/>
		</contour>
	</outline>
</glyph>
<glyph name="greater_equal.cLig" format="2">
	<advance width="600"/>
	<outline>
		<contour>
			<point x="-291" y="180" type="line"/>
			<point x="305" y="410" type="line"/>
			<point x="305" y="512" type="line"/>
			<point x="-291" y="743" type="line"/>
			<point x="-291" y="653" type="line"/>
			<point x="226" y="461" type="line"/>
			<point x="-291" y="270" type="line"/>
		</contour>
		<contour>
			<point x="-291" y="-63" type="line"/>
			<point x="305" y="166" type="line"/>
			<point x="305" y="251" type="line"/>
			<point x="-291" y="22" type="line"/>
		</contour>
	</outline>
</glyph>
<glyph name="greater_equal.init" format="2">
	<advance width="600"/>
	<outline>
		<contour>
			<point x="268" y="380" type="line"/>
			<point x="600" y="380" type="line"/>
			<point x="600" y="462" type="line"/>
			<point x="306" y="462" type="line"/>
			<point x="163" y="629" type="line"/>
			<point x="51" y="629" type="line"/>
		</contour>
		<contour>
			<point x="54" y="0" type="line"/>
			<point x="166" y="0" type="line"/>
			<point x="308" y="167" type="line"/>
			<point x="600" y="167" type="line"/>
			<point x="600" y="249" type="line"/>
			<point x="268" y="249" type="line"/>
		</contour>
	</outline>
</glyph>
<glyph name="greater_equal_greater.rem" format="2">
	<advance width="600"/>
	<outline>
		<contour>
			<point x="-1071" y="0" type="line"/>
			<point x="-959" y="0" type="line"/>
			<point x="-817" y="167" type="line"/>
			<point x="247" y="167" type="line"/>
			<point x="100" y="0" type="line"/>
			<point x="210" y="0" type="line"/>
			<point x="485" y="313" type="line"/>
			<point x="207" y="629" type="line"/>
			<point x="97" y="629" type="line"/>
			<point x="245" y="462" type="line"/>
			<point x="-819" y="462" type="line"/>
			<point x="-962" y="629" type="line"/>
			<point x="-1074" y="629" type="line"/>
			<point x="-857" y="380" type="line"/>
			<point x="318" y="380" type="line"/>
			<point x="376" y="314" type="line"/>
			<point x="318" y="249" type="line"/>
			<point x="-857" y="249" type="line"/>
		</contour>
	</outline>
</glyph>
<glyph name="greater_greater_equal.fina" format="2">
	<advance width="600"/>
	<outline>
		<contour>
			<point x="90" y="0" type="line"/>
			<point x="200" y="0" type="line"/>
			<point x="478" y="314" type="line"/>
			<point x="198" y="629" type="line"/>
			<point x="87" y="629" type="line"/>
			<point x="368" y="315" type="line"/>
		</contour>
		<contour>
			<point x="-600" y="167" type="line"/>
			<point x="-138" y="167" type="line"/>
			<point x="-285" y="0" type="line"/>
			<point x="-175" y="0" type="line"/>
			<point x="101" y="313" type="line"/>
			<point x="-178" y="629" type="line"/>
			<point x="-288" y="629" type="line"/>
			<point x="-140" y="462" type="line"/>
			<point x="-600" y="462" type="line"/>
			<point x="-600" y="380" type="line"/>
			<point x="-67" y="380" type="line"/>
			<point x="-8" y="314" type="line"/>
			<point x="-66" y="249" type="line"/>
			<point x="-600" y="249" type="line"/>
		</contour>
	</outline>
</glyph>
<glyph name="greater_greater_equal.init" format="2">
	<advance width="600"/>
	<outline>
		<contour>
			<point x="-519" y="0" type="line"/>
			<point x="-407" y="0" type="line"/>
			<point x="-130" y="313" type="line"/>
			<point x="-410" y="629" type="line"/>
			<point x="-522" y="629" type="line"/>
			<point x="-240" y="314" type="line"/>
		</contour>
		<contour>
			<point x="78" y="380" type="line"/>
			<point x="600" y="380" type="line"/>
			<point x="600" y="462" type="line"/>
			<point x="116" y="462" type="line"/>
			<point x="-27" y="629" type="line"/>
			<point x="-139" y="629" type="line"/>
		</contour>
		<contour>
			<point x="-136" y="0" type="line"/>
			<point x="-24" y="0" type="line"/>
			<point x="118" y="167" type="line"/>
			<point x="600" y="167" type="line"/>
			<point x="600" y="249" type="line"/>
			<point x="78" y="249" type="line"/>
		</contour>
	</outline>
</glyph>
<glyph name="greater_greater_hyphen.fina" format="2">
	<advance width="600"/>
	<outline>
		<contour>
			<point x="90" y="0" type="line"/>
			<point x="200" y="0" type="line"/>
			<point x="479" y="314" type="line"/>
			<point x="197" y="629" type="line"/>
			<point x="87" y="629" type="line"/>
			<point x="366" y="315" type="line"/>
		</contour>
		<contour>
			<point x="-600" y="272" type="line"/>
			<point x="-40" y="272" type="line"/>
			<point x="-287" y="0" type="line"/>
			<point x="-175" y="0" type="line"/>
			<point x="103" y="314" type="line"/>
			<point x="-178" y="629" type="line"/>
			<point x="-290" y="629" type="line"/>
			<point x="-41" y="357" type="line"/>
			<point x="-600" y="357" type="line"/>
		</contour>
	</outline>
</glyph>
<glyph name="greater_greater_hyphen.med" format="2">
	<advance width="600"/>
	<outline>
		<contour>
			<point x="-68" y="0" type="line"/>
			<point x="43" y="0" type="line"/>
			<point x="284" y="272" type="line"/>
			<point x="600" y="272" type="line"/>
			<point x="600" y="357" type="line"/>
			<point x="283" y="357" type="line"/>
			<point x="40" y="629" type="line"/>
			<point x="-71" y="629" type="line"/>
			<point x="209" y="315" type="line"/>
		</contour>
		<contour>
			<point x="-600" y="272" type="line"/>
			<point x="-199" y="272" type="line"/>
			<point x="-446" y="0" type="line"/>
			<point x="-335" y="0" type="line"/>
			<point x="-56" y="314" type="line"/>
			<point x="-338" y="629" type="line"/>
			<point x="-450" y="629" type="line"/>
			<point x="-200" y="357" type="line"/>
			<point x="-600" y="357" type="line"/>
		</contour>
	</outline>
</glyph>
<glyph name="greater_hyphen.rem" format="2">
	<advance width="600"/>
	<outline>
		<contour>
			<point x="-477" y="0" type="line"/>
			<point x="-365" y="0" type="line"/>
			<point x="-126" y="272" type="line"/>
			<point x="34" y="272" type="line"/>
			<point x="34" y="357" type="line"/>
			<point x="-128" y="357" type="line"/>
			<point x="-368" y="629" type="line"/>
			<point x="-480" y="629" type="line"/>
			<point x="-202" y="314" type="line"/>
		</contour>
		<contour>
			<point x="35" y="272" type="line"/>
			<point x="463" y="272" type="line"/>
			<point x="463" y="357" type="line"/>
			<point x="35" y="357" type="line"/>
		</contour>
	</outline>
</glyph>
<glyph name="hyphen_braceright.rem" format="2">
	<advance width="600"/>
	<outline>
		<contour>
			<point x="14" y="-163" type="line"/>
			<point x="163" y="-163" type="line" smooth="yes"/>
			<point x="278" y="-163"/>
			<point x="332" y="-104"/>
			<point x="332" y="-26" type="curve" smooth="yes"/>
			<point x="332" y="66"/>
			<point x="229" y="134"/>
			<point x="229" y="202" type="curve" smooth="yes"/>
			<point x="229" y="234"/>
			<point x="248" y="272"/>
			<point x="315" y="272" type="curve" smooth="yes"/>
			<point x="389" y="272" type="line"/>
			<point x="389" y="355" type="line"/>
			<point x="315" y="355" type="line" smooth="yes"/>
			<point x="248" y="355"/>
			<point x="229" y="392"/>
			<point x="229" y="423" type="curve" smooth="yes"/>
			<point x="229" y="492"/>
			<point x="332" y="559"/>
			<point x="332" y="655" type="curve" smooth="yes"/>
			<point x="332" y="732"/>
			<point x="272" y="792"/>
			<point x="163" y="792" type="curve" smooth="yes"/>
			<point x="14" y="792" type="line"/>
			<point x="14" y="722" type="line"/>
			<point x="139" y="722" type="line" smooth="yes"/>
			<point x="197" y="722"/>
			<point x="237" y="698"/>
			<point x="237" y="646" type="curve" smooth="yes"/>
			<point x="237" y="574"/>
			<point x="136" y="517"/>
			<point x="136" y="435" type="curve" smooth="yes"/>
			<point x="136" y="393"/>
			<point x="165" y="365"/>
			<point x="206" y="353" type="curve"/>
			<point x="-428" y="353" type="line"/>
			<point x="-428" y="276" type="line"/>
			<point x="208" y="276" type="line"/>
			<point x="165" y="262"/>
			<point x="136" y="234"/>
			<point x="136" y="191" type="curve" smooth="yes"/>
			<point x="136" y="107"/>
			<point x="237" y="54"/>
			<point x="237" y="-16" type="curve" smooth="yes"/>
			<point x="237" y="-68"/>
			<point x="199" y="-93"/>
			<point x="136" y="-93" type="curve" smooth="yes"/>
			<point x="14" y="-93" type="line"/>
		</contour>
	</outline>
</glyph>
<glyph name="hyphen_greater_greater.rem" format="2">
	<advance width="600"/>
	<outline>
		<contour>
			<point x="74" y="0" type="line"/>
			<point x="184" y="0" type="line"/>
			<point x="460" y="313" type="line"/>
			<point x="181" y="629" type="line"/>
			<point x="71" y="629" type="line"/>
			<point x="348" y="314" type="line"/>
		</contour>
		<contour>
			<point x="-1043" y="272" type="line"/>
			<point x="-89" y="272" type="line"/>
			<point x="-336" y="0" type="line"/>
			<point x="-224" y="0" type="line"/>
			<point x="54" y="314" type="line"/>
			<point x="-227" y="629" type="line"/>
			<point x="-339" y="629" type="line"/>
			<point x="-89" y="357" type="line"/>
			<point x="-1043" y="357" type="line"/>
		</contour>
	</outline>
</glyph>
<glyph name="hyphen_less.rem" format="2">
	<advance width="600"/>
	<outline>
		<contour>
			<point x="477" y="629" type="line"/>
			<point x="365" y="629" type="line"/>
			<point x="126" y="357" type="line"/>
			<point x="-34" y="357" type="line"/>
			<point x="-34" y="272" type="line"/>
			<point x="128" y="272" type="line"/>
			<point x="368" y="0" type="line"/>
			<point x="480" y="0" type="line"/>
			<point x="202" y="315" type="line"/>
		</contour>
		<contour>
			<point x="-35" y="357" type="line"/>
			<point x="-463" y="357" type="line"/>
			<point x="-463" y="272" type="line"/>
			<point x="-35" y="272" type="line"/>
		</contour>
	</outline>
</glyph>
<glyph name="less_asciitilde.cLig" format="2">
	<advance width="600"/>
	<outline>
		<contour>
			<point x="-115" y="-1" type="line"/>
			<point x="-365" y="271" type="line"/>
			<point x="100" y="271" type="line"/>
			<point x="106" y="317"/>
			<point x="128" y="343"/>
			<point x="160" y="343" type="curve" smooth="yes"/>
			<point x="231" y="343"/>
			<point x="251" y="212"/>
			<point x="364" y="212" type="curve" smooth="yes"/>
			<point x="440" y="212"/>
			<point x="492" y="261"/>
			<point x="492" y="408" type="curve"/>
			<point x="414" y="408" type="line"/>
			<point x="414" y="330"/>
			<point x="398" y="297"/>
			<point x="357" y="297" type="curve"/>
			<point x="286" y="297"/>
			<point x="260" y="428"/>
			<point x="156" y="428" type="curve" smooth="yes"/>
			<point x="104" y="428"/>
			<point x="67" y="403"/>
			<point x="47" y="356" type="curve"/>
			<point x="-366" y="356" type="line"/>
			<point x="-119" y="628" type="line"/>
			<point x="-230" y="628" type="line"/>
			<point x="-508" y="314" type="line"/>
			<point x="-227" y="-1" type="line"/>
		</contour>
	</outline>
</glyph>
<glyph name="less_asciitilde_asciitilde.cLig" format="2">
	<advance width="600"/>
	<outline>
		<contour>
			<point x="-700" y="0" type="line"/>
			<point x="-950" y="272" type="line"/>
			<point x="-587" y="272" type="line"/>
			<point x="-558" y="226"/>
			<point x="-518" y="203"/>
			<point x="-472" y="203" type="curve" smooth="yes"/>
			<point x="-355" y="203"/>
			<point x="-352" y="339"/>
			<point x="-269" y="339" type="curve" smooth="yes"/>
			<point x="-190" y="339"/>
			<point x="-180" y="205"/>
			<point x="-66" y="205" type="curve" smooth="yes"/>
			<point x="49" y="205"/>
			<point x="58" y="340"/>
			<point x="134" y="340" type="curve"/>
			<point x="213" y="340"/>
			<point x="222" y="204"/>
			<point x="344" y="204" type="curve" smooth="yes"/>
			<point x="433" y="204"/>
			<point x="496" y="276"/>
			<point x="513" y="404" type="curve"/>
			<point x="433" y="404" type="line"/>
			<point x="423" y="331"/>
			<point x="389" y="291"/>
			<point x="341" y="291" type="curve" smooth="yes"/>
			<point x="259" y="291"/>
			<point x="250" y="425"/>
			<point x="134" y="425" type="curve"/>
			<point x="19" y="425"/>
			<point x="18" y="291"/>
			<point x="-64" y="291" type="curve" smooth="yes"/>
			<point x="-144" y="291"/>
			<point x="-151" y="425"/>
			<point x="-266" y="425" type="curve" smooth="yes"/>
			<point x="-385" y="425"/>
			<point x="-383" y="288"/>
			<point x="-466" y="288" type="curve" smooth="yes"/>
			<point x="-504" y="288"/>
			<point x="-529" y="313"/>
			<point x="-547" y="357" type="curve"/>
			<point x="-951" y="357" type="line"/>
			<point x="-704" y="629" type="line"/>
			<point x="-815" y="629" type="line"/>
			<point x="-1094" y="315" type="line"/>
			<point x="-812" y="0" type="line"/>
		</contour>
	</outline>
</glyph>
<glyph name="less_asterisk.cLig" format="2">
	<advance width="600"/>
	<outline>
		<contour>
			<point x="-56" y="-6" type="line"/>
			<point x="-56" y="90" type="line"/>
			<point x="-431" y="314" type="line"/>
			<point x="-56" y="539" type="line"/>
			<point x="-56" y="635" type="line"/>
			<point x="-500" y="365" type="line"/>
			<point x="-500" y="263" type="line"/>
		</contour>
		<contour>
			<point x="434" y="155" type="line"/>
			<point x="482" y="237" type="line"/>
			<point x="300" y="315" type="line"/>
			<point x="482" y="394" type="line"/>
			<point x="435" y="477" type="line"/>
			<point x="275" y="358" type="line"/>
			<point x="298" y="555" type="line"/>
			<point x="202" y="555" type="line"/>
			<point x="225" y="358" type="line"/>
			<point x="65" y="477" type="line"/>
			<point x="17" y="394" type="line"/>
			<point x="200" y="315" type="line"/>
			<point x="18" y="237" type="line"/>
			<point x="66" y="154" type="line"/>
			<point x="225" y="272" type="line"/>
			<point x="203" y="75" type="line"/>
			<point x="299" y="75" type="line"/>
			<point x="275" y="272" type="line"/>
		</contour>
	</outline>
</glyph>
<glyph name="less_bar_bar_bar.cLig" format="2">
	<advance width="600"/>
	<outline>
		<contour>
			<point x="-319" y="708" type="line"/>
			<point x="-407" y="708" type="line"/>
			<point x="-407" y="-79" type="line"/>
			<point x="-319" y="-79" type="line"/>
		</contour>
		<contour>
			<point x="256" y="708" type="line"/>
			<point x="168" y="708" type="line"/>
			<point x="168" y="-79" type="line"/>
			<point x="256" y="-79" type="line"/>
		</contour>
		<contour>
			<point x="-893" y="708" type="line"/>
			<point x="-981" y="708" type="line"/>
			<point x="-1524" y="366" type="line"/>
			<point x="-1524" y="263" type="line"/>
			<point x="-981" y="-79" type="line"/>
			<point x="-893" y="-79" type="line"/>
		</contour>
		<contour>
			<point x="-981" y="22" type="line"/>
			<point x="-1450" y="314" type="line"/>
			<point x="-981" y="608" type="line"/>
		</contour>
	</outline>
</glyph>
<glyph name="less_bar_greater.cLig" format="2">
	<advance width="600"/>
	<outline>
		<contour>
			<point x="-344" y="-162" type="line"/>
			<point x="-256" y="-162" type="line"/>
			<point x="-256" y="792" type="line"/>
			<point x="-344" y="792" type="line"/>
		</contour>
		<contour>
			<point x="-506" y="-78" type="line"/>
			<point x="-506" y="22" type="line"/>
			<point x="-969" y="316" type="line"/>
			<point x="-506" y="606" type="line"/>
			<point x="-506" y="708" type="line"/>
			<point x="-1050" y="365" type="line"/>
			<point x="-1050" y="264" type="line"/>
		</contour>
		<contour>
			<point x="-94" y="-78" type="line"/>
			<point x="450" y="264" type="line"/>
			<point x="450" y="365" type="line"/>
			<point x="-94" y="708" type="line"/>
			<point x="-94" y="607" type="line"/>
			<point x="369" y="313" type="line"/>
			<point x="-94" y="24" type="line"/>
		</contour>
	</outline>
</glyph>
<glyph name="less_dollar.cLig" format="2">
	<advance width="600"/>
	<outline>
		<contour>
			<point x="159" y="-93" type="line"/>
			<point x="229" y="-93" type="line"/>
			<point x="241" y="-11" type="line"/>
			<point x="249" y="-12"/>
			<point x="256" y="-12"/>
			<point x="264" y="-12" type="curve" smooth="yes"/>
			<point x="409" y="-11"/>
			<point x="513" y="65"/>
			<point x="513" y="202" type="curve" smooth="yes"/>
			<point x="513" y="337"/>
			<point x="411" y="363"/>
			<point x="299" y="382" type="curve"/>
			<point x="336" y="612" type="line"/>
			<point x="393" y="602"/>
			<point x="450" y="580"/>
			<point x="495" y="545" type="curve"/>
			<point x="495" y="631" type="line"/>
			<point x="461" y="656"/>
			<point x="413" y="677"/>
			<point x="353" y="688" type="curve"/>
			<point x="366" y="774" type="line"/>
			<point x="297" y="774" type="line"/>
			<point x="285" y="695" type="line"/>
			<point x="277" y="696"/>
			<point x="270" y="696"/>
			<point x="262" y="696" type="curve" smooth="yes"/>
			<point x="120" y="696"/>
			<point x="20" y="623"/>
			<point x="20" y="488" type="curve" smooth="yes"/>
			<point x="20" y="352"/>
			<point x="115" y="321"/>
			<point x="227" y="302" type="curve"/>
			<point x="190" y="72" type="line"/>
			<point x="116" y="83"/>
			<point x="30" y="109"/>
			<point x="-64" y="151" type="curve" smooth="yes"/>
			<point x="-433" y="316" type="line"/>
			<point x="-91" y="492" type="line"/>
			<point x="-91" y="585" type="line"/>
			<point x="-511" y="365" type="line"/>
			<point x="-511" y="263" type="line"/>
			<point x="-99" y="74" type="line" smooth="yes"/>
			<point x="-2" y="31"/>
			<point x="88" y="5"/>
			<point x="173" y="-6" type="curve"/>
		</contour>
		<contour>
			<point x="114" y="497" type="curve" smooth="yes"/>
			<point x="114" y="578"/>
			<point x="174" y="619"/>
			<point x="260" y="619" type="curve" smooth="yes"/>
			<point x="278" y="619" type="line"/>
			<point x="241" y="391" type="line"/>
			<point x="166" y="404"/>
			<point x="114" y="423"/>
		</contour>
		<contour>
			<point x="418" y="191" type="curve" smooth="yes"/>
			<point x="418" y="106"/>
			<point x="355" y="67"/>
			<point x="262" y="67" type="curve" smooth="yes"/>
			<point x="249" y="67" type="line"/>
			<point x="284" y="293" type="line"/>
			<point x="363" y="281"/>
			<point x="418" y="265"/>
		</contour>
	</outline>
</glyph>
<glyph name="less_hyphen_greater.rem" format="2">
	<advance width="600"/>
	<outline>
		<contour>
			<point x="-681" y="0" type="line"/>
			<point x="-931" y="272" type="line"/>
			<point x="332" y="272" type="line"/>
			<point x="85" y="0" type="line"/>
			<point x="196" y="0" type="line"/>
			<point x="474" y="314" type="line"/>
			<point x="193" y="629" type="line"/>
			<point x="81" y="629" type="line"/>
			<point x="331" y="357" type="line"/>
			<point x="-932" y="357" type="line"/>
			<point x="-685" y="629" type="line"/>
			<point x="-796" y="629" type="line"/>
			<point x="-1074" y="315" type="line"/>
			<point x="-793" y="0" type="line"/>
		</contour>
	</outline>
</glyph>
<glyph name="less_hyphen_hyphen.rem" format="2">
	<advance width="600"/>
	<outline>
		<contour>
			<point x="-645" y="0" type="line"/>
			<point x="-895" y="272" type="line"/>
			<point x="428" y="272" type="line"/>
			<point x="428" y="357" type="line"/>
			<point x="-896" y="357" type="line"/>
			<point x="-649" y="629" type="line"/>
			<point x="-760" y="629" type="line"/>
			<point x="-1038" y="315" type="line"/>
			<point x="-757" y="0" type="line"/>
		</contour>
	</outline>
</glyph>
<glyph name="less_less.cLig" format="2">
	<advance width="600"/>
	<outline>
		<contour>
			<point x="-64" y="46" type="line"/>
			<point x="-64" y="141" type="line"/>
			<point x="-439" y="311" type="line"/>
			<point x="-64" y="482" type="line"/>
			<point x="-64" y="576" type="line"/>
			<point x="-516" y="362" type="line"/>
			<point x="-516" y="260" type="line"/>
		</contour>
		<contour>
			<point x="506" y="46" type="line"/>
			<point x="506" y="141" type="line"/>
			<point x="131" y="311" type="line"/>
			<point x="506" y="482" type="line"/>
			<point x="506" y="576" type="line"/>
			<point x="54" y="362" type="line"/>
			<point x="54" y="260" type="line"/>
		</contour>
	</outline>
</glyph>
<glyph name="less_less_equal.rem" format="2">
	<advance width="600"/>
	<outline>
		<contour>
			<point x="-675" y="629" type="line"/>
			<point x="-785" y="629" type="line"/>
			<point x="-1063" y="315" type="line"/>
			<point x="-783" y="0" type="line"/>
			<point x="-672" y="0" type="line"/>
			<point x="-953" y="314" type="line"/>
		</contour>
		<contour>
			<point x="428" y="462" type="line"/>
			<point x="-447" y="462" type="line"/>
			<point x="-300" y="629" type="line"/>
			<point x="-410" y="629" type="line"/>
			<point x="-686" y="316" type="line"/>
			<point x="-407" y="0" type="line"/>
			<point x="-297" y="0" type="line"/>
			<point x="-445" y="167" type="line"/>
			<point x="428" y="167" type="line"/>
			<point x="428" y="249" type="line"/>
			<point x="-518" y="249" type="line"/>
			<point x="-577" y="315" type="line"/>
			<point x="-519" y="380" type="line"/>
			<point x="428" y="380" type="line"/>
		</contour>
	</outline>
</glyph>
<glyph name="less_less_hyphen.med" format="2">
	<advance width="600"/>
	<outline>
		<contour>
			<point x="68" y="629" type="line"/>
			<point x="-43" y="629" type="line"/>
			<point x="-284" y="357" type="line"/>
			<point x="-600" y="357" type="line"/>
			<point x="-600" y="272" type="line"/>
			<point x="-283" y="272" type="line"/>
			<point x="-40" y="0" type="line"/>
			<point x="71" y="0" type="line"/>
			<point x="-209" y="314" type="line"/>
		</contour>
		<contour>
			<point x="600" y="357" type="line"/>
			<point x="199" y="357" type="line"/>
			<point x="446" y="629" type="line"/>
			<point x="335" y="629" type="line"/>
			<point x="56" y="315" type="line"/>
			<point x="338" y="0" type="line"/>
			<point x="450" y="0" type="line"/>
			<point x="200" y="272" type="line"/>
			<point x="600" y="272" type="line"/>
		</contour>
	</outline>
</glyph>
<glyph name="less_plus.cLig" format="2">
	<advance width="600"/>
	<outline>
		<contour>
			<point x="-42" y="-6" type="line"/>
			<point x="-42" y="90" type="line"/>
			<point x="-417" y="313" type="line"/>
			<point x="-42" y="539" type="line"/>
			<point x="-42" y="635" type="line"/>
			<point x="-486" y="365" type="line"/>
			<point x="-486" y="263" type="line"/>
		</contour>
		<contour>
			<point x="216" y="537" type="line"/>
			<point x="216" y="350" type="line"/>
			<point x="32" y="350" type="line"/>
			<point x="32" y="268" type="line"/>
			<point x="216" y="268" type="line"/>
			<point x="216" y="81" type="line"/>
			<point x="299" y="81" type="line"/>
			<point x="299" y="268" type="line"/>
			<point x="484" y="268" type="line"/>
			<point x="484" y="350" type="line"/>
			<point x="299" y="350" type="line"/>
			<point x="299" y="537" type="line"/>
		</contour>
	</outline>
</glyph>
<glyph name="less_question.cLig" format="2">
	<advance width="600"/>
	<outline>
		<contour>
			<point x="-82" y="494" type="line" smooth="yes"/>
			<point x="78" y="582"/>
			<point x="172" y="615"/>
			<point x="250" y="615" type="curve"/>
			<point x="331" y="615"/>
			<point x="371" y="582"/>
			<point x="371" y="526" type="curve" smooth="yes"/>
			<point x="371" y="410"/>
			<point x="182" y="405"/>
			<point x="182" y="244" type="curve" smooth="yes"/>
			<point x="182" y="230"/>
			<point x="183" y="216"/>
			<point x="185" y="202" type="curve"/>
			<point x="268" y="202" type="line"/>
			<point x="269" y="245" type="line" smooth="yes"/>
			<point x="271" y="365"/>
			<point x="466" y="383"/>
			<point x="466" y="538" type="curve" smooth="yes"/>
			<point x="466" y="634"/>
			<point x="395" y="698"/>
			<point x="260" y="698" type="curve"/>
			<point x="150" y="698"/>
			<point x="43" y="654"/>
			<point x="-96" y="578" type="curve" smooth="yes"/>
			<point x="-487" y="365" type="line"/>
			<point x="-487" y="263" type="line"/>
			<point x="-51" y="21" type="line"/>
			<point x="-51" y="116" type="line"/>
			<point x="-415" y="314" type="line"/>
		</contour>
		<contour>
			<point x="228" y="-12" type="curve" smooth="yes"/>
			<point x="274" y="-12"/>
			<point x="298" y="6"/>
			<point x="298" y="52" type="curve" smooth="yes"/>
			<point x="298" y="97"/>
			<point x="274" y="115"/>
			<point x="228" y="115" type="curve" smooth="yes"/>
			<point x="180" y="115"/>
			<point x="157" y="97"/>
			<point x="157" y="52" type="curve" smooth="yes"/>
			<point x="157" y="6"/>
			<point x="181" y="-12"/>
		</contour>
	</outline>
</glyph>
<glyph name="less_slash.cLig" format="2">
	<advance width="600"/>
	<outline>
		<contour>
			<point x="-50" y="582" type="line"/>
			<point x="-494" y="366" type="line"/>
			<point x="-494" y="263" type="line"/>
			<point x="85" y="-23" type="line"/>
			<point x="31" y="-163" type="line"/>
			<point x="123" y="-163" type="line"/>
			<point x="497" y="792" type="line"/>
			<point x="404" y="792" type="line"/>
			<point x="116" y="54" type="line"/>
			<point x="-415" y="316" type="line"/>
			<point x="-50" y="489" type="line"/>
		</contour>
	</outline>
</glyph>
<glyph name="less_slash_greater.cLig" format="2">
	<advance width="600"/>
	<outline>
		<contour>
			<point x="14" y="47" type="line"/>
			<point x="458" y="263" type="line"/>
			<point x="458" y="366" type="line"/>
			<point x="-121" y="652" type="line"/>
			<point x="-66" y="792" type="line"/>
			<point x="-160" y="792" type="line"/>
			<point x="-448" y="53" type="line"/>
			<point x="-979" y="315" type="line"/>
			<point x="-614" y="488" type="line"/>
			<point x="-614" y="581" type="line"/>
			<point x="-1058" y="365" type="line"/>
			<point x="-1058" y="263" type="line"/>
			<point x="-478" y="-23" type="line"/>
			<point x="-533" y="-163" type="line"/>
			<point x="-441" y="-163" type="line"/>
			<point x="-151" y="576" type="line"/>
			<point x="378" y="314" type="line"/>
			<point x="14" y="141" type="line"/>
		</contour>
	</outline>
</glyph>
<glyph name="lslashcomb" format="2">
	<advance width="600"/>
	<outline>
		<contour>
			<point x="32" y="371" type="line"/>
			<point x="454" y="533" type="line"/>
			<point x="454" y="605" type="line"/>
			<point x="32" y="442" type="line"/>
		</contour>
	</outline>
	<anchor name="_center" x="241" y="486"/>
	<guideline x="325.107913669" y="539.8992805755" angle="21.6628"/>
</glyph>
<glyph name="nine.den" format="2">
	<advance width="600"/>
	<outline>
		<contour>
			<point x="276" y="-8" type="curve" smooth="yes"/>
			<point x="420" y="-8"/>
			<point x="456" y="100"/>
			<point x="456" y="222" type="curve" smooth="yes"/>
			<point x="456" y="337"/>
			<point x="424" y="418"/>
			<point x="298" y="418" type="curve" smooth="yes"/>
			<point x="200" y="418"/>
			<point x="145" y="354"/>
			<point x="145" y="270" type="curve" smooth="yes"/>
			<point x="145" y="197"/>
			<point x="184" y="142"/>
			<point x="271" y="142" type="curve" smooth="yes"/>
			<point x="325" y="142"/>
			<point x="363" y="167"/>
			<point x="384" y="217" type="curve"/>
			<point x="383" y="104"/>
			<point x="359" y="48"/>
			<point x="269" y="48" type="curve" smooth="yes"/>
			<point x="230" y="48"/>
			<point x="182" y="64"/>
			<point x="154" y="87" type="curve"/>
			<point x="154" y="25" type="line"/>
			<point x="180" y="8"/>
			<point x="230" y="-8"/>
		</contour>
		<contour>
			<point x="296" y="192" type="curve" smooth="yes"/>
			<point x="243" y="192"/>
			<point x="214" y="219"/>
			<point x="214" y="274" type="curve" smooth="yes"/>
			<point x="214" y="334"/>
			<point x="246" y="366"/>
			<point x="298" y="366" type="curve" smooth="yes"/>
			<point x="355" y="366"/>
			<point x="384" y="328"/>
			<point x="384" y="274" type="curve" smooth="yes"/>
			<point x="384" y="219"/>
			<point x="347" y="192"/>
		</contour>
	</outline>
</glyph>
<glyph name="nine.numr" format="2">
	<advance width="600"/>
	<outline>
		<contour>
			<point x="280" y="366" type="curve" smooth="yes"/>
			<point x="401" y="366"/>
			<point x="433" y="456"/>
			<point x="433" y="557" type="curve" smooth="yes"/>
			<point x="433" y="655"/>
			<point x="405" y="724"/>
			<point x="300" y="724" type="curve" smooth="yes"/>
			<point x="216" y="724"/>
			<point x="169" y="670"/>
			<point x="169" y="600" type="curve" smooth="yes"/>
			<point x="169" y="536"/>
			<point x="201" y="491"/>
			<point x="272" y="491" type="curve" smooth="yes"/>
			<point x="322" y="491"/>
			<point x="354" y="515"/>
			<point x="371" y="556" type="curve"/>
			<point x="369" y="463"/>
			<point x="348" y="415"/>
			<point x="273" y="415" type="curve" smooth="yes"/>
			<point x="239" y="415"/>
			<point x="199" y="429"/>
			<point x="177" y="448" type="curve"/>
			<point x="177" y="393" type="line"/>
			<point x="199" y="378"/>
			<point x="241" y="366"/>
		</contour>
		<contour>
			<point x="297" y="536" type="curve" smooth="yes"/>
			<point x="254" y="536"/>
			<point x="229" y="557"/>
			<point x="229" y="602" type="curve" smooth="yes"/>
			<point x="229" y="651"/>
			<point x="256" y="677"/>
			<point x="299" y="677" type="curve" smooth="yes"/>
			<point x="344" y="677"/>
			<point x="369" y="647"/>
			<point x="369" y="603" type="curve" smooth="yes"/>
			<point x="369" y="558"/>
			<point x="339" y="536"/>
		</contour>
	</outline>
</glyph>
<glyph name="numbersign.fina" format="2">
	<advance width="600"/>
	<outline>
		<contour>
			<point x="0" y="241" type="line"/>
			<point x="0" y="167" type="line"/>
			<point x="130" y="167" type="line"/>
			<point x="114" y="0" type="line"/>
			<point x="192" y="0" type="line"/>
			<point x="208" y="167" type="line"/>
			<point x="345" y="167" type="line"/>
			<point x="329" y="0" type="line"/>
			<point x="405" y="0" type="line"/>
			<point x="421" y="167" type="line"/>
			<point x="534" y="167" type="line"/>
			<point x="534" y="241" type="line"/>
			<point x="428" y="241" type="line"/>
			<point x="449" y="454" type="line"/>
			<point x="558" y="454" type="line"/>
			<point x="558" y="529" type="line"/>
			<point x="456" y="529" type="line"/>
			<point x="471" y="684" type="line"/>
			<point x="393" y="684" type="line"/>
			<point x="379" y="529" type="line"/>
			<point x="242" y="529" type="line"/>
			<point x="256" y="684" type="line"/>
			<point x="180" y="684" type="line"/>
			<point x="165" y="529" type="line"/>
			<point x="0" y="529" type="line"/>
			<point x="0" y="454" type="line"/>
			<point x="158" y="454" type="line"/>
			<point x="137" y="241" type="line"/>
		</contour>
		<contour>
			<point x="215" y="241" type="line"/>
			<point x="235" y="454" type="line"/>
			<point x="372" y="454" type="line"/>
			<point x="352" y="241" type="line"/>
		</contour>
	</outline>
</glyph>
<glyph name="numbersign_braceright.cLig" format="2">
	<advance width="600"/>
	<outline>
		<contour>
			<point x="477" y="357" type="line"/>
			<point x="416" y="357" type="line" smooth="yes"/>
			<point x="344" y="357"/>
			<point x="322" y="396"/>
			<point x="322" y="426" type="curve" smooth="yes"/>
			<point x="322" y="495"/>
			<point x="427" y="558"/>
			<point x="427" y="652" type="curve" smooth="yes"/>
			<point x="427" y="730"/>
			<point x="374" y="792"/>
			<point x="258" y="792" type="curve" smooth="yes"/>
			<point x="109" y="792" type="line"/>
			<point x="109" y="722" type="line"/>
			<point x="232" y="722" type="line" smooth="yes"/>
			<point x="296" y="722"/>
			<point x="333" y="696"/>
			<point x="333" y="642" type="curve" smooth="yes"/>
			<point x="333" y="571"/>
			<point x="228" y="514"/>
			<point x="228" y="423" type="curve" smooth="yes"/>
			<point x="228" y="368"/>
			<point x="279" y="326"/>
			<point x="348" y="315" type="curve"/>
			<point x="279" y="304"/>
			<point x="228" y="263"/>
			<point x="228" y="208" type="curve" smooth="yes"/>
			<point x="228" y="117"/>
			<point x="333" y="59"/>
			<point x="333" y="-14" type="curve" smooth="yes"/>
			<point x="333" y="-69"/>
			<point x="293" y="-93"/>
			<point x="234" y="-93" type="curve" smooth="yes"/>
			<point x="109" y="-93" type="line"/>
			<point x="109" y="-163" type="line"/>
			<point x="258" y="-163" type="line" smooth="yes"/>
			<point x="368" y="-163"/>
			<point x="427" y="-100"/>
			<point x="427" y="-24" type="curve" smooth="yes"/>
			<point x="427" y="71"/>
			<point x="322" y="135"/>
			<point x="322" y="205" type="curve" smooth="yes"/>
			<point x="322" y="235"/>
			<point x="343" y="274"/>
			<point x="416" y="274" type="curve" smooth="yes"/>
			<point x="477" y="274" type="line"/>
		</contour>
		<contour>
			<point x="-460" y="241" type="line"/>
			<point x="-460" y="167" type="line"/>
			<point x="-358" y="167" type="line"/>
			<point x="-374" y="0" type="line"/>
			<point x="-295" y="0" type="line"/>
			<point x="-280" y="167" type="line"/>
			<point x="-143" y="167" type="line"/>
			<point x="-159" y="0" type="line"/>
			<point x="-83" y="0" type="line"/>
			<point x="-67" y="167" type="line"/>
			<point x="98" y="167" type="line"/>
			<point x="98" y="241" type="line"/>
			<point x="-60" y="241" type="line"/>
			<point x="-39" y="454" type="line"/>
			<point x="98" y="454" type="line"/>
			<point x="98" y="529" type="line"/>
			<point x="-32" y="529" type="line"/>
			<point x="-17" y="684" type="line"/>
			<point x="-94" y="684" type="line"/>
			<point x="-109" y="529" type="line"/>
			<point x="-246" y="529" type="line"/>
			<point x="-231" y="684" type="line"/>
			<point x="-308" y="684" type="line"/>
			<point x="-323" y="529" type="line"/>
			<point x="-436" y="529" type="line"/>
			<point x="-436" y="454" type="line"/>
			<point x="-330" y="454" type="line"/>
			<point x="-350" y="241" type="line"/>
		</contour>
		<contour>
			<point x="-273" y="241" type="line"/>
			<point x="-253" y="454" type="line"/>
			<point x="-116" y="454" type="line"/>
			<point x="-136" y="241" type="line"/>
		</contour>
	</outline>
</glyph>
<glyph name="numbersign_bracketleft.cLig" format="2">
	<advance width="600"/>
	<outline>
		<contour>
			<point x="-478" y="241" type="line"/>
			<point x="-478" y="167" type="line"/>
			<point x="-376" y="167" type="line"/>
			<point x="-392" y="0" type="line"/>
			<point x="-314" y="0" type="line"/>
			<point x="-298" y="167" type="line"/>
			<point x="-161" y="167" type="line"/>
			<point x="-177" y="0" type="line"/>
			<point x="-101" y="0" type="line"/>
			<point x="-85" y="167" type="line"/>
			<point x="178" y="167" type="line"/>
			<point x="178" y="-163" type="line"/>
			<point x="469" y="-163" type="line"/>
			<point x="469" y="-93" type="line"/>
			<point x="266" y="-93" type="line"/>
			<point x="266" y="722" type="line"/>
			<point x="469" y="722" type="line"/>
			<point x="469" y="792" type="line"/>
			<point x="178" y="792" type="line"/>
			<point x="178" y="529" type="line"/>
			<point x="-50" y="529" type="line"/>
			<point x="-35" y="684" type="line"/>
			<point x="-113" y="684" type="line"/>
			<point x="-127" y="529" type="line"/>
			<point x="-264" y="529" type="line"/>
			<point x="-250" y="684" type="line"/>
			<point x="-326" y="684" type="line"/>
			<point x="-341" y="529" type="line"/>
			<point x="-454" y="529" type="line"/>
			<point x="-454" y="454" type="line"/>
			<point x="-348" y="454" type="line"/>
			<point x="-369" y="241" type="line"/>
		</contour>
		<contour>
			<point x="-291" y="241" type="line"/>
			<point x="-271" y="454" type="line"/>
			<point x="-134" y="454" type="line"/>
			<point x="-154" y="241" type="line"/>
		</contour>
		<contour>
			<point x="-78" y="241" type="line"/>
			<point x="-57" y="454" type="line"/>
			<point x="178" y="454" type="line"/>
			<point x="178" y="241" type="line"/>
		</contour>
	</outline>
</glyph>
<glyph name="numbersign_equal.cLig" format="2">
	<advance width="600"/>
	<outline>
		<contour>
			<point x="-513" y="270" type="line"/>
			<point x="-513" y="195" type="line"/>
			<point x="-407" y="195" type="line"/>
			<point x="-426" y="0" type="line"/>
			<point x="-348" y="0" type="line"/>
			<point x="-329" y="195" type="line"/>
			<point x="-193" y="195" type="line"/>
			<point x="-211" y="0" type="line"/>
			<point x="-135" y="0" type="line"/>
			<point x="-116" y="195" type="line"/>
			<point x="0" y="195" type="line"/>
			<point x="0" y="270" type="line"/>
			<point x="-109" y="270" type="line"/>
			<point x="-94" y="426" type="line"/>
			<point x="0" y="426" type="line"/>
			<point x="0" y="500" type="line"/>
			<point x="-87" y="500" type="line"/>
			<point x="-69" y="684" type="line"/>
			<point x="-147" y="684" type="line"/>
			<point x="-164" y="500" type="line"/>
			<point x="-301" y="500" type="line"/>
			<point x="-284" y="684" type="line"/>
			<point x="-360" y="684" type="line"/>
			<point x="-378" y="500" type="line"/>
			<point x="-488" y="500" type="line"/>
			<point x="-488" y="426" type="line"/>
			<point x="-385" y="426" type="line"/>
			<point x="-400" y="270" type="line"/>
		</contour>
		<contour>
			<point x="122" y="419" type="line"/>
			<point x="511" y="419" type="line"/>
			<point x="511" y="500" type="line"/>
			<point x="122" y="500" type="line"/>
		</contour>
		<contour>
			<point x="-323" y="270" type="line"/>
			<point x="-308" y="426" type="line"/>
			<point x="-171" y="426" type="line"/>
			<point x="-186" y="270" type="line"/>
		</contour>
		<contour>
			<point x="122" y="195" type="line"/>
			<point x="511" y="195" type="line"/>
			<point x="511" y="277" type="line"/>
			<point x="122" y="277" type="line"/>
		</contour>
	</outline>
</glyph>
<glyph name="numbersign_exclam.cLig" format="2">
	<advance width="600"/>
	<outline>
		<contour>
			<point x="313" y="202" type="line"/>
			<point x="381" y="202" type="line"/>
			<point x="399" y="542" type="line"/>
			<point x="399" y="684" type="line"/>
			<point x="295" y="684" type="line"/>
			<point x="295" y="542" type="line"/>
		</contour>
		<contour>
			<point x="347" y="-12" type="curve" smooth="yes"/>
			<point x="394" y="-12"/>
			<point x="418" y="6"/>
			<point x="418" y="52" type="curve" smooth="yes"/>
			<point x="418" y="97"/>
			<point x="394" y="115"/>
			<point x="347" y="115" type="curve" smooth="yes"/>
			<point x="300" y="115"/>
			<point x="276" y="97"/>
			<point x="276" y="52" type="curve" smooth="yes"/>
			<point x="276" y="6"/>
			<point x="300" y="-12"/>
		</contour>
		<contour>
			<point x="-458" y="241" type="line"/>
			<point x="-458" y="167" type="line"/>
			<point x="-356" y="167" type="line"/>
			<point x="-372" y="0" type="line"/>
			<point x="-293" y="0" type="line"/>
			<point x="-278" y="167" type="line"/>
			<point x="-141" y="167" type="line"/>
			<point x="-157" y="0" type="line"/>
			<point x="-81" y="0" type="line"/>
			<point x="-65" y="167" type="line"/>
			<point x="100" y="167" type="line"/>
			<point x="100" y="241" type="line"/>
			<point x="-58" y="241" type="line"/>
			<point x="-37" y="454" type="line"/>
			<point x="100" y="454" type="line"/>
			<point x="100" y="529" type="line"/>
			<point x="-30" y="529" type="line"/>
			<point x="-15" y="684" type="line"/>
			<point x="-92" y="684" type="line"/>
			<point x="-107" y="529" type="line"/>
			<point x="-244" y="529" type="line"/>
			<point x="-229" y="684" type="line"/>
			<point x="-306" y="684" type="line"/>
			<point x="-321" y="529" type="line"/>
			<point x="-434" y="529" type="line"/>
			<point x="-434" y="454" type="line"/>
			<point x="-328" y="454" type="line"/>
			<point x="-348" y="241" type="line"/>
		</contour>
		<contour>
			<point x="-271" y="241" type="line"/>
			<point x="-251" y="454" type="line"/>
			<point x="-114" y="454" type="line"/>
			<point x="-134" y="241" type="line"/>
		</contour>
	</outline>
</glyph>
<glyph name="numbersign_numbersign.cLig.x" format="2">
	<advance width="600"/>
	<outline>
		<contour>
			<point x="-498" y="167" type="line"/>
			<point x="-363" y="167" type="line"/>
			<point x="-379" y="0" type="line"/>
			<point x="-301" y="0" type="line"/>
			<point x="-285" y="167" type="line"/>
			<point x="-54" y="167" type="line"/>
			<point x="-70" y="0" type="line"/>
			<point x="6" y="0" type="line"/>
			<point x="22" y="167" type="line"/>
			<point x="254" y="167" type="line"/>
			<point x="238" y="0" type="line"/>
			<point x="314" y="0" type="line"/>
			<point x="330" y="167" type="line"/>
			<point x="475" y="167" type="line"/>
			<point x="475" y="241" type="line"/>
			<point x="337" y="241" type="line"/>
			<point x="358" y="454" type="line"/>
			<point x="499" y="454" type="line"/>
			<point x="499" y="529" type="line"/>
			<point x="365" y="529" type="line"/>
			<point x="380" y="684" type="line"/>
			<point x="303" y="684" type="line"/>
			<point x="288" y="529" type="line"/>
			<point x="57" y="529" type="line"/>
			<point x="72" y="684" type="line"/>
			<point x="-5" y="684" type="line"/>
			<point x="-20" y="529" type="line"/>
			<point x="-251" y="529" type="line"/>
			<point x="-237" y="684" type="line"/>
			<point x="-313" y="684" type="line"/>
			<point x="-328" y="529" type="line"/>
			<point x="-474" y="529" type="line"/>
			<point x="-474" y="454" type="line"/>
			<point x="-335" y="454" type="line"/>
			<point x="-356" y="241" type="line"/>
			<point x="-498" y="241" type="line"/>
		</contour>
		<contour>
			<point x="-278" y="241" type="line"/>
			<point x="-258" y="454" type="line"/>
			<point x="-27" y="454" type="line"/>
			<point x="-47" y="241" type="line"/>
		</contour>
		<contour>
			<point x="30" y="241" type="line"/>
			<point x="50" y="454" type="line"/>
			<point x="281" y="454" type="line"/>
			<point x="261" y="241" type="line"/>
		</contour>
	</outline>
</glyph>
<glyph name="numbersign_numbersign_numbersign.cLig.x" format="2">
	<advance width="600"/>
	<outline>
		<contour>
			<point x="-1060" y="167" type="line"/>
			<point x="-885" y="167" type="line"/>
			<point x="-901" y="0" type="line"/>
			<point x="-822" y="0" type="line"/>
			<point x="-807" y="167" type="line"/>
			<point x="-531" y="167" type="line"/>
			<point x="-547" y="0" type="line"/>
			<point x="-471" y="0" type="line"/>
			<point x="-455" y="167" type="line"/>
			<point x="-178" y="167" type="line"/>
			<point x="-194" y="0" type="line"/>
			<point x="-118" y="0" type="line"/>
			<point x="-102" y="167" type="line"/>
			<point x="174" y="167" type="line"/>
			<point x="158" y="0" type="line"/>
			<point x="234" y="0" type="line"/>
			<point x="250" y="167" type="line"/>
			<point x="436" y="167" type="line"/>
			<point x="436" y="241" type="line"/>
			<point x="257" y="241" type="line"/>
			<point x="278" y="454" type="line"/>
			<point x="460" y="454" type="line"/>
			<point x="460" y="529" type="line"/>
			<point x="285" y="529" type="line"/>
			<point x="300" y="684" type="line"/>
			<point x="223" y="684" type="line"/>
			<point x="208" y="529" type="line"/>
			<point x="-67" y="529" type="line"/>
			<point x="-53" y="684" type="line"/>
			<point x="-130" y="684" type="line"/>
			<point x="-144" y="529" type="line"/>
			<point x="-420" y="529" type="line"/>
			<point x="-405" y="684" type="line"/>
			<point x="-483" y="684" type="line"/>
			<point x="-497" y="529" type="line"/>
			<point x="-773" y="529" type="line"/>
			<point x="-758" y="684" type="line"/>
			<point x="-835" y="684" type="line"/>
			<point x="-850" y="529" type="line"/>
			<point x="-1036" y="529" type="line"/>
			<point x="-1036" y="454" type="line"/>
			<point x="-857" y="454" type="line"/>
			<point x="-878" y="241" type="line"/>
			<point x="-1060" y="241" type="line"/>
		</contour>
		<contour>
			<point x="-800" y="241" type="line"/>
			<point x="-780" y="454" type="line"/>
			<point x="-504" y="454" type="line"/>
			<point x="-524" y="241" type="line"/>
		</contour>
		<contour>
			<point x="-448" y="241" type="line"/>
			<point x="-427" y="454" type="line"/>
			<point x="-151" y="454" type="line"/>
			<point x="-172" y="241" type="line"/>
		</contour>
		<contour>
			<point x="-95" y="241" type="line"/>
			<point x="-75" y="454" type="line"/>
			<point x="201" y="454" type="line"/>
			<point x="181" y="241" type="line"/>
		</contour>
	</outline>
</glyph>
